M48
;Layer_Color=9474304
;FILE_FORMAT=2:4
INCH
;TYPE=PLATED
T1F00S00C0.0118
T2F00S00C0.0197
T3F00S00C0.0276
T4F00S00C0.0354
T5F00S00C0.0394
T6F00S00C0.0433
T7F00S00C0.0441
T8F00S00C0.0748
T9F00S00C0.1181
T10F00S00C0.1260
;TYPE=NON_PLATED
T11F00S00C0.0591
T12F00S00C0.0787
T13F00S00C0.1575
%
T01
X012063Y012526
Y013126
Y013726
Y014326
Y014926
Y015526
X014071Y015026
X014671
X015271
X014071Y014426
Y013826
X013471
X012871
X015871Y015026
X017804Y015511
X018237
X020663Y014926
X020063Y011526
X017071Y012426
Y012926
Y013426
X029063Y013326
Y013926
Y014526
Y015126
X029980Y013822
X030580
X031180
Y014422
Y015022
X029063Y012726
Y012126
Y011526
X034180Y012422
Y012922
Y013422
X034896Y015493
X035330
X032980Y015022
X032380
X031780
X037763Y014926
X037263Y011426
X065956Y015273
X066546
X067559Y015469
Y014869
X068759Y016069
X069359
X068759Y016669
X065156Y016473
X065956Y029446
X066546
X067559Y029643
Y029043
X068759Y030243
X069359
X068759Y030843
X065156Y030646
X054563Y019136
Y018436
X052563Y019736
X052063
X051563
X035330Y016359
Y015926
X034896
Y016359
X018237Y016377
Y015944
X017804
Y016377
X023836Y026236
X025236
X026636
X028036
X025236Y030336
Y030836
X029413Y031726
X030136Y031736
X027036Y037236
X026536
X026036
X019336Y033836
Y033336
Y032836
X047663Y044836
X060820Y045650
Y046050
X061420
Y045650
Y042850
Y042450
X060820
Y042850
Y039850
Y039450
X059563Y036236
X065956Y043619
X066546
X067559Y043816
Y043216
X068759Y044416
X069359
X068759Y045016
X065156Y044819
X061420Y048650
Y049050
X056409Y056735
X055209Y056535
X054609
X054009Y057735
X053409
X054009Y058335
X056009Y058135
X056609Y058335
X048963Y047236
X038063Y049126
X034563Y048876
X033813
X033063
X023436Y054236
X022136
X019736
X023936Y058736
X024463Y058726
X025136Y058336
T02
X033336Y021136
X033836
X034336
X035663Y028976
X035063Y029576
X027813Y041326
Y041876
Y043876
Y044376
X032563Y036876
X035063Y033001
X039567Y039173
X035563Y048376
X025836Y054236
T03
X052134Y040827
X053134
X054134
X055134
X056134
Y049331
X055134
X054134
X053134
X052134
T04
X063059Y010969
X064059
X065059
X066059
X067059
X068059
X069059
X070059
X071059
X072059
X071659Y017069
Y018069
Y019069
Y020069
X072059Y025143
X071059
X070059
X069059
X068059
X067059
X066059
X065059
X064059
X063059
X065429Y023228
X066429
X067429
X068429
X071659Y031243
Y032243
Y033243
Y034243
X072059Y039316
X071059
X070059
X069059
X068059
X067059
X066059
X065059
X064059
X063059
X065429Y037402
X066429
X067429
X068429
X071659Y045416
Y046416
Y047416
Y048416
X068429Y051575
X067429
X066429
X065429
X054309Y060535
X053309
X052309
X051309
X046850Y057406
Y056406
Y055406
Y054406
T05
X037453Y023630
X038453
Y024630
X037453
Y025630
X038453
Y026630
X037453
Y027630
X038453
Y028630
X037453
Y029630
X038453
Y030630
X037453
X018453
X017453
Y029630
X018453
Y028630
X017453
Y027630
X018453
Y026630
X017453
Y025630
X018453
Y024630
X017453
Y023630
X018453
Y031630
Y032630
Y033630
Y034630
Y035630
Y036630
Y037630
Y038630
Y039630
Y040630
Y041630
Y042630
Y043630
Y044630
Y045630
Y046630
X017453
Y045630
Y044630
Y043630
Y042630
Y041630
Y040630
Y039630
Y038630
Y037630
Y036630
Y035630
Y034630
Y033630
Y032630
Y031630
X037453
X038453
Y032630
X037453
Y033630
X038453
Y034630
X037453
Y035630
X038453
Y036630
X037453
Y037630
X038453
Y038630
X037453
Y039630
X038453
Y040630
X037453
Y041630
X038453
Y042630
X037453
Y043630
X038453
Y044630
X037453
Y045630
X038453
Y046630
X037453
X050634Y037008
X051634
X052634
X053634
X054634
X055634
X056634
X057634
X058465Y055406
Y056406
X038453Y047630
X037453
X018453
X017453
T06
X047228Y015028
X048228Y015478
Y014577
X049228Y015028
Y015929
Y016831
Y017732
Y018634
X048228Y018183
Y017281
Y016380
X047228Y015929
Y016831
Y017732
Y018634
X023949Y055890
X023047
X022146
X021244
X020342
X020793Y056890
X021695
X022596
X023498
X024400
X023949Y057890
X023047
X022146
X021244
X020343
T07
X056900Y020339
X058051
X058061Y021520
X056909
T08
X031472Y028740
X029913
X028354
X026795
X023606
X022047
X020488
X020512Y023622
X022071
X023630
X025189
X026748
X028307
X026772Y033858
X025213
X023654
X022094
X020535
T09
X047146Y024213
X061122
X057490Y018638
X061122Y037008
X047146Y037008
T10
X048228Y011811
Y021654
X027165Y056890
X017323
T11
X040197Y059496
X030669
T12
X051968Y011614
X060827Y011614
X060827Y049803
X047441
T13
X012205Y021654
X043701Y051575
X012205
M30
