G04 Layer_Color=8388736*
%FSAX24Y24*%
%MOIN*%
G70*
G01*
G75*
%ADD45R,0.0552X0.0631*%
%ADD46R,0.0513X0.0631*%
%ADD47O,0.0689X0.0335*%
%ADD48O,0.0335X0.0689*%
%ADD49R,0.0316X0.0651*%
%ADD50R,0.0474X0.0671*%
%ADD51R,0.0631X0.0552*%
%ADD52R,0.0631X0.0513*%
%ADD53R,0.0651X0.0316*%
%ADD54R,0.0848X0.1281*%
%ADD55C,0.0671*%
%ADD56R,0.0671X0.0671*%
%ADD57R,0.0671X0.0671*%
%ADD58C,0.0680*%
%ADD59C,0.0080*%
%ADD60C,0.0789*%
%ADD61C,0.1537*%
%ADD62C,0.0867*%
%ADD63C,0.1261*%
%ADD64R,0.1261X0.1261*%
%ADD65C,0.1655*%
D45*
X064114Y049508D02*
D03*
X063445D02*
D03*
X064114Y048130D02*
D03*
X063445D02*
D03*
X070610Y043898D02*
D03*
X069941D02*
D03*
X064114Y042913D02*
D03*
X063445D02*
D03*
X070610D02*
D03*
X069941D02*
D03*
X064114Y043898D02*
D03*
X063445D02*
D03*
X070413Y048130D02*
D03*
X069744D02*
D03*
X064114Y035335D02*
D03*
X063445D02*
D03*
X064114Y033957D02*
D03*
X063445D02*
D03*
X070610Y029724D02*
D03*
X069941D02*
D03*
X064114Y028740D02*
D03*
X063445D02*
D03*
X070610D02*
D03*
X069941D02*
D03*
X064114Y029724D02*
D03*
X063445D02*
D03*
X070413Y033957D02*
D03*
X069744D02*
D03*
X064114Y021161D02*
D03*
X063445D02*
D03*
X064114Y019783D02*
D03*
X063445D02*
D03*
X070610Y015551D02*
D03*
X069941D02*
D03*
X064114Y014567D02*
D03*
X063445D02*
D03*
X070610D02*
D03*
X069941D02*
D03*
X064114Y015551D02*
D03*
X063445D02*
D03*
X070413Y019783D02*
D03*
X069744D02*
D03*
D46*
X070620Y040945D02*
D03*
X069931D02*
D03*
X070423Y049508D02*
D03*
X069734D02*
D03*
X070620Y041929D02*
D03*
X069931D02*
D03*
X070620Y026772D02*
D03*
X069931D02*
D03*
X070423Y035335D02*
D03*
X069734D02*
D03*
X070620Y027756D02*
D03*
X069931D02*
D03*
X070620Y012598D02*
D03*
X069931D02*
D03*
X070423Y021161D02*
D03*
X069734D02*
D03*
X070620Y013583D02*
D03*
X069931D02*
D03*
D47*
X068593Y041811D02*
D03*
Y042126D02*
D03*
Y042441D02*
D03*
Y042756D02*
D03*
Y043071D02*
D03*
Y043386D02*
D03*
Y043701D02*
D03*
Y044016D02*
D03*
X065266D02*
D03*
Y043701D02*
D03*
Y043386D02*
D03*
Y043071D02*
D03*
Y042756D02*
D03*
Y042441D02*
D03*
Y042126D02*
D03*
Y041811D02*
D03*
X068593Y027638D02*
D03*
Y027953D02*
D03*
Y028268D02*
D03*
Y028583D02*
D03*
Y028898D02*
D03*
Y029213D02*
D03*
Y029528D02*
D03*
Y029843D02*
D03*
X065266D02*
D03*
Y029528D02*
D03*
Y029213D02*
D03*
Y028898D02*
D03*
Y028583D02*
D03*
Y028268D02*
D03*
Y027953D02*
D03*
Y027638D02*
D03*
X068593Y013465D02*
D03*
Y013780D02*
D03*
Y014094D02*
D03*
Y014409D02*
D03*
Y014724D02*
D03*
Y015039D02*
D03*
Y015354D02*
D03*
Y015669D02*
D03*
X065266D02*
D03*
Y015354D02*
D03*
Y015039D02*
D03*
Y014724D02*
D03*
Y014409D02*
D03*
Y014094D02*
D03*
Y013780D02*
D03*
Y013465D02*
D03*
X053848Y057008D02*
D03*
Y056693D02*
D03*
Y056378D02*
D03*
Y056063D02*
D03*
Y055748D02*
D03*
Y055433D02*
D03*
Y055118D02*
D03*
Y054803D02*
D03*
X057175D02*
D03*
Y055118D02*
D03*
Y055433D02*
D03*
Y055748D02*
D03*
Y056063D02*
D03*
Y056378D02*
D03*
Y056693D02*
D03*
Y057008D02*
D03*
D48*
X068032Y044577D02*
D03*
X067717D02*
D03*
X067402D02*
D03*
X067087D02*
D03*
X066772D02*
D03*
X066457D02*
D03*
X066142D02*
D03*
X065827D02*
D03*
Y041250D02*
D03*
X066142D02*
D03*
X066457D02*
D03*
X066772D02*
D03*
X067087D02*
D03*
X067402D02*
D03*
X067717D02*
D03*
X068032D02*
D03*
Y030404D02*
D03*
X067717D02*
D03*
X067402D02*
D03*
X067087D02*
D03*
X066772D02*
D03*
X066457D02*
D03*
X066142D02*
D03*
X065827D02*
D03*
Y027077D02*
D03*
X066142D02*
D03*
X066457D02*
D03*
X066772D02*
D03*
X067087D02*
D03*
X067402D02*
D03*
X067717D02*
D03*
X068032D02*
D03*
Y016230D02*
D03*
X067717D02*
D03*
X067402D02*
D03*
X067087D02*
D03*
X066772D02*
D03*
X066457D02*
D03*
X066142D02*
D03*
X065827D02*
D03*
Y012904D02*
D03*
X066142D02*
D03*
X066457D02*
D03*
X066772D02*
D03*
X067087D02*
D03*
X067402D02*
D03*
X067717D02*
D03*
X068032D02*
D03*
X056614Y057569D02*
D03*
X056299D02*
D03*
X055984D02*
D03*
X055669D02*
D03*
X055354D02*
D03*
X055039D02*
D03*
X054724D02*
D03*
X054409D02*
D03*
Y054242D02*
D03*
X054724D02*
D03*
X055039D02*
D03*
X055354D02*
D03*
X055669D02*
D03*
X055984D02*
D03*
X056299D02*
D03*
X056614D02*
D03*
D49*
X066400Y049892D02*
D03*
X065900D02*
D03*
Y047746D02*
D03*
X065400D02*
D03*
X066400D02*
D03*
X065400Y049892D02*
D03*
X064900D02*
D03*
Y047746D02*
D03*
X068959Y049892D02*
D03*
X068459D02*
D03*
X067959D02*
D03*
X068459Y047746D02*
D03*
X067959D02*
D03*
X068959D02*
D03*
X067459Y049892D02*
D03*
Y047746D02*
D03*
X066400Y035719D02*
D03*
X065900D02*
D03*
Y033573D02*
D03*
X065400D02*
D03*
X066400D02*
D03*
X065400Y035719D02*
D03*
X064900D02*
D03*
Y033573D02*
D03*
X068959Y035719D02*
D03*
X068459D02*
D03*
X067959D02*
D03*
X068459Y033573D02*
D03*
X067959D02*
D03*
X068959D02*
D03*
X067459Y035719D02*
D03*
Y033573D02*
D03*
X066400Y021545D02*
D03*
X065900D02*
D03*
Y019400D02*
D03*
X065400D02*
D03*
X066400D02*
D03*
X065400Y021545D02*
D03*
X064900D02*
D03*
Y019400D02*
D03*
X068959Y021545D02*
D03*
X068459D02*
D03*
X067959D02*
D03*
X068459Y019400D02*
D03*
X067959D02*
D03*
X068959D02*
D03*
X067459Y021545D02*
D03*
Y019400D02*
D03*
D50*
X059067Y048502D02*
D03*
X059067Y046573D02*
D03*
X060326D02*
D03*
Y048502D02*
D03*
X059067Y045252D02*
D03*
X059067Y043323D02*
D03*
X060326D02*
D03*
Y045252D02*
D03*
X059067Y042002D02*
D03*
X059067Y040073D02*
D03*
X060326D02*
D03*
Y042002D02*
D03*
D51*
X061417Y047972D02*
D03*
Y047303D02*
D03*
Y044626D02*
D03*
Y043957D02*
D03*
Y041280D02*
D03*
Y040610D02*
D03*
X050295Y059390D02*
D03*
Y058720D02*
D03*
X054528Y053091D02*
D03*
Y052421D02*
D03*
X056496Y059587D02*
D03*
Y058917D02*
D03*
X055512Y053091D02*
D03*
Y052421D02*
D03*
X054528Y059587D02*
D03*
Y058917D02*
D03*
X050295Y053091D02*
D03*
Y052421D02*
D03*
X048917Y053091D02*
D03*
Y052421D02*
D03*
D52*
X057579Y059596D02*
D03*
Y058907D02*
D03*
X048917Y059400D02*
D03*
Y058711D02*
D03*
X056496Y053100D02*
D03*
Y052411D02*
D03*
X055512Y059596D02*
D03*
Y058907D02*
D03*
X028036Y025581D02*
D03*
Y024892D02*
D03*
X026636Y025581D02*
D03*
Y024892D02*
D03*
X025236Y025581D02*
D03*
Y024892D02*
D03*
X023836Y025581D02*
D03*
Y024892D02*
D03*
D53*
X048533Y057935D02*
D03*
Y057435D02*
D03*
Y056935D02*
D03*
X050679Y057435D02*
D03*
Y056935D02*
D03*
Y057935D02*
D03*
X048533Y056435D02*
D03*
X050679D02*
D03*
X048533Y055376D02*
D03*
Y054876D02*
D03*
X050679D02*
D03*
Y054376D02*
D03*
Y055376D02*
D03*
X048533Y054376D02*
D03*
Y053876D02*
D03*
X050679D02*
D03*
D54*
X030986Y023636D02*
D03*
X033486D02*
D03*
D55*
X066429Y051575D02*
D03*
X067429D02*
D03*
X065429D02*
D03*
X071659Y047416D02*
D03*
Y046416D02*
D03*
Y048416D02*
D03*
X071059Y039316D02*
D03*
X070059D02*
D03*
X067059D02*
D03*
X068059D02*
D03*
X066059D02*
D03*
X065059D02*
D03*
X063059D02*
D03*
X064059D02*
D03*
X066429Y037402D02*
D03*
X067429D02*
D03*
X065429D02*
D03*
X071659Y033243D02*
D03*
Y032243D02*
D03*
Y034243D02*
D03*
X071059Y025143D02*
D03*
X070059D02*
D03*
X067059D02*
D03*
X068059D02*
D03*
X066059D02*
D03*
X065059D02*
D03*
X063059D02*
D03*
X064059D02*
D03*
X066429Y023228D02*
D03*
X067429D02*
D03*
X065429D02*
D03*
X071659Y019069D02*
D03*
Y018069D02*
D03*
Y020069D02*
D03*
X071059Y010969D02*
D03*
X070059D02*
D03*
X067059D02*
D03*
X068059D02*
D03*
X066059D02*
D03*
X065059D02*
D03*
X063059D02*
D03*
X064059D02*
D03*
X052134Y049331D02*
D03*
X053134D02*
D03*
X054134D02*
D03*
X055134D02*
D03*
X056134D02*
D03*
Y040827D02*
D03*
X055134D02*
D03*
X054134D02*
D03*
X053134D02*
D03*
X052134D02*
D03*
X047228Y015028D02*
D03*
Y015929D02*
D03*
Y016831D02*
D03*
Y017732D02*
D03*
Y018634D02*
D03*
X048228Y015478D02*
D03*
Y016380D02*
D03*
Y017281D02*
D03*
Y018183D02*
D03*
Y014577D02*
D03*
X049228Y018634D02*
D03*
Y015929D02*
D03*
Y016831D02*
D03*
Y017732D02*
D03*
X051309Y060535D02*
D03*
X052309D02*
D03*
X053309D02*
D03*
X046850Y054406D02*
D03*
Y055406D02*
D03*
Y056406D02*
D03*
X058465Y055406D02*
D03*
X018453Y047630D02*
D03*
X017453Y046630D02*
D03*
X018453D02*
D03*
X017453Y045630D02*
D03*
X018453D02*
D03*
X017453Y044630D02*
D03*
X018453D02*
D03*
X017453Y043630D02*
D03*
X018453D02*
D03*
X017453Y042630D02*
D03*
X018453D02*
D03*
X017453Y041630D02*
D03*
X018453D02*
D03*
X017453Y040630D02*
D03*
X018453D02*
D03*
X017453Y039630D02*
D03*
X018453D02*
D03*
X017453Y038630D02*
D03*
X018453D02*
D03*
X017453Y037630D02*
D03*
X018453D02*
D03*
X017453Y036630D02*
D03*
X018453D02*
D03*
X017453Y035630D02*
D03*
X018453D02*
D03*
X017453Y034630D02*
D03*
X018453D02*
D03*
X017453Y033630D02*
D03*
X018453D02*
D03*
X017453Y032630D02*
D03*
X018453D02*
D03*
X017453Y031630D02*
D03*
X018453D02*
D03*
X017453Y030630D02*
D03*
X018453D02*
D03*
X017453Y029630D02*
D03*
X018453D02*
D03*
X017453Y028630D02*
D03*
X018453D02*
D03*
X017453Y027630D02*
D03*
X018453D02*
D03*
X017453Y026630D02*
D03*
X018453D02*
D03*
X017453Y025630D02*
D03*
X018453D02*
D03*
X017453Y024630D02*
D03*
X018453D02*
D03*
X017453Y023630D02*
D03*
X018453D02*
D03*
X038453Y047630D02*
D03*
X023949Y057890D02*
D03*
X023047D02*
D03*
X022146D02*
D03*
X021244D02*
D03*
X020343D02*
D03*
X023498Y056890D02*
D03*
X022596D02*
D03*
X021695D02*
D03*
X020793D02*
D03*
X024400D02*
D03*
X020342Y055890D02*
D03*
X023047D02*
D03*
X022146D02*
D03*
X021244D02*
D03*
X040197Y059496D02*
D03*
X030669D02*
D03*
D56*
X068429Y051575D02*
D03*
X072059Y039316D02*
D03*
X069059D02*
D03*
X068429Y037402D02*
D03*
X072059Y025143D02*
D03*
X069059D02*
D03*
X068429Y023228D02*
D03*
X072059Y010969D02*
D03*
X069059D02*
D03*
X054309Y060535D02*
D03*
X023949Y055890D02*
D03*
D57*
X071659Y045416D02*
D03*
Y031243D02*
D03*
Y017069D02*
D03*
X049228Y015028D02*
D03*
X046850Y057406D02*
D03*
X058465Y056406D02*
D03*
X017453Y047630D02*
D03*
X037453D02*
D03*
D58*
X050634Y037008D02*
D03*
X051634D02*
D03*
X052634D02*
D03*
X053634D02*
D03*
X054634D02*
D03*
X055634D02*
D03*
X056634D02*
D03*
X057634D02*
D03*
X038453Y023630D02*
D03*
X037453D02*
D03*
X038453Y024630D02*
D03*
X037453D02*
D03*
X038453Y025630D02*
D03*
X037453D02*
D03*
X038453Y026630D02*
D03*
X037453D02*
D03*
X038453Y027630D02*
D03*
X037453D02*
D03*
X038453Y028630D02*
D03*
X037453D02*
D03*
X038453Y029630D02*
D03*
X037453D02*
D03*
X038453Y030630D02*
D03*
X037453D02*
D03*
X038453Y031630D02*
D03*
X037453D02*
D03*
X038453Y032630D02*
D03*
X037453D02*
D03*
X038453Y033630D02*
D03*
X037453D02*
D03*
X038453Y034630D02*
D03*
X037453D02*
D03*
X038453Y035630D02*
D03*
X037453D02*
D03*
X038453Y036630D02*
D03*
X037453D02*
D03*
X038453Y037630D02*
D03*
X037453D02*
D03*
X038453Y038630D02*
D03*
X037453D02*
D03*
X038453Y039630D02*
D03*
X037453D02*
D03*
X038453Y040630D02*
D03*
X037453D02*
D03*
X038453Y041630D02*
D03*
X037453D02*
D03*
X038453Y042630D02*
D03*
X037453D02*
D03*
X038453Y043630D02*
D03*
X037453D02*
D03*
X038453Y044630D02*
D03*
X037453D02*
D03*
X038453Y045630D02*
D03*
X037453D02*
D03*
X038453Y046630D02*
D03*
X037453D02*
D03*
D59*
X047146Y037008D02*
D03*
Y024213D02*
D03*
X061122Y037008D02*
D03*
Y024213D02*
D03*
X057490Y018638D02*
D03*
D60*
X056909Y021520D02*
D03*
X058061D02*
D03*
X058051Y020339D02*
D03*
X056900D02*
D03*
D61*
X048228Y011811D02*
D03*
Y021654D02*
D03*
X027165Y056890D02*
D03*
X017323D02*
D03*
D62*
X051968Y011614D02*
D03*
X047441Y049803D02*
D03*
X060827D02*
D03*
X060827Y011614D02*
D03*
D63*
X031472Y028740D02*
D03*
X029913D02*
D03*
X028354D02*
D03*
X028307Y023622D02*
D03*
X025189D02*
D03*
X023630D02*
D03*
X022071D02*
D03*
X026748D02*
D03*
X025213Y033858D02*
D03*
X023654D02*
D03*
X022094D02*
D03*
X026772D02*
D03*
X022047Y028740D02*
D03*
X023606D02*
D03*
D64*
X026795D02*
D03*
X020512Y023622D02*
D03*
X020535Y033858D02*
D03*
X020488Y028740D02*
D03*
D65*
X012205Y021654D02*
D03*
Y051575D02*
D03*
X043701D02*
D03*
M02*
