M48
;Layer_Color=9474304
;FILE_FORMAT=2:4
INCH
;TYPE=PLATED
T1F00S00C0.0118
T2F00S00C0.0197
T3F00S00C0.0394
T4F00S00C0.0433
T5F00S00C0.0748
T6F00S00C0.1260
;TYPE=NON_PLATED
T7F00S00C0.0591
T8F00S00C0.1575
%
T01
X017000Y013500
Y014100
Y014700
Y015300
X017808Y014800
X018408
X019008
Y015400
X022008Y014400
Y013900
Y013400
X025000Y012500
X034000
Y013100
Y013700
Y014300
Y014900
Y015500
X034917Y014796
X035517
X036117
Y015396
X039117Y014396
Y013896
Y013396
X042200Y012400
X042700Y015900
X040267Y016467
X039833
Y016900
X040267
Y017333
X039833
X037917Y015996
X037317
X036717
X036117
X034000Y016100
X032973Y027210
X031573
X030173
X028773
X025600Y015900
X023174Y016485
X022741
Y016918
X023174
Y017351
X022741
X020808Y016000
X020208
X019608
X019008
X017000Y015900
Y016500
X024273Y033810
Y034310
Y034810
X030173Y031810
Y031310
X030973Y038210
X031473
X031973
X034350Y032700
X035073Y032710
X038000Y049850
X038750
X039500
X043000Y050100
X028373Y055210
X027073
X024673
X028873Y059710
X029400Y059700
X030073Y059310
T02
X038273Y022110
X038773
X039273
X040000Y030550
X040600Y029950
X040000Y033975
X037500Y037850
X032750Y042300
Y042850
Y044850
Y045350
X044504Y040147
X040500Y049350
X030773Y055210
T03
X042390Y024604
X043390
Y025604
X042390
Y026604
X043390
Y027604
X042390
Y028604
X043390
Y029604
X042390
Y030604
X043390
X023390
X022390
Y029604
X023390
Y028604
X022390
Y027604
X023390
Y026604
X022390
Y025604
X023390
Y024604
X022390
Y031604
Y032604
Y033604
Y034604
Y035604
Y036604
Y037604
Y038604
Y039604
Y040604
Y041604
Y042604
Y043604
Y044604
Y045604
Y046604
X023390
Y045604
Y044604
Y043604
Y042604
Y041604
Y040604
Y039604
Y038604
Y037604
Y036604
Y035604
Y034604
Y033604
Y032604
Y031604
X042390
X043390
Y032604
X042390
Y033604
X043390
Y034604
X042390
Y035604
X043390
Y036604
X042390
Y037604
X043390
Y038604
X042390
Y039604
X043390
Y040604
X042390
Y041604
X043390
Y042604
X042390
Y043604
X043390
Y044604
X042390
Y045604
X043390
Y046604
X042390
Y047604
X043390
Y048604
X042390
X023390
X022390
Y047604
X023390
T04
X025279Y056864
X026181
X027083
X027984
X028886
X028435Y057864
X027533
X026632
X025730
X026181Y058864
X027083
X027984
X028886
X029337Y057864
X025280Y058864
T05
X031685Y024596
X033244
X033291Y029714
X034850
X036409
X031732
X028543
X026984
X025425
X025449Y024596
X027008
X028567
X030126
X030150Y034832
X028591
X027031
X025472
X031709
T06
X032102Y057864
X022260
T07
X035606Y060470
X045134
T08
X048638Y022628
X017142
X048638Y052549
X017142
M30
