G04 Layer_Physical_Order=1*
G04 Layer_Color=255*
%FSAX24Y24*%
%MOIN*%
G70*
G01*
G75*
%ADD10R,0.0551X0.0433*%
%ADD11R,0.0768X0.1201*%
%ADD12C,0.0100*%
%ADD13C,0.0250*%
%ADD14C,0.0300*%
%ADD15C,0.0200*%
%ADD16C,0.1575*%
%ADD17C,0.1181*%
%ADD18R,0.1181X0.1181*%
%ADD19C,0.0591*%
%ADD20C,0.1457*%
%ADD21R,0.0591X0.0591*%
%ADD22C,0.0600*%
%ADD23R,0.0591X0.0591*%
%ADD24C,0.0354*%
%ADD25C,0.0472*%
G36*
X050402Y011414D02*
X015377D01*
Y062187D01*
X050402D01*
Y011414D01*
D02*
G37*
%LPC*%
G36*
X045134Y060919D02*
X045018Y060904D01*
X044909Y060859D01*
X044816Y060787D01*
X044745Y060694D01*
X044700Y060586D01*
X044685Y060470D01*
X044700Y060353D01*
X044745Y060245D01*
X044816Y060152D01*
X044909Y060081D01*
X045018Y060036D01*
X045134Y060021D01*
X045250Y060036D01*
X045358Y060081D01*
X045451Y060152D01*
X045523Y060245D01*
X045568Y060353D01*
X045583Y060470D01*
X045568Y060586D01*
X045523Y060694D01*
X045451Y060787D01*
X045358Y060859D01*
X045250Y060904D01*
X045134Y060919D01*
D02*
G37*
G36*
X035606D02*
X035490Y060904D01*
X035382Y060859D01*
X035289Y060787D01*
X035217Y060694D01*
X035172Y060586D01*
X035157Y060470D01*
X035172Y060353D01*
X035217Y060245D01*
X035289Y060152D01*
X035382Y060081D01*
X035490Y060036D01*
X035606Y060021D01*
X035723Y060036D01*
X035831Y060081D01*
X035924Y060152D01*
X035995Y060245D01*
X036040Y060353D01*
X036055Y060470D01*
X036040Y060586D01*
X035995Y060694D01*
X035924Y060787D01*
X035831Y060859D01*
X035723Y060904D01*
X035606Y060919D01*
D02*
G37*
G36*
X032152Y058691D02*
Y057914D01*
X032930D01*
X032919Y058026D01*
X032871Y058182D01*
X032794Y058326D01*
X032691Y058452D01*
X032565Y058556D01*
X032421Y058633D01*
X032265Y058680D01*
X032152Y058691D01*
D02*
G37*
G36*
X032052D02*
X031940Y058680D01*
X031784Y058633D01*
X031640Y058556D01*
X031514Y058452D01*
X031410Y058326D01*
X031333Y058182D01*
X031286Y058026D01*
X031275Y057914D01*
X032052D01*
Y058691D01*
D02*
G37*
G36*
X022310D02*
Y057914D01*
X023087D01*
X023076Y058026D01*
X023029Y058182D01*
X022952Y058326D01*
X022848Y058452D01*
X022722Y058556D01*
X022578Y058633D01*
X022422Y058680D01*
X022310Y058691D01*
D02*
G37*
G36*
X022210D02*
X022097Y058680D01*
X021941Y058633D01*
X021797Y058556D01*
X021671Y058452D01*
X021568Y058326D01*
X021491Y058182D01*
X021443Y058026D01*
X021432Y057914D01*
X022210D01*
Y058691D01*
D02*
G37*
G36*
X032930Y057814D02*
X032152D01*
Y057036D01*
X032265Y057047D01*
X032421Y057095D01*
X032565Y057172D01*
X032691Y057275D01*
X032794Y057401D01*
X032871Y057545D01*
X032919Y057701D01*
X032930Y057814D01*
D02*
G37*
G36*
X032052D02*
X031275D01*
X031286Y057701D01*
X031333Y057545D01*
X031410Y057401D01*
X031514Y057275D01*
X031640Y057172D01*
X031784Y057095D01*
X031940Y057047D01*
X032052Y057036D01*
Y057814D01*
D02*
G37*
G36*
X023087D02*
X022310D01*
Y057036D01*
X022422Y057047D01*
X022578Y057095D01*
X022722Y057172D01*
X022848Y057275D01*
X022952Y057401D01*
X023029Y057545D01*
X023076Y057701D01*
X023087Y057814D01*
D02*
G37*
G36*
X022210D02*
X021432D01*
X021443Y057701D01*
X021491Y057545D01*
X021568Y057401D01*
X021671Y057275D01*
X021797Y057172D01*
X021941Y057095D01*
X022097Y057047D01*
X022210Y057036D01*
Y057814D01*
D02*
G37*
G36*
X029850Y060803D02*
X024900D01*
X024822Y060792D01*
X024749Y060762D01*
X024686Y060714D01*
X023786Y059814D01*
X023738Y059751D01*
X023708Y059678D01*
X023697Y059600D01*
Y058483D01*
X023708Y058405D01*
X023738Y058332D01*
X023786Y058270D01*
X024420Y057636D01*
X024420Y057636D01*
X024482Y057588D01*
X024555Y057558D01*
X024587Y057554D01*
X024624Y057449D01*
X024529Y057354D01*
X024485Y057288D01*
X024469Y057210D01*
Y055520D01*
X024412Y055405D01*
X024411Y055400D01*
X024408Y055395D01*
X024403Y055371D01*
X024397Y055347D01*
X024397Y055342D01*
X024396Y055337D01*
X024401Y055312D01*
X024404Y055288D01*
X024405Y055287D01*
X024403Y055283D01*
X024394Y055210D01*
X024403Y055138D01*
X024431Y055070D01*
X024476Y055013D01*
X024533Y054968D01*
X024601Y054940D01*
X024673Y054931D01*
X024746Y054940D01*
X024813Y054968D01*
X024871Y055013D01*
X024877Y055020D01*
X024977Y054986D01*
Y054604D01*
X024987Y054526D01*
X025017Y054453D01*
X025066Y054390D01*
X025959Y053496D01*
X025959Y053496D01*
X026022Y053448D01*
X026095Y053418D01*
X026173Y053408D01*
X044548D01*
X045271Y052685D01*
Y024336D01*
X041786Y020851D01*
X041738Y020788D01*
X041708Y020715D01*
X041697Y020637D01*
Y016425D01*
X040786Y015514D01*
X040738Y015451D01*
X040708Y015378D01*
X040697Y015300D01*
Y012700D01*
X040708Y012622D01*
X040738Y012549D01*
X040786Y012486D01*
X041019Y012253D01*
X040978Y012153D01*
X040375D01*
X040353Y012175D01*
Y015947D01*
X040917D01*
X040975Y015959D01*
X041025Y015992D01*
X041058Y016041D01*
X041069Y016100D01*
Y020900D01*
X041058Y020959D01*
X041025Y021008D01*
X040975Y021041D01*
X040917Y021053D01*
X037526D01*
Y022510D01*
X037515Y022569D01*
X037481Y022618D01*
X037476Y022622D01*
Y025832D01*
X037466Y025911D01*
X037435Y025984D01*
X037387Y026046D01*
X034468Y028966D01*
X034528Y029047D01*
X034566Y029027D01*
X034705Y028984D01*
X034850Y028970D01*
X034996Y028984D01*
X035135Y029027D01*
X035264Y029095D01*
X035377Y029188D01*
X035469Y029301D01*
X035538Y029429D01*
X035580Y029569D01*
X035680D01*
X035722Y029429D01*
X035791Y029301D01*
X035883Y029188D01*
X035996Y029095D01*
X036125Y029027D01*
X036264Y028984D01*
X036409Y028970D01*
X036555Y028984D01*
X036694Y029027D01*
X036823Y029095D01*
X036936Y029188D01*
X037028Y029301D01*
X037097Y029429D01*
X037139Y029569D01*
X037154Y029714D01*
X037139Y029859D01*
X037097Y029999D01*
X037028Y030128D01*
X036941Y030234D01*
X036613Y030704D01*
Y031374D01*
X036598Y031452D01*
X036554Y031518D01*
X035437Y032635D01*
X035395Y032757D01*
X035393Y032762D01*
X035392Y032767D01*
X035378Y032788D01*
X035365Y032809D01*
X035361Y032812D01*
X035359Y032817D01*
X035338Y032830D01*
X035318Y032846D01*
X035317Y032846D01*
X035315Y032850D01*
X035271Y032908D01*
X035213Y032952D01*
X035146Y032980D01*
X035073Y032990D01*
X035001Y032980D01*
X034933Y032952D01*
X034876Y032908D01*
X034831Y032850D01*
X034803Y032783D01*
X034798Y032743D01*
X034697Y032714D01*
X034668Y032757D01*
X034655Y032777D01*
X034642Y032799D01*
X034638Y032802D01*
X034635Y032806D01*
X034615Y032820D01*
X034595Y032835D01*
X034594Y032836D01*
X034592Y032840D01*
X034548Y032898D01*
X034490Y032942D01*
X034422Y032970D01*
X034350Y032980D01*
X034278Y032970D01*
X034210Y032942D01*
X034152Y032898D01*
X034108Y032840D01*
X034080Y032772D01*
X034070Y032700D01*
X034080Y032628D01*
X034108Y032560D01*
X034152Y032502D01*
X034210Y032458D01*
X034214Y032456D01*
X034215Y032455D01*
X034230Y032435D01*
X034244Y032415D01*
X034248Y032412D01*
X034251Y032408D01*
X034273Y032395D01*
X034293Y032382D01*
X034298Y032381D01*
X034303Y032378D01*
X034425Y032337D01*
X034646Y032115D01*
Y030704D01*
X034319Y030234D01*
X034232Y030128D01*
X034163Y029999D01*
X034121Y029859D01*
X034115Y029803D01*
X034078Y029785D01*
X034013Y029783D01*
X034010Y029786D01*
X033999Y029806D01*
X033994Y029811D01*
X033990Y029816D01*
X033974Y029827D01*
X033972Y029850D01*
X033932Y029980D01*
X033868Y030100D01*
X033782Y030205D01*
X033677Y030291D01*
X033557Y030355D01*
X033427Y030395D01*
X033341Y030403D01*
Y029714D01*
X033291D01*
Y029664D01*
X032602D01*
X032611Y029579D01*
X032643Y029471D01*
X032550Y029434D01*
X032473Y029589D01*
Y030455D01*
X030992D01*
Y028974D01*
X031858D01*
X032232Y028786D01*
X035558Y025461D01*
X035516Y025361D01*
X035389D01*
Y023860D01*
X036457D01*
Y025361D01*
X036226D01*
Y025523D01*
X036216Y025602D01*
X036185Y025675D01*
X036137Y025737D01*
X032679Y029196D01*
X032678Y029215D01*
X032777Y029252D01*
X032801Y029224D01*
X032906Y029137D01*
X033026Y029073D01*
X033156Y029034D01*
X033178Y029031D01*
X033189Y029016D01*
X033195Y029012D01*
X033199Y029006D01*
X033219Y028995D01*
X033239Y028982D01*
X033245Y028981D01*
X033252Y028978D01*
X033759Y028819D01*
X036871Y025707D01*
Y022663D01*
X036573D01*
X036515Y022652D01*
X036465Y022618D01*
X036432Y022569D01*
X036420Y022510D01*
X036420Y021053D01*
X025600D01*
X025541Y021041D01*
X025492Y021008D01*
X025459Y020959D01*
X025447Y020900D01*
Y020253D01*
X016600D01*
X016541Y020241D01*
X016492Y020208D01*
X016459Y020159D01*
X016447Y020100D01*
Y013100D01*
X016459Y013041D01*
X016492Y012992D01*
X016541Y012959D01*
X016600Y012947D01*
X023600Y012947D01*
X023659Y012959D01*
X023708Y012992D01*
X023741Y013041D01*
X023753Y013100D01*
Y017947D01*
X028000D01*
X032247Y017947D01*
X032247Y011900D01*
X032259Y011841D01*
X032292Y011792D01*
X032341Y011759D01*
X032400Y011747D01*
X039925D01*
X040036Y011636D01*
X040036Y011636D01*
X040099Y011588D01*
X040172Y011558D01*
X040250Y011547D01*
X044350D01*
X044428Y011558D01*
X044501Y011588D01*
X044564Y011636D01*
X046464Y013536D01*
X046512Y013599D01*
X046542Y013672D01*
X046553Y013750D01*
X046553Y013750D01*
Y053000D01*
X046542Y053078D01*
X046512Y053151D01*
X046464Y053214D01*
X045214Y054464D01*
X045151Y054512D01*
X045078Y054542D01*
X045000Y054553D01*
X027125D01*
X026484Y055194D01*
Y056412D01*
X026536Y056615D01*
X026537Y056634D01*
X026540Y056649D01*
X026545Y056658D01*
X026574Y056690D01*
X026575Y056691D01*
X026649Y056677D01*
X026686Y056658D01*
X026694Y056639D01*
X026737Y056582D01*
X026737Y056582D01*
X026869Y056357D01*
Y055520D01*
X026812Y055405D01*
X026811Y055400D01*
X026808Y055395D01*
X026803Y055371D01*
X026797Y055347D01*
X026797Y055342D01*
X026796Y055337D01*
X026801Y055312D01*
X026804Y055288D01*
X026805Y055287D01*
X026803Y055283D01*
X026794Y055210D01*
X026803Y055138D01*
X026831Y055070D01*
X026876Y055013D01*
X026933Y054968D01*
X027001Y054940D01*
X027073Y054931D01*
X027146Y054940D01*
X027213Y054968D01*
X027271Y055013D01*
X027315Y055070D01*
X027343Y055138D01*
X027353Y055210D01*
X027343Y055283D01*
X027342Y055287D01*
X027342Y055288D01*
X027345Y055312D01*
X027350Y055337D01*
X027349Y055342D01*
X027350Y055347D01*
X027343Y055371D01*
X027339Y055395D01*
X027336Y055400D01*
X027334Y055405D01*
X027277Y055520D01*
Y056351D01*
X027400Y056546D01*
X027400Y056546D01*
X027472Y056639D01*
X027479Y056658D01*
X027588D01*
X027595Y056639D01*
X027667Y056546D01*
X027760Y056475D01*
X027868Y056430D01*
X027984Y056415D01*
X028101Y056430D01*
X028131Y056443D01*
X028231Y056376D01*
Y055540D01*
X028175Y055459D01*
X028168Y055442D01*
X028158Y055425D01*
X028156Y055415D01*
X028152Y055404D01*
X028151Y055385D01*
X028150Y055374D01*
X028131Y055350D01*
X028103Y055283D01*
X028094Y055210D01*
X028103Y055138D01*
X028131Y055070D01*
X028176Y055013D01*
X028233Y054968D01*
X028301Y054940D01*
X028373Y054931D01*
X028446Y054940D01*
X028513Y054968D01*
X028571Y055013D01*
X028615Y055070D01*
X028643Y055138D01*
X028650Y055188D01*
X028655Y055197D01*
X028667Y055212D01*
X028671Y055222D01*
X028677Y055232D01*
X028680Y055251D01*
X028686Y055268D01*
X028685Y055280D01*
X028686Y055291D01*
X028682Y055309D01*
X028681Y055328D01*
X028639Y055472D01*
Y056418D01*
X029331D01*
Y057309D01*
X028729D01*
X028672Y057409D01*
X028768Y057566D01*
X028824Y057639D01*
X028832Y057658D01*
X028940D01*
X028948Y057639D01*
X029019Y057546D01*
X029112Y057475D01*
X029220Y057430D01*
X029337Y057415D01*
X029453Y057430D01*
X029561Y057475D01*
X029654Y057546D01*
X029726Y057639D01*
X029770Y057748D01*
X029786Y057864D01*
X029770Y057980D01*
X029743Y058046D01*
X029799Y058146D01*
X029813D01*
X029891Y058162D01*
X029957Y058206D01*
X030245Y058493D01*
X030289Y058559D01*
X030304Y058637D01*
Y059017D01*
X030357Y059147D01*
X030359Y059158D01*
X030364Y059168D01*
X030365Y059187D01*
X030368Y059205D01*
X030366Y059216D01*
X030366Y059228D01*
X030360Y059245D01*
X030356Y059264D01*
X030350Y059273D01*
X030348Y059277D01*
X030353Y059310D01*
X030343Y059383D01*
X030315Y059450D01*
X030271Y059508D01*
X030213Y059552D01*
X030146Y059580D01*
X030073Y059590D01*
X030001Y059580D01*
X029933Y059552D01*
X029876Y059508D01*
X029854Y059480D01*
X029816Y059454D01*
X029772Y059388D01*
X029756Y059310D01*
X029772Y059232D01*
X029816Y059166D01*
X029820Y059164D01*
X029819Y059146D01*
X029819Y059144D01*
X029819Y059143D01*
X029829Y059116D01*
X029838Y059089D01*
X029896Y058989D01*
Y058722D01*
X029729Y058554D01*
X029587D01*
X029542Y058563D01*
X029329D01*
X029285Y058663D01*
X029320Y058748D01*
X029335Y058864D01*
X029320Y058980D01*
X029275Y059088D01*
X029203Y059181D01*
X029110Y059253D01*
X029002Y059298D01*
X028886Y059313D01*
X028770Y059298D01*
X028661Y059253D01*
X028568Y059181D01*
X028497Y059088D01*
X028489Y059070D01*
X028381D01*
X028373Y059088D01*
X028302Y059181D01*
X028209Y059253D01*
X028101Y059298D01*
X027984Y059313D01*
X027868Y059298D01*
X027760Y059253D01*
X027667Y059181D01*
X027595Y059088D01*
X027588Y059070D01*
X027479D01*
X027472Y059088D01*
X027400Y059181D01*
X027307Y059253D01*
X027199Y059298D01*
X027083Y059313D01*
X027057Y059309D01*
X027010Y059404D01*
X027112Y059506D01*
X028563D01*
X028679Y059449D01*
X028684Y059448D01*
X028688Y059445D01*
X028713Y059440D01*
X028737Y059434D01*
X028742Y059434D01*
X028747Y059433D01*
X028771Y059438D01*
X028796Y059441D01*
X028797Y059442D01*
X028801Y059440D01*
X028873Y059431D01*
X028946Y059440D01*
X029013Y059468D01*
X029071Y059513D01*
X029077Y059516D01*
X029195Y059512D01*
X029202Y059502D01*
X029260Y059458D01*
X029328Y059430D01*
X029400Y059420D01*
X029472Y059430D01*
X029540Y059458D01*
X029598Y059502D01*
X029642Y059560D01*
X029670Y059628D01*
X029680Y059700D01*
X029670Y059772D01*
X029642Y059840D01*
X029598Y059898D01*
X029540Y059942D01*
X029536Y059944D01*
X029535Y059945D01*
X029520Y059965D01*
X029506Y059985D01*
X029502Y059988D01*
X029499Y059992D01*
X029477Y060005D01*
X029457Y060018D01*
X029452Y060019D01*
X029447Y060022D01*
X029360Y060051D01*
X029335Y060097D01*
X029394Y060197D01*
X029725D01*
X030471Y059451D01*
Y055546D01*
X030456Y055394D01*
X030456Y055386D01*
X030455Y055379D01*
X030459Y055357D01*
X030461Y055336D01*
X030446Y055298D01*
X030434Y055210D01*
X030446Y055122D01*
X030480Y055041D01*
X030533Y054970D01*
X030604Y054917D01*
X030685Y054883D01*
X030773Y054871D01*
X030861Y054883D01*
X030943Y054917D01*
X031013Y054970D01*
X031067Y055041D01*
X031101Y055122D01*
X031112Y055210D01*
X031101Y055298D01*
X031085Y055336D01*
X031087Y055357D01*
X031092Y055379D01*
X031090Y055386D01*
X031091Y055394D01*
X031076Y055546D01*
Y059577D01*
X031076Y059577D01*
X031066Y059655D01*
X031035Y059728D01*
X030987Y059791D01*
X030987Y059791D01*
X030064Y060714D01*
X030001Y060762D01*
X029928Y060792D01*
X029850Y060803D01*
D02*
G37*
G36*
X048638Y053491D02*
X048454Y053473D01*
X048277Y053419D01*
X048114Y053332D01*
X047972Y053215D01*
X047855Y053072D01*
X047768Y052909D01*
X047714Y052733D01*
X047696Y052549D01*
X047714Y052365D01*
X047768Y052188D01*
X047855Y052026D01*
X047972Y051883D01*
X048114Y051766D01*
X048277Y051679D01*
X048454Y051625D01*
X048638Y051607D01*
X048822Y051625D01*
X048998Y051679D01*
X049161Y051766D01*
X049304Y051883D01*
X049421Y052026D01*
X049508Y052188D01*
X049562Y052365D01*
X049580Y052549D01*
X049562Y052733D01*
X049508Y052909D01*
X049421Y053072D01*
X049304Y053215D01*
X049161Y053332D01*
X048998Y053419D01*
X048822Y053473D01*
X048638Y053491D01*
D02*
G37*
G36*
X017142D02*
X016958Y053473D01*
X016781Y053419D01*
X016618Y053332D01*
X016476Y053215D01*
X016359Y053072D01*
X016272Y052909D01*
X016218Y052733D01*
X016200Y052549D01*
X016218Y052365D01*
X016272Y052188D01*
X016359Y052026D01*
X016476Y051883D01*
X016618Y051766D01*
X016781Y051679D01*
X016958Y051625D01*
X017142Y051607D01*
X017326Y051625D01*
X017502Y051679D01*
X017665Y051766D01*
X017808Y051883D01*
X017925Y052026D01*
X018012Y052188D01*
X018066Y052365D01*
X018084Y052549D01*
X018066Y052733D01*
X018012Y052909D01*
X017925Y053072D01*
X017808Y053215D01*
X017665Y053332D01*
X017502Y053419D01*
X017326Y053473D01*
X017142Y053491D01*
D02*
G37*
G36*
X042800Y050504D02*
X037700D01*
X037622Y050488D01*
X037556Y050444D01*
X037356Y050244D01*
X037312Y050178D01*
X037296Y050100D01*
Y049600D01*
X037312Y049522D01*
X037356Y049456D01*
X040646Y046166D01*
Y032578D01*
X040662Y032500D01*
X040706Y032434D01*
X041396Y031744D01*
Y029200D01*
X041412Y029122D01*
X041456Y029056D01*
X041596Y028916D01*
Y028194D01*
X041612Y028116D01*
X041656Y028050D01*
X041880Y027826D01*
X041939Y027579D01*
X041951Y027486D01*
X041997Y027377D01*
X042069Y027283D01*
X042163Y027211D01*
X042272Y027166D01*
X042354Y027155D01*
X042365Y027055D01*
X042272Y027042D01*
X042163Y026997D01*
X042069Y026925D01*
X041997Y026831D01*
X041951Y026721D01*
X041936Y026604D01*
X041951Y026486D01*
X041997Y026377D01*
X042069Y026283D01*
X042163Y026211D01*
X042272Y026166D01*
X042324Y026159D01*
X042357Y026154D01*
Y026054D01*
X042324Y026049D01*
X042272Y026042D01*
X042163Y025997D01*
X042069Y025925D01*
X041997Y025831D01*
X041951Y025721D01*
X041936Y025604D01*
X041951Y025486D01*
X041997Y025377D01*
X042069Y025283D01*
X042163Y025211D01*
X042272Y025166D01*
X042390Y025150D01*
X042507Y025166D01*
X042617Y025211D01*
X042711Y025283D01*
X042783Y025377D01*
X042828Y025486D01*
X042835Y025538D01*
X042839Y025571D01*
X042940D01*
X042944Y025538D01*
X042951Y025486D01*
X042997Y025377D01*
X043069Y025283D01*
X043163Y025211D01*
X043272Y025166D01*
X043390Y025150D01*
X043507Y025166D01*
X043617Y025211D01*
X043711Y025283D01*
X043783Y025377D01*
X043828Y025486D01*
X043844Y025604D01*
X043828Y025721D01*
X043783Y025831D01*
X043711Y025925D01*
X043617Y025997D01*
X043507Y026042D01*
X043455Y026049D01*
X043423Y026054D01*
Y026154D01*
X043455Y026159D01*
X043507Y026166D01*
X043617Y026211D01*
X043711Y026283D01*
X043783Y026377D01*
X043828Y026486D01*
X043844Y026604D01*
X043828Y026721D01*
X043783Y026831D01*
X043711Y026925D01*
X043617Y026997D01*
X043507Y027042D01*
X043455Y027049D01*
X043423Y027054D01*
Y027154D01*
X043455Y027159D01*
X043507Y027166D01*
X043617Y027211D01*
X043711Y027283D01*
X043783Y027377D01*
X043828Y027486D01*
X043844Y027604D01*
X043828Y027721D01*
X043783Y027831D01*
X043711Y027925D01*
X043617Y027997D01*
X043507Y028042D01*
X043455Y028049D01*
X043423Y028054D01*
Y028154D01*
X043455Y028159D01*
X043507Y028166D01*
X043617Y028211D01*
X043711Y028283D01*
X043783Y028377D01*
X043828Y028486D01*
X043844Y028604D01*
X043828Y028721D01*
X043783Y028831D01*
X043711Y028925D01*
X043617Y028997D01*
X043507Y029042D01*
X043455Y029049D01*
X043423Y029054D01*
Y029154D01*
X043455Y029159D01*
X043507Y029166D01*
X043617Y029211D01*
X043711Y029283D01*
X043783Y029377D01*
X043828Y029486D01*
X043844Y029604D01*
X043828Y029721D01*
X043783Y029831D01*
X043711Y029925D01*
X043617Y029997D01*
X043507Y030042D01*
X043455Y030049D01*
X043423Y030054D01*
Y030154D01*
X043455Y030159D01*
X043507Y030166D01*
X043617Y030211D01*
X043711Y030283D01*
X043783Y030377D01*
X043828Y030486D01*
X043844Y030604D01*
X043828Y030721D01*
X043783Y030831D01*
X043711Y030925D01*
X043617Y030997D01*
X043507Y031042D01*
X043455Y031049D01*
X043423Y031054D01*
Y031154D01*
X043455Y031159D01*
X043507Y031166D01*
X043617Y031211D01*
X043711Y031283D01*
X043783Y031377D01*
X043828Y031486D01*
X043844Y031604D01*
X043828Y031721D01*
X043783Y031831D01*
X043711Y031925D01*
X043617Y031997D01*
X043507Y032042D01*
X043455Y032049D01*
X043423Y032054D01*
Y032154D01*
X043455Y032159D01*
X043507Y032166D01*
X043617Y032211D01*
X043711Y032283D01*
X043783Y032377D01*
X043828Y032486D01*
X043844Y032604D01*
X043828Y032721D01*
X043783Y032831D01*
X043711Y032925D01*
X043617Y032997D01*
X043507Y033042D01*
X043414Y033055D01*
X043426Y033155D01*
X043507Y033166D01*
X043617Y033211D01*
X043711Y033283D01*
X043783Y033377D01*
X043828Y033486D01*
X043844Y033604D01*
X043828Y033721D01*
X043783Y033831D01*
X043711Y033925D01*
X043617Y033997D01*
X043507Y034042D01*
X043455Y034049D01*
X043423Y034054D01*
Y034154D01*
X043455Y034159D01*
X043507Y034166D01*
X043617Y034211D01*
X043711Y034283D01*
X043783Y034377D01*
X043828Y034486D01*
X043844Y034604D01*
X043828Y034721D01*
X043783Y034831D01*
X043711Y034925D01*
X043617Y034997D01*
X043507Y035042D01*
X043455Y035049D01*
X043423Y035054D01*
Y035154D01*
X043455Y035159D01*
X043507Y035166D01*
X043617Y035211D01*
X043711Y035283D01*
X043783Y035377D01*
X043828Y035486D01*
X043844Y035604D01*
X043828Y035721D01*
X043783Y035831D01*
X043711Y035925D01*
X043617Y035997D01*
X043507Y036042D01*
X043455Y036049D01*
X043423Y036054D01*
Y036154D01*
X043455Y036159D01*
X043507Y036166D01*
X043617Y036211D01*
X043711Y036283D01*
X043783Y036377D01*
X043828Y036486D01*
X043844Y036604D01*
X043828Y036721D01*
X043783Y036831D01*
X043711Y036925D01*
X043617Y036997D01*
X043507Y037042D01*
X043455Y037049D01*
X043423Y037054D01*
Y037154D01*
X043455Y037159D01*
X043507Y037166D01*
X043617Y037211D01*
X043711Y037283D01*
X043783Y037377D01*
X043828Y037486D01*
X043844Y037604D01*
X043828Y037721D01*
X043783Y037831D01*
X043711Y037925D01*
X043617Y037997D01*
X043507Y038042D01*
X043455Y038049D01*
X043423Y038054D01*
Y038154D01*
X043455Y038159D01*
X043507Y038166D01*
X043617Y038211D01*
X043711Y038283D01*
X043783Y038377D01*
X043828Y038486D01*
X043844Y038604D01*
X043828Y038721D01*
X043783Y038831D01*
X043711Y038925D01*
X043617Y038997D01*
X043507Y039042D01*
X043455Y039049D01*
X043423Y039054D01*
Y039154D01*
X043455Y039159D01*
X043507Y039166D01*
X043617Y039211D01*
X043711Y039283D01*
X043783Y039377D01*
X043828Y039486D01*
X043844Y039604D01*
X043828Y039721D01*
X043783Y039831D01*
X043711Y039925D01*
X043617Y039997D01*
X043507Y040042D01*
X043455Y040049D01*
X043423Y040054D01*
Y040154D01*
X043455Y040159D01*
X043507Y040166D01*
X043617Y040211D01*
X043711Y040283D01*
X043783Y040377D01*
X043828Y040486D01*
X043844Y040604D01*
X043828Y040721D01*
X043783Y040831D01*
X043711Y040925D01*
X043617Y040997D01*
X043507Y041042D01*
X043455Y041049D01*
X043423Y041054D01*
Y041154D01*
X043455Y041159D01*
X043507Y041166D01*
X043617Y041211D01*
X043711Y041283D01*
X043783Y041377D01*
X043828Y041486D01*
X043844Y041604D01*
X043828Y041721D01*
X043783Y041831D01*
X043711Y041925D01*
X043617Y041997D01*
X043507Y042042D01*
X043455Y042049D01*
X043423Y042054D01*
Y042154D01*
X043455Y042159D01*
X043507Y042166D01*
X043617Y042211D01*
X043711Y042283D01*
X043783Y042377D01*
X043828Y042486D01*
X043844Y042604D01*
X043828Y042721D01*
X043783Y042831D01*
X043711Y042925D01*
X043617Y042997D01*
X043507Y043042D01*
X043455Y043049D01*
X043423Y043054D01*
Y043154D01*
X043455Y043159D01*
X043507Y043166D01*
X043617Y043211D01*
X043711Y043283D01*
X043783Y043377D01*
X043828Y043486D01*
X043844Y043604D01*
X043828Y043721D01*
X043783Y043831D01*
X043711Y043925D01*
X043617Y043997D01*
X043507Y044042D01*
X043455Y044049D01*
X043423Y044054D01*
Y044154D01*
X043455Y044159D01*
X043507Y044166D01*
X043617Y044211D01*
X043711Y044283D01*
X043783Y044377D01*
X043828Y044486D01*
X043844Y044604D01*
X043828Y044721D01*
X043783Y044831D01*
X043711Y044925D01*
X043617Y044997D01*
X043507Y045042D01*
X043455Y045049D01*
X043423Y045054D01*
Y045154D01*
X043455Y045159D01*
X043507Y045166D01*
X043617Y045211D01*
X043711Y045283D01*
X043783Y045377D01*
X043828Y045486D01*
X043844Y045604D01*
X043828Y045721D01*
X043783Y045831D01*
X043711Y045925D01*
X043617Y045997D01*
X043507Y046042D01*
X043455Y046049D01*
X043423Y046054D01*
Y046154D01*
X043455Y046159D01*
X043507Y046166D01*
X043617Y046211D01*
X043711Y046283D01*
X043783Y046377D01*
X043828Y046486D01*
X043844Y046604D01*
X043828Y046721D01*
X043783Y046831D01*
X043711Y046925D01*
X043617Y046997D01*
X043507Y047042D01*
X043455Y047049D01*
X043423Y047054D01*
Y047154D01*
X043455Y047159D01*
X043507Y047166D01*
X043617Y047211D01*
X043711Y047283D01*
X043783Y047377D01*
X043828Y047486D01*
X043844Y047604D01*
X043828Y047721D01*
X043783Y047831D01*
X043711Y047925D01*
X043617Y047997D01*
X043507Y048042D01*
X043390Y048058D01*
X043272Y048042D01*
X043163Y047997D01*
X043069Y047925D01*
X042997Y047831D01*
X042951Y047721D01*
X042944Y047669D01*
X042940Y047637D01*
X042839D01*
X042835Y047669D01*
X042828Y047721D01*
X042783Y047831D01*
X042711Y047925D01*
X042617Y047997D01*
X042507Y048042D01*
X042390Y048058D01*
X042272Y048042D01*
X042163Y047997D01*
X042069Y047925D01*
X041997Y047831D01*
X041951Y047721D01*
X041936Y047604D01*
X041951Y047486D01*
X041997Y047377D01*
X042069Y047283D01*
X042163Y047211D01*
X042272Y047166D01*
X042324Y047159D01*
X042357Y047154D01*
Y047054D01*
X042324Y047049D01*
X042272Y047042D01*
X042163Y046997D01*
X042069Y046925D01*
X041997Y046831D01*
X041951Y046721D01*
X041936Y046604D01*
X041951Y046486D01*
X041997Y046377D01*
X042069Y046283D01*
X042163Y046211D01*
X042272Y046166D01*
X042324Y046159D01*
X042357Y046154D01*
Y046054D01*
X042324Y046049D01*
X042272Y046042D01*
X042163Y045997D01*
X042069Y045925D01*
X041997Y045831D01*
X041951Y045721D01*
X041936Y045604D01*
X041951Y045486D01*
X041997Y045377D01*
X042069Y045283D01*
X042163Y045211D01*
X042272Y045166D01*
X042324Y045159D01*
X042357Y045154D01*
Y045054D01*
X042324Y045049D01*
X042272Y045042D01*
X042163Y044997D01*
X042069Y044925D01*
X041997Y044831D01*
X041951Y044721D01*
X041936Y044604D01*
X041951Y044486D01*
X041997Y044377D01*
X042069Y044283D01*
X042163Y044211D01*
X042272Y044166D01*
X042324Y044159D01*
X042357Y044154D01*
Y044054D01*
X042324Y044049D01*
X042272Y044042D01*
X042163Y043997D01*
X042069Y043925D01*
X041997Y043831D01*
X041951Y043721D01*
X041936Y043604D01*
X041951Y043486D01*
X041997Y043377D01*
X042069Y043283D01*
X042163Y043211D01*
X042272Y043166D01*
X042324Y043159D01*
X042357Y043154D01*
Y043054D01*
X042324Y043049D01*
X042272Y043042D01*
X042163Y042997D01*
X042069Y042925D01*
X041997Y042831D01*
X041951Y042721D01*
X041936Y042604D01*
X041951Y042486D01*
X041997Y042377D01*
X042069Y042283D01*
X042163Y042211D01*
X042272Y042166D01*
X042324Y042159D01*
X042357Y042154D01*
Y042054D01*
X042324Y042049D01*
X042272Y042042D01*
X042163Y041997D01*
X042069Y041925D01*
X041997Y041831D01*
X041951Y041721D01*
X041936Y041604D01*
X041951Y041486D01*
X041997Y041377D01*
X042069Y041283D01*
X042163Y041211D01*
X042272Y041166D01*
X042324Y041159D01*
X042357Y041154D01*
Y041054D01*
X042324Y041049D01*
X042272Y041042D01*
X042163Y040997D01*
X042069Y040925D01*
X041997Y040831D01*
X041951Y040721D01*
X041936Y040604D01*
X041951Y040486D01*
X041997Y040377D01*
X042069Y040283D01*
X042163Y040211D01*
X042272Y040166D01*
X042324Y040159D01*
X042357Y040154D01*
Y040054D01*
X042324Y040049D01*
X042272Y040042D01*
X042163Y039997D01*
X042069Y039925D01*
X041997Y039831D01*
X041951Y039721D01*
X041936Y039604D01*
X041951Y039486D01*
X041997Y039377D01*
X042069Y039283D01*
X042163Y039211D01*
X042272Y039166D01*
X042324Y039159D01*
X042357Y039154D01*
Y039054D01*
X042324Y039049D01*
X042272Y039042D01*
X042163Y038997D01*
X042069Y038925D01*
X041997Y038831D01*
X041951Y038721D01*
X041936Y038604D01*
X041951Y038486D01*
X041997Y038377D01*
X042069Y038283D01*
X042163Y038211D01*
X042272Y038166D01*
X042324Y038159D01*
X042357Y038154D01*
Y038054D01*
X042324Y038049D01*
X042272Y038042D01*
X042163Y037997D01*
X042069Y037925D01*
X041997Y037831D01*
X041951Y037721D01*
X041936Y037604D01*
X041951Y037486D01*
X041997Y037377D01*
X042069Y037283D01*
X042163Y037211D01*
X042272Y037166D01*
X042324Y037159D01*
X042357Y037154D01*
Y037054D01*
X042324Y037049D01*
X042272Y037042D01*
X042163Y036997D01*
X042069Y036925D01*
X041997Y036831D01*
X041951Y036721D01*
X041936Y036604D01*
X041951Y036486D01*
X041997Y036377D01*
X042069Y036283D01*
X042163Y036211D01*
X042272Y036166D01*
X042324Y036159D01*
X042357Y036154D01*
Y036054D01*
X042324Y036049D01*
X042272Y036042D01*
X042163Y035997D01*
X042069Y035925D01*
X041997Y035831D01*
X041951Y035721D01*
X041936Y035604D01*
X041951Y035486D01*
X041997Y035377D01*
X042069Y035283D01*
X042163Y035211D01*
X042272Y035166D01*
X042324Y035159D01*
X042357Y035154D01*
Y035054D01*
X042324Y035049D01*
X042272Y035042D01*
X042163Y034997D01*
X042069Y034925D01*
X041997Y034831D01*
X041951Y034721D01*
X041936Y034604D01*
X041951Y034486D01*
X041997Y034377D01*
X042069Y034283D01*
X042163Y034211D01*
X042272Y034166D01*
X042324Y034159D01*
X042357Y034154D01*
Y034054D01*
X042324Y034049D01*
X042272Y034042D01*
X042163Y033997D01*
X042069Y033925D01*
X041997Y033831D01*
X041951Y033721D01*
X041946Y033683D01*
X041841Y033648D01*
X041704Y033784D01*
Y047784D01*
X041688Y047862D01*
X041644Y047929D01*
X040638Y048935D01*
X040661Y049053D01*
X040670Y049056D01*
X040740Y049110D01*
X040794Y049180D01*
X040828Y049262D01*
X040833Y049300D01*
X040500D01*
Y049350D01*
X040450D01*
Y049683D01*
X040412Y049678D01*
X040330Y049644D01*
X040260Y049590D01*
X040206Y049520D01*
X040203Y049511D01*
X040085Y049488D01*
X039843Y049730D01*
X039820Y049834D01*
X039811Y049856D01*
X039803Y049878D01*
X039799Y049883D01*
X039796Y049889D01*
X039779Y049905D01*
X039771Y049915D01*
X039770Y049922D01*
X039742Y049990D01*
X039737Y049996D01*
X039787Y050096D01*
X042664D01*
X042678Y050053D01*
X042681Y050049D01*
X042682Y050044D01*
X042695Y050023D01*
X042708Y050002D01*
X042712Y049999D01*
X042715Y049995D01*
X042736Y049981D01*
X042755Y049966D01*
X042756Y049965D01*
X042758Y049960D01*
X042802Y049902D01*
X042860Y049858D01*
X042928Y049830D01*
X043000Y049820D01*
X043072Y049830D01*
X043140Y049858D01*
X043198Y049902D01*
X043242Y049960D01*
X043270Y050028D01*
X043280Y050100D01*
X043270Y050172D01*
X043242Y050240D01*
X043198Y050298D01*
X043140Y050342D01*
X043135Y050344D01*
X043134Y050345D01*
X043119Y050364D01*
X043105Y050385D01*
X043101Y050388D01*
X043098Y050392D01*
X043077Y050405D01*
X043056Y050418D01*
X043051Y050419D01*
X043047Y050422D01*
X042906Y050470D01*
X042878Y050488D01*
X042800Y050504D01*
D02*
G37*
G36*
X040550Y049683D02*
Y049400D01*
X040833D01*
X040828Y049438D01*
X040794Y049520D01*
X040740Y049590D01*
X040670Y049644D01*
X040588Y049678D01*
X040550Y049683D01*
D02*
G37*
G36*
X043440Y048996D02*
Y048654D01*
X043782D01*
X043775Y048707D01*
X043735Y048803D01*
X043672Y048886D01*
X043589Y048949D01*
X043493Y048989D01*
X043440Y048996D01*
D02*
G37*
G36*
X042785Y048999D02*
X042440D01*
Y048654D01*
X042785D01*
Y048999D01*
D02*
G37*
G36*
X023440Y048996D02*
Y048654D01*
X023782D01*
X023775Y048707D01*
X023735Y048803D01*
X023672Y048886D01*
X023589Y048949D01*
X023493Y048989D01*
X023440Y048996D01*
D02*
G37*
G36*
X022785Y048999D02*
X022440D01*
Y048654D01*
X022785D01*
Y048999D01*
D02*
G37*
G36*
X043340Y048996D02*
X043287Y048989D01*
X043190Y048949D01*
X043108Y048886D01*
X043044Y048803D01*
X043005Y048707D01*
X042998Y048654D01*
X043340D01*
Y048996D01*
D02*
G37*
G36*
X023340D02*
X023287Y048989D01*
X023190Y048949D01*
X023108Y048886D01*
X023044Y048803D01*
X023005Y048707D01*
X022998Y048654D01*
X023340D01*
Y048996D01*
D02*
G37*
G36*
X042340Y048999D02*
X041994D01*
Y048654D01*
X042340D01*
Y048999D01*
D02*
G37*
G36*
X022340D02*
X021994D01*
Y048654D01*
X022340D01*
Y048999D01*
D02*
G37*
G36*
X043782Y048554D02*
X043440D01*
Y048212D01*
X043493Y048219D01*
X043589Y048259D01*
X043672Y048322D01*
X043735Y048405D01*
X043775Y048501D01*
X043782Y048554D01*
D02*
G37*
G36*
X023782D02*
X023440D01*
Y048212D01*
X023493Y048219D01*
X023589Y048259D01*
X023672Y048322D01*
X023735Y048405D01*
X023775Y048501D01*
X023782Y048554D01*
D02*
G37*
G36*
X043340D02*
X042998D01*
X043005Y048501D01*
X043044Y048405D01*
X043108Y048322D01*
X043190Y048259D01*
X043287Y048219D01*
X043340Y048212D01*
Y048554D01*
D02*
G37*
G36*
X023340D02*
X022998D01*
X023005Y048501D01*
X023044Y048405D01*
X023108Y048322D01*
X023190Y048259D01*
X023287Y048219D01*
X023340Y048212D01*
Y048554D01*
D02*
G37*
G36*
X042785D02*
X042440D01*
Y048209D01*
X042785D01*
Y048554D01*
D02*
G37*
G36*
X042340D02*
X041994D01*
Y048209D01*
X042340D01*
Y048554D01*
D02*
G37*
G36*
X022785D02*
X022440D01*
Y048209D01*
X022785D01*
Y048554D01*
D02*
G37*
G36*
X022340D02*
X021994D01*
Y048209D01*
X022340D01*
Y048554D01*
D02*
G37*
G36*
X023390Y048053D02*
X023274Y048038D01*
X023165Y047993D01*
X023072Y047922D01*
X023001Y047828D01*
X022956Y047720D01*
X022941Y047604D01*
X022956Y047488D01*
X023001Y047379D01*
X023072Y047286D01*
X023165Y047215D01*
X023274Y047170D01*
X023390Y047155D01*
X023506Y047170D01*
X023614Y047215D01*
X023707Y047286D01*
X023779Y047379D01*
X023824Y047488D01*
X023839Y047604D01*
X023824Y047720D01*
X023779Y047828D01*
X023707Y047922D01*
X023614Y047993D01*
X023506Y048038D01*
X023390Y048053D01*
D02*
G37*
G36*
X022390D02*
X022274Y048038D01*
X022165Y047993D01*
X022072Y047922D01*
X022001Y047828D01*
X021956Y047720D01*
X021941Y047604D01*
X021956Y047488D01*
X022001Y047379D01*
X022072Y047286D01*
X022165Y047215D01*
X022274Y047170D01*
X022390Y047155D01*
X022506Y047170D01*
X022614Y047215D01*
X022707Y047286D01*
X022779Y047379D01*
X022824Y047488D01*
X022839Y047604D01*
X022824Y047720D01*
X022779Y047828D01*
X022707Y047922D01*
X022614Y047993D01*
X022506Y048038D01*
X022390Y048053D01*
D02*
G37*
G36*
X022440Y046996D02*
Y046654D01*
X022782D01*
X022775Y046707D01*
X022735Y046803D01*
X022672Y046886D01*
X022589Y046949D01*
X022493Y046989D01*
X022440Y046996D01*
D02*
G37*
G36*
X022340D02*
X022287Y046989D01*
X022190Y046949D01*
X022108Y046886D01*
X022044Y046803D01*
X022005Y046707D01*
X021998Y046654D01*
X022340D01*
Y046996D01*
D02*
G37*
G36*
X022782Y046554D02*
X022440D01*
Y046212D01*
X022493Y046219D01*
X022589Y046259D01*
X022672Y046322D01*
X022735Y046405D01*
X022775Y046501D01*
X022782Y046554D01*
D02*
G37*
G36*
X022340D02*
X021998D01*
X022005Y046501D01*
X022044Y046405D01*
X022108Y046322D01*
X022190Y046259D01*
X022287Y046219D01*
X022340Y046212D01*
Y046554D01*
D02*
G37*
G36*
X023390Y047053D02*
X023274Y047038D01*
X023165Y046993D01*
X023072Y046922D01*
X023001Y046828D01*
X022956Y046720D01*
X022941Y046604D01*
X022956Y046488D01*
X023001Y046379D01*
X023072Y046286D01*
X023165Y046215D01*
X023274Y046170D01*
X023390Y046155D01*
X023506Y046170D01*
X023614Y046215D01*
X023707Y046286D01*
X023779Y046379D01*
X023824Y046488D01*
X023839Y046604D01*
X023824Y046720D01*
X023779Y046828D01*
X023707Y046922D01*
X023614Y046993D01*
X023506Y047038D01*
X023390Y047053D01*
D02*
G37*
G36*
Y046053D02*
X023274Y046038D01*
X023165Y045993D01*
X023072Y045922D01*
X023001Y045828D01*
X022956Y045720D01*
X022941Y045604D01*
X022956Y045488D01*
X023001Y045379D01*
X023072Y045286D01*
X023165Y045215D01*
X023274Y045170D01*
X023390Y045155D01*
X023506Y045170D01*
X023614Y045215D01*
X023707Y045286D01*
X023779Y045379D01*
X023824Y045488D01*
X023839Y045604D01*
X023824Y045720D01*
X023779Y045828D01*
X023707Y045922D01*
X023614Y045993D01*
X023506Y046038D01*
X023390Y046053D01*
D02*
G37*
G36*
X022390D02*
X022274Y046038D01*
X022165Y045993D01*
X022072Y045922D01*
X022001Y045828D01*
X021956Y045720D01*
X021941Y045604D01*
X021956Y045488D01*
X022001Y045379D01*
X022072Y045286D01*
X022165Y045215D01*
X022274Y045170D01*
X022390Y045155D01*
X022506Y045170D01*
X022614Y045215D01*
X022707Y045286D01*
X022779Y045379D01*
X022824Y045488D01*
X022839Y045604D01*
X022824Y045720D01*
X022779Y045828D01*
X022707Y045922D01*
X022614Y045993D01*
X022506Y046038D01*
X022390Y046053D01*
D02*
G37*
G36*
X023390Y045053D02*
X023274Y045038D01*
X023165Y044993D01*
X023072Y044922D01*
X023001Y044829D01*
X022956Y044720D01*
X022941Y044604D01*
X022956Y044488D01*
X023001Y044379D01*
X023072Y044286D01*
X023165Y044215D01*
X023274Y044170D01*
X023390Y044155D01*
X023506Y044170D01*
X023614Y044215D01*
X023707Y044286D01*
X023779Y044379D01*
X023824Y044488D01*
X023839Y044604D01*
X023824Y044720D01*
X023779Y044829D01*
X023707Y044922D01*
X023614Y044993D01*
X023506Y045038D01*
X023390Y045053D01*
D02*
G37*
G36*
X022390D02*
X022274Y045038D01*
X022165Y044993D01*
X022072Y044922D01*
X022001Y044829D01*
X021956Y044720D01*
X021941Y044604D01*
X021956Y044488D01*
X022001Y044379D01*
X022072Y044286D01*
X022165Y044215D01*
X022274Y044170D01*
X022390Y044155D01*
X022506Y044170D01*
X022614Y044215D01*
X022707Y044286D01*
X022779Y044379D01*
X022824Y044488D01*
X022839Y044604D01*
X022824Y044720D01*
X022779Y044829D01*
X022707Y044922D01*
X022614Y044993D01*
X022506Y045038D01*
X022390Y045053D01*
D02*
G37*
G36*
X023390Y044053D02*
X023274Y044038D01*
X023165Y043993D01*
X023072Y043922D01*
X023001Y043829D01*
X022956Y043720D01*
X022941Y043604D01*
X022956Y043488D01*
X023001Y043379D01*
X023072Y043286D01*
X023165Y043215D01*
X023274Y043170D01*
X023390Y043155D01*
X023506Y043170D01*
X023614Y043215D01*
X023707Y043286D01*
X023779Y043379D01*
X023824Y043488D01*
X023839Y043604D01*
X023824Y043720D01*
X023779Y043829D01*
X023707Y043922D01*
X023614Y043993D01*
X023506Y044038D01*
X023390Y044053D01*
D02*
G37*
G36*
X022390D02*
X022274Y044038D01*
X022165Y043993D01*
X022072Y043922D01*
X022001Y043829D01*
X021956Y043720D01*
X021941Y043604D01*
X021956Y043488D01*
X022001Y043379D01*
X022072Y043286D01*
X022165Y043215D01*
X022274Y043170D01*
X022390Y043155D01*
X022506Y043170D01*
X022614Y043215D01*
X022707Y043286D01*
X022779Y043379D01*
X022824Y043488D01*
X022839Y043604D01*
X022824Y043720D01*
X022779Y043829D01*
X022707Y043922D01*
X022614Y043993D01*
X022506Y044038D01*
X022390Y044053D01*
D02*
G37*
G36*
X023390Y043053D02*
X023274Y043038D01*
X023165Y042993D01*
X023072Y042922D01*
X023001Y042828D01*
X022956Y042720D01*
X022941Y042604D01*
X022956Y042488D01*
X023001Y042379D01*
X023072Y042286D01*
X023165Y042215D01*
X023274Y042170D01*
X023390Y042155D01*
X023506Y042170D01*
X023614Y042215D01*
X023707Y042286D01*
X023779Y042379D01*
X023824Y042488D01*
X023839Y042604D01*
X023824Y042720D01*
X023779Y042828D01*
X023707Y042922D01*
X023614Y042993D01*
X023506Y043038D01*
X023390Y043053D01*
D02*
G37*
G36*
X022390D02*
X022274Y043038D01*
X022165Y042993D01*
X022072Y042922D01*
X022001Y042828D01*
X021956Y042720D01*
X021941Y042604D01*
X021956Y042488D01*
X022001Y042379D01*
X022072Y042286D01*
X022165Y042215D01*
X022274Y042170D01*
X022390Y042155D01*
X022506Y042170D01*
X022614Y042215D01*
X022707Y042286D01*
X022779Y042379D01*
X022824Y042488D01*
X022839Y042604D01*
X022824Y042720D01*
X022779Y042828D01*
X022707Y042922D01*
X022614Y042993D01*
X022506Y043038D01*
X022390Y043053D01*
D02*
G37*
G36*
X032750Y045689D02*
X032662Y045678D01*
X032580Y045644D01*
X032510Y045590D01*
X032456Y045520D01*
X032422Y045438D01*
X032411Y045350D01*
X032422Y045262D01*
X032438Y045224D01*
X032436Y045203D01*
X032432Y045181D01*
X032433Y045174D01*
X032432Y045166D01*
X032439Y045100D01*
X032432Y045034D01*
X032433Y045026D01*
X032432Y045019D01*
X032436Y044997D01*
X032438Y044976D01*
X032422Y044938D01*
X032411Y044850D01*
X032422Y044762D01*
X032438Y044724D01*
X032436Y044703D01*
X032432Y044681D01*
X032433Y044674D01*
X032432Y044666D01*
X032447Y044515D01*
Y043185D01*
X032432Y043034D01*
X032433Y043026D01*
X032432Y043019D01*
X032436Y042997D01*
X032438Y042976D01*
X032422Y042938D01*
X032411Y042850D01*
X032422Y042762D01*
X032438Y042724D01*
X032436Y042703D01*
X032432Y042681D01*
X032433Y042674D01*
X032432Y042666D01*
X032441Y042575D01*
X032432Y042484D01*
X032433Y042476D01*
X032432Y042469D01*
X032436Y042447D01*
X032438Y042426D01*
X032422Y042388D01*
X032411Y042300D01*
X032422Y042212D01*
X032456Y042130D01*
X032510Y042060D01*
X032580Y042006D01*
X032662Y041972D01*
X032750Y041961D01*
X032838Y041972D01*
X032920Y042006D01*
X032990Y042060D01*
X033044Y042130D01*
X033078Y042212D01*
X033089Y042300D01*
X033078Y042388D01*
X033062Y042426D01*
X033064Y042447D01*
X033068Y042469D01*
X033067Y042476D01*
X033068Y042484D01*
X033059Y042575D01*
X033068Y042666D01*
X033067Y042674D01*
X033068Y042681D01*
X033064Y042703D01*
X033062Y042724D01*
X033078Y042762D01*
X033089Y042850D01*
X033078Y042938D01*
X033062Y042976D01*
X033064Y042997D01*
X033068Y043019D01*
X033067Y043026D01*
X033068Y043034D01*
X033053Y043185D01*
Y044515D01*
X033068Y044666D01*
X033067Y044674D01*
X033068Y044681D01*
X033064Y044703D01*
X033062Y044724D01*
X033078Y044762D01*
X033089Y044850D01*
X033078Y044938D01*
X033062Y044976D01*
X033064Y044997D01*
X033068Y045019D01*
X033067Y045026D01*
X033068Y045034D01*
X033061Y045100D01*
X033068Y045166D01*
X033067Y045174D01*
X033068Y045181D01*
X033064Y045203D01*
X033062Y045224D01*
X033078Y045262D01*
X033089Y045350D01*
X033078Y045438D01*
X033044Y045520D01*
X032990Y045590D01*
X032920Y045644D01*
X032838Y045678D01*
X032750Y045689D01*
D02*
G37*
G36*
X023390Y042053D02*
X023274Y042038D01*
X023165Y041993D01*
X023072Y041922D01*
X023001Y041828D01*
X022956Y041720D01*
X022941Y041604D01*
X022956Y041488D01*
X023001Y041379D01*
X023072Y041286D01*
X023165Y041215D01*
X023274Y041170D01*
X023390Y041155D01*
X023506Y041170D01*
X023614Y041215D01*
X023707Y041286D01*
X023779Y041379D01*
X023824Y041488D01*
X023839Y041604D01*
X023824Y041720D01*
X023779Y041828D01*
X023707Y041922D01*
X023614Y041993D01*
X023506Y042038D01*
X023390Y042053D01*
D02*
G37*
G36*
X022390D02*
X022274Y042038D01*
X022165Y041993D01*
X022072Y041922D01*
X022001Y041828D01*
X021956Y041720D01*
X021941Y041604D01*
X021956Y041488D01*
X022001Y041379D01*
X022072Y041286D01*
X022165Y041215D01*
X022274Y041170D01*
X022390Y041155D01*
X022506Y041170D01*
X022614Y041215D01*
X022707Y041286D01*
X022779Y041379D01*
X022824Y041488D01*
X022839Y041604D01*
X022824Y041720D01*
X022779Y041828D01*
X022707Y041922D01*
X022614Y041993D01*
X022506Y042038D01*
X022390Y042053D01*
D02*
G37*
G36*
X044554Y040480D02*
Y040197D01*
X044836D01*
X044832Y040235D01*
X044798Y040317D01*
X044744Y040387D01*
X044674Y040441D01*
X044592Y040475D01*
X044554Y040480D01*
D02*
G37*
G36*
X044454D02*
X044416Y040475D01*
X044334Y040441D01*
X044264Y040387D01*
X044210Y040317D01*
X044176Y040235D01*
X044171Y040197D01*
X044454D01*
Y040480D01*
D02*
G37*
G36*
X023390Y041053D02*
X023274Y041038D01*
X023165Y040993D01*
X023072Y040922D01*
X023001Y040828D01*
X022956Y040720D01*
X022941Y040604D01*
X022956Y040488D01*
X023001Y040379D01*
X023072Y040286D01*
X023165Y040215D01*
X023274Y040170D01*
X023390Y040155D01*
X023506Y040170D01*
X023614Y040215D01*
X023707Y040286D01*
X023779Y040379D01*
X023824Y040488D01*
X023839Y040604D01*
X023824Y040720D01*
X023779Y040828D01*
X023707Y040922D01*
X023614Y040993D01*
X023506Y041038D01*
X023390Y041053D01*
D02*
G37*
G36*
X022390D02*
X022274Y041038D01*
X022165Y040993D01*
X022072Y040922D01*
X022001Y040828D01*
X021956Y040720D01*
X021941Y040604D01*
X021956Y040488D01*
X022001Y040379D01*
X022072Y040286D01*
X022165Y040215D01*
X022274Y040170D01*
X022390Y040155D01*
X022506Y040170D01*
X022614Y040215D01*
X022707Y040286D01*
X022779Y040379D01*
X022824Y040488D01*
X022839Y040604D01*
X022824Y040720D01*
X022779Y040828D01*
X022707Y040922D01*
X022614Y040993D01*
X022506Y041038D01*
X022390Y041053D01*
D02*
G37*
G36*
X044836Y040097D02*
X044554D01*
Y039815D01*
X044592Y039820D01*
X044674Y039854D01*
X044744Y039907D01*
X044798Y039978D01*
X044832Y040059D01*
X044836Y040097D01*
D02*
G37*
G36*
X044454D02*
X044171D01*
X044176Y040059D01*
X044210Y039978D01*
X044264Y039907D01*
X044334Y039854D01*
X044416Y039820D01*
X044454Y039815D01*
Y040097D01*
D02*
G37*
G36*
X023390Y040053D02*
X023274Y040038D01*
X023165Y039993D01*
X023072Y039922D01*
X023001Y039828D01*
X022956Y039720D01*
X022941Y039604D01*
X022956Y039488D01*
X023001Y039379D01*
X023072Y039286D01*
X023165Y039215D01*
X023274Y039170D01*
X023390Y039155D01*
X023506Y039170D01*
X023614Y039215D01*
X023707Y039286D01*
X023779Y039379D01*
X023824Y039488D01*
X023839Y039604D01*
X023824Y039720D01*
X023779Y039828D01*
X023707Y039922D01*
X023614Y039993D01*
X023506Y040038D01*
X023390Y040053D01*
D02*
G37*
G36*
X022390D02*
X022274Y040038D01*
X022165Y039993D01*
X022072Y039922D01*
X022001Y039828D01*
X021956Y039720D01*
X021941Y039604D01*
X021956Y039488D01*
X022001Y039379D01*
X022072Y039286D01*
X022165Y039215D01*
X022274Y039170D01*
X022390Y039155D01*
X022506Y039170D01*
X022614Y039215D01*
X022707Y039286D01*
X022779Y039379D01*
X022824Y039488D01*
X022839Y039604D01*
X022824Y039720D01*
X022779Y039828D01*
X022707Y039922D01*
X022614Y039993D01*
X022506Y040038D01*
X022390Y040053D01*
D02*
G37*
G36*
X031973Y038490D02*
X031901Y038480D01*
X031833Y038452D01*
X031776Y038408D01*
X031671D01*
X031613Y038452D01*
X031546Y038480D01*
X031473Y038490D01*
X031401Y038480D01*
X031333Y038452D01*
X031276Y038408D01*
X031171D01*
X031113Y038452D01*
X031046Y038480D01*
X030973Y038490D01*
X030901Y038480D01*
X030833Y038452D01*
X030776Y038408D01*
X030731Y038350D01*
X030703Y038283D01*
X030694Y038210D01*
X030703Y038138D01*
X030705Y038134D01*
X030704Y038133D01*
X030701Y038108D01*
X030696Y038084D01*
X030697Y038079D01*
X030697Y038074D01*
X030703Y038050D01*
X030708Y038025D01*
X030711Y038021D01*
X030712Y038016D01*
X030769Y037900D01*
Y037299D01*
X029146Y035676D01*
X028582Y035576D01*
X028445Y035562D01*
X028306Y035520D01*
X028177Y035451D01*
X028064Y035358D01*
X027972Y035246D01*
X027903Y035117D01*
X027861Y034977D01*
X027846Y034832D01*
X027861Y034687D01*
X027903Y034548D01*
X027972Y034419D01*
X028064Y034306D01*
X028177Y034214D01*
X028306Y034145D01*
X028445Y034102D01*
X028591Y034088D01*
X028736Y034102D01*
X028875Y034145D01*
X029004Y034214D01*
X029117Y034306D01*
X029209Y034419D01*
X029278Y034548D01*
X029320Y034687D01*
X029420D01*
X029462Y034548D01*
X029531Y034419D01*
X029623Y034306D01*
X029736Y034214D01*
X029865Y034145D01*
X030004Y034102D01*
X030150Y034088D01*
X030295Y034102D01*
X030434Y034145D01*
X030563Y034214D01*
X030676Y034306D01*
X030768Y034419D01*
X030837Y034548D01*
X030879Y034687D01*
X030979D01*
X031021Y034548D01*
X031090Y034419D01*
X031182Y034306D01*
X031295Y034214D01*
X031424Y034145D01*
X031563Y034102D01*
X031709Y034088D01*
X031854Y034102D01*
X031993Y034145D01*
X032122Y034214D01*
X032235Y034306D01*
X032327Y034419D01*
X032396Y034548D01*
X032438Y034687D01*
X032453Y034832D01*
X032438Y034977D01*
X032409Y035076D01*
X032407Y035087D01*
X032406Y035088D01*
X032406Y035090D01*
X032396Y035116D01*
X032396Y035117D01*
X032396Y035117D01*
X032177Y035711D01*
Y037900D01*
X032234Y038016D01*
X032236Y038021D01*
X032239Y038025D01*
X032243Y038050D01*
X032250Y038074D01*
X032249Y038079D01*
X032250Y038084D01*
X032245Y038108D01*
X032242Y038133D01*
X032242Y038134D01*
X032243Y038138D01*
X032253Y038210D01*
X032243Y038283D01*
X032215Y038350D01*
X032171Y038408D01*
X032113Y038452D01*
X032046Y038480D01*
X031973Y038490D01*
D02*
G37*
G36*
X023390Y039053D02*
X023274Y039038D01*
X023165Y038993D01*
X023072Y038922D01*
X023001Y038828D01*
X022956Y038720D01*
X022941Y038604D01*
X022956Y038488D01*
X023001Y038379D01*
X023072Y038286D01*
X023165Y038215D01*
X023274Y038170D01*
X023390Y038155D01*
X023506Y038170D01*
X023614Y038215D01*
X023707Y038286D01*
X023779Y038379D01*
X023824Y038488D01*
X023839Y038604D01*
X023824Y038720D01*
X023779Y038828D01*
X023707Y038922D01*
X023614Y038993D01*
X023506Y039038D01*
X023390Y039053D01*
D02*
G37*
G36*
X022390D02*
X022274Y039038D01*
X022165Y038993D01*
X022072Y038922D01*
X022001Y038828D01*
X021956Y038720D01*
X021941Y038604D01*
X021956Y038488D01*
X022001Y038379D01*
X022072Y038286D01*
X022165Y038215D01*
X022274Y038170D01*
X022390Y038155D01*
X022506Y038170D01*
X022614Y038215D01*
X022707Y038286D01*
X022779Y038379D01*
X022824Y038488D01*
X022839Y038604D01*
X022824Y038720D01*
X022779Y038828D01*
X022707Y038922D01*
X022614Y038993D01*
X022506Y039038D01*
X022390Y039053D01*
D02*
G37*
G36*
X037550Y038183D02*
Y037900D01*
X037833D01*
X037828Y037938D01*
X037794Y038020D01*
X037740Y038090D01*
X037670Y038144D01*
X037588Y038178D01*
X037550Y038183D01*
D02*
G37*
G36*
X037450D02*
X037412Y038178D01*
X037330Y038144D01*
X037260Y038090D01*
X037206Y038020D01*
X037172Y037938D01*
X037167Y037900D01*
X037450D01*
Y038183D01*
D02*
G37*
G36*
X022440Y037996D02*
Y037654D01*
X022782D01*
X022775Y037707D01*
X022735Y037803D01*
X022672Y037886D01*
X022589Y037949D01*
X022493Y037989D01*
X022440Y037996D01*
D02*
G37*
G36*
X022340D02*
X022287Y037989D01*
X022190Y037949D01*
X022108Y037886D01*
X022044Y037803D01*
X022005Y037707D01*
X021998Y037654D01*
X022340D01*
Y037996D01*
D02*
G37*
G36*
X037833Y037800D02*
X037550D01*
Y037517D01*
X037588Y037522D01*
X037670Y037556D01*
X037740Y037610D01*
X037794Y037680D01*
X037828Y037762D01*
X037833Y037800D01*
D02*
G37*
G36*
X037450D02*
X037167D01*
X037172Y037762D01*
X037206Y037680D01*
X037260Y037610D01*
X037330Y037556D01*
X037412Y037522D01*
X037450Y037517D01*
Y037800D01*
D02*
G37*
G36*
X022782Y037554D02*
X022440D01*
Y037212D01*
X022493Y037219D01*
X022589Y037259D01*
X022672Y037322D01*
X022735Y037405D01*
X022775Y037501D01*
X022782Y037554D01*
D02*
G37*
G36*
X022340D02*
X021998D01*
X022005Y037501D01*
X022044Y037405D01*
X022108Y037322D01*
X022190Y037259D01*
X022287Y037219D01*
X022340Y037212D01*
Y037554D01*
D02*
G37*
G36*
X023390Y038053D02*
X023274Y038038D01*
X023165Y037993D01*
X023072Y037922D01*
X023001Y037828D01*
X022956Y037720D01*
X022941Y037604D01*
X022956Y037488D01*
X023001Y037379D01*
X023072Y037286D01*
X023165Y037215D01*
X023274Y037170D01*
X023390Y037155D01*
X023506Y037170D01*
X023614Y037215D01*
X023707Y037286D01*
X023779Y037379D01*
X023824Y037488D01*
X023839Y037604D01*
X023824Y037720D01*
X023779Y037828D01*
X023707Y037922D01*
X023614Y037993D01*
X023506Y038038D01*
X023390Y038053D01*
D02*
G37*
G36*
Y037053D02*
X023274Y037038D01*
X023165Y036993D01*
X023072Y036922D01*
X023001Y036828D01*
X022956Y036720D01*
X022941Y036604D01*
X022956Y036488D01*
X023001Y036379D01*
X023072Y036286D01*
X023165Y036215D01*
X023274Y036170D01*
X023390Y036155D01*
X023506Y036170D01*
X023614Y036215D01*
X023707Y036286D01*
X023779Y036379D01*
X023824Y036488D01*
X023839Y036604D01*
X023824Y036720D01*
X023779Y036828D01*
X023707Y036922D01*
X023614Y036993D01*
X023506Y037038D01*
X023390Y037053D01*
D02*
G37*
G36*
X022390D02*
X022274Y037038D01*
X022165Y036993D01*
X022072Y036922D01*
X022001Y036828D01*
X021956Y036720D01*
X021941Y036604D01*
X021956Y036488D01*
X022001Y036379D01*
X022072Y036286D01*
X022165Y036215D01*
X022274Y036170D01*
X022390Y036155D01*
X022506Y036170D01*
X022614Y036215D01*
X022707Y036286D01*
X022779Y036379D01*
X022824Y036488D01*
X022839Y036604D01*
X022824Y036720D01*
X022779Y036828D01*
X022707Y036922D01*
X022614Y036993D01*
X022506Y037038D01*
X022390Y037053D01*
D02*
G37*
G36*
X023390Y036053D02*
X023274Y036038D01*
X023165Y035993D01*
X023072Y035922D01*
X023001Y035828D01*
X022956Y035720D01*
X022941Y035604D01*
X022956Y035488D01*
X023001Y035379D01*
X023072Y035286D01*
X023165Y035215D01*
X023274Y035170D01*
X023390Y035155D01*
X023506Y035170D01*
X023614Y035215D01*
X023707Y035286D01*
X023779Y035379D01*
X023824Y035488D01*
X023839Y035604D01*
X023824Y035720D01*
X023779Y035828D01*
X023707Y035922D01*
X023614Y035993D01*
X023506Y036038D01*
X023390Y036053D01*
D02*
G37*
G36*
X022390D02*
X022274Y036038D01*
X022165Y035993D01*
X022072Y035922D01*
X022001Y035828D01*
X021956Y035720D01*
X021941Y035604D01*
X021956Y035488D01*
X022001Y035379D01*
X022072Y035286D01*
X022165Y035215D01*
X022274Y035170D01*
X022390Y035155D01*
X022506Y035170D01*
X022614Y035215D01*
X022707Y035286D01*
X022779Y035379D01*
X022824Y035488D01*
X022839Y035604D01*
X022824Y035720D01*
X022779Y035828D01*
X022707Y035922D01*
X022614Y035993D01*
X022506Y036038D01*
X022390Y036053D01*
D02*
G37*
G36*
X027081Y035521D02*
Y034882D01*
X027720D01*
X027712Y034968D01*
X027673Y035098D01*
X027608Y035218D01*
X027522Y035323D01*
X027417Y035409D01*
X027297Y035473D01*
X027167Y035513D01*
X027081Y035521D01*
D02*
G37*
G36*
X026981D02*
X026896Y035513D01*
X026766Y035473D01*
X026646Y035409D01*
X026541Y035323D01*
X026455Y035218D01*
X026390Y035098D01*
X026351Y034968D01*
X026343Y034882D01*
X026981D01*
Y035521D01*
D02*
G37*
G36*
X023390Y035053D02*
X023274Y035038D01*
X023165Y034993D01*
X023072Y034922D01*
X023001Y034828D01*
X022956Y034720D01*
X022941Y034604D01*
X022956Y034488D01*
X023001Y034379D01*
X023072Y034286D01*
X023165Y034215D01*
X023274Y034170D01*
X023390Y034155D01*
X023506Y034170D01*
X023614Y034215D01*
X023707Y034286D01*
X023779Y034379D01*
X023824Y034488D01*
X023839Y034604D01*
X023824Y034720D01*
X023779Y034828D01*
X023707Y034922D01*
X023614Y034993D01*
X023506Y035038D01*
X023390Y035053D01*
D02*
G37*
G36*
X022390D02*
X022274Y035038D01*
X022165Y034993D01*
X022072Y034922D01*
X022001Y034828D01*
X021956Y034720D01*
X021941Y034604D01*
X021956Y034488D01*
X022001Y034379D01*
X022072Y034286D01*
X022165Y034215D01*
X022274Y034170D01*
X022390Y034155D01*
X022506Y034170D01*
X022614Y034215D01*
X022707Y034286D01*
X022779Y034379D01*
X022824Y034488D01*
X022839Y034604D01*
X022824Y034720D01*
X022779Y034828D01*
X022707Y034922D01*
X022614Y034993D01*
X022506Y035038D01*
X022390Y035053D01*
D02*
G37*
G36*
X027720Y034782D02*
X027081D01*
Y034143D01*
X027167Y034152D01*
X027297Y034191D01*
X027417Y034255D01*
X027522Y034342D01*
X027608Y034447D01*
X027673Y034567D01*
X027712Y034697D01*
X027720Y034782D01*
D02*
G37*
G36*
X026981D02*
X026343D01*
X026351Y034697D01*
X026390Y034567D01*
X026455Y034447D01*
X026541Y034342D01*
X026646Y034255D01*
X026766Y034191D01*
X026896Y034152D01*
X026981Y034143D01*
Y034782D01*
D02*
G37*
G36*
X026213Y035573D02*
X024732D01*
Y035205D01*
X024546Y035113D01*
X024273D01*
X024195Y035103D01*
X024122Y035072D01*
X024059Y035024D01*
X024011Y034962D01*
X023981Y034889D01*
X023971Y034810D01*
Y034310D01*
Y033897D01*
X023958Y033865D01*
X023947Y033787D01*
Y023325D01*
X022225Y021603D01*
X017319D01*
X017314Y021703D01*
X017326Y021704D01*
X017502Y021757D01*
X017665Y021844D01*
X017808Y021962D01*
X017925Y022104D01*
X018012Y022267D01*
X018066Y022444D01*
X018084Y022628D01*
X018066Y022811D01*
X018012Y022988D01*
X017925Y023151D01*
X017808Y023294D01*
X017665Y023411D01*
X017502Y023498D01*
X017326Y023551D01*
X017142Y023570D01*
X016958Y023551D01*
X016781Y023498D01*
X016618Y023411D01*
X016476Y023294D01*
X016359Y023151D01*
X016272Y022988D01*
X016218Y022811D01*
X016200Y022628D01*
X016218Y022444D01*
X016272Y022267D01*
X016359Y022104D01*
X016476Y021962D01*
X016618Y021844D01*
X016781Y021757D01*
X016958Y021704D01*
X016969Y021703D01*
X016965Y021603D01*
X016800D01*
X016722Y021592D01*
X016649Y021562D01*
X016586Y021514D01*
X015786Y020714D01*
X015738Y020651D01*
X015708Y020578D01*
X015697Y020500D01*
Y012900D01*
X015708Y012822D01*
X015738Y012749D01*
X015786Y012686D01*
X016186Y012286D01*
X016186Y012286D01*
X016249Y012238D01*
X016322Y012208D01*
X016400Y012197D01*
X025000D01*
X025078Y012208D01*
X025151Y012238D01*
X025214Y012286D01*
X025262Y012349D01*
X025292Y012422D01*
X025303Y012500D01*
X025292Y012578D01*
X025262Y012651D01*
X025214Y012714D01*
X025151Y012762D01*
X025078Y012792D01*
X025000Y012803D01*
X024455D01*
X024455Y012816D01*
Y014994D01*
X025106Y015645D01*
X025343D01*
X025445Y015626D01*
X025459Y015626D01*
X025473Y015623D01*
X025489Y015626D01*
X025505Y015626D01*
X025518Y015632D01*
X025521Y015633D01*
X025528Y015630D01*
X025600Y015620D01*
X025672Y015630D01*
X025740Y015658D01*
X025798Y015702D01*
X025842Y015760D01*
X025870Y015828D01*
X025880Y015900D01*
X025870Y015972D01*
X025842Y016040D01*
X025798Y016098D01*
X025740Y016142D01*
X025672Y016170D01*
X025600Y016180D01*
X025528Y016170D01*
X025521Y016167D01*
X025518Y016168D01*
X025505Y016174D01*
X025489Y016174D01*
X025473Y016177D01*
X025459Y016174D01*
X025445Y016174D01*
X025343Y016155D01*
X025000D01*
X024902Y016135D01*
X024820Y016080D01*
X024020Y015280D01*
X023965Y015198D01*
X023945Y015100D01*
Y012816D01*
X023945Y012803D01*
X016525D01*
X016303Y013025D01*
Y020375D01*
X016925Y020997D01*
X022350D01*
X022428Y021008D01*
X022501Y021038D01*
X022564Y021086D01*
X024464Y022986D01*
X024512Y023049D01*
X024542Y023122D01*
X024553Y023200D01*
X024553Y023200D01*
Y033323D01*
X039474D01*
X039697Y033100D01*
Y030885D01*
X039682Y030734D01*
X039683Y030726D01*
X039682Y030719D01*
X039686Y030697D01*
X039688Y030676D01*
X039672Y030638D01*
X039661Y030550D01*
X039672Y030462D01*
X039706Y030380D01*
X039760Y030310D01*
X039830Y030256D01*
X039868Y030241D01*
X039882Y030224D01*
X039894Y030206D01*
X039901Y030201D01*
X039905Y030196D01*
X040023Y030099D01*
X040149Y029973D01*
X040246Y029855D01*
X040251Y029851D01*
X040256Y029844D01*
X040274Y029832D01*
X040291Y029818D01*
X040306Y029780D01*
X040360Y029710D01*
X040430Y029656D01*
X040512Y029622D01*
X040600Y029611D01*
X040688Y029622D01*
X040770Y029656D01*
X040840Y029710D01*
X040894Y029780D01*
X040928Y029862D01*
X040939Y029950D01*
X040928Y030038D01*
X040894Y030120D01*
X040840Y030190D01*
X040770Y030244D01*
X040732Y030259D01*
X040718Y030276D01*
X040706Y030294D01*
X040699Y030299D01*
X040695Y030304D01*
X040577Y030401D01*
X040451Y030527D01*
X040356Y030643D01*
X040350Y030660D01*
X040317Y030712D01*
X040318Y030719D01*
X040317Y030726D01*
X040318Y030734D01*
X040303Y030885D01*
Y033225D01*
X040292Y033303D01*
X040262Y033376D01*
X040214Y033439D01*
X040125Y033528D01*
X040118Y033547D01*
X040114Y033573D01*
X040122Y033650D01*
X040129Y033664D01*
X040170Y033681D01*
X040240Y033735D01*
X040294Y033805D01*
X040328Y033887D01*
X040339Y033975D01*
X040328Y034063D01*
X040294Y034145D01*
X040240Y034215D01*
X040170Y034269D01*
X040088Y034303D01*
X040000Y034314D01*
X039912Y034303D01*
X039830Y034269D01*
X039760Y034215D01*
X039706Y034145D01*
X039689Y034104D01*
X039675Y034097D01*
X039666Y034088D01*
X039656Y034081D01*
X039646Y034066D01*
X039634Y034053D01*
X039548Y033915D01*
X039510Y033877D01*
X024576D01*
Y034373D01*
X024664Y034427D01*
X024732Y034391D01*
Y034092D01*
X026213D01*
Y035573D01*
D02*
G37*
G36*
X023390Y034053D02*
X023274Y034038D01*
X023165Y033993D01*
X023072Y033922D01*
X023001Y033828D01*
X022956Y033720D01*
X022941Y033604D01*
X022956Y033488D01*
X023001Y033379D01*
X023072Y033286D01*
X023165Y033215D01*
X023274Y033170D01*
X023390Y033155D01*
X023506Y033170D01*
X023614Y033215D01*
X023707Y033286D01*
X023779Y033379D01*
X023824Y033488D01*
X023839Y033604D01*
X023824Y033720D01*
X023779Y033828D01*
X023707Y033922D01*
X023614Y033993D01*
X023506Y034038D01*
X023390Y034053D01*
D02*
G37*
G36*
X022390D02*
X022274Y034038D01*
X022165Y033993D01*
X022072Y033922D01*
X022001Y033828D01*
X021956Y033720D01*
X021941Y033604D01*
X021956Y033488D01*
X022001Y033379D01*
X022072Y033286D01*
X022165Y033215D01*
X022274Y033170D01*
X022390Y033155D01*
X022506Y033170D01*
X022614Y033215D01*
X022707Y033286D01*
X022779Y033379D01*
X022824Y033488D01*
X022839Y033604D01*
X022824Y033720D01*
X022779Y033828D01*
X022707Y033922D01*
X022614Y033993D01*
X022506Y034038D01*
X022390Y034053D01*
D02*
G37*
G36*
X023390Y033053D02*
X023274Y033038D01*
X023165Y032993D01*
X023072Y032922D01*
X023001Y032828D01*
X022956Y032720D01*
X022941Y032604D01*
X022956Y032488D01*
X023001Y032379D01*
X023072Y032286D01*
X023165Y032215D01*
X023274Y032170D01*
X023390Y032155D01*
X023506Y032170D01*
X023614Y032215D01*
X023707Y032286D01*
X023779Y032379D01*
X023824Y032488D01*
X023839Y032604D01*
X023824Y032720D01*
X023779Y032828D01*
X023707Y032922D01*
X023614Y032993D01*
X023506Y033038D01*
X023390Y033053D01*
D02*
G37*
G36*
X022390D02*
X022274Y033038D01*
X022165Y032993D01*
X022072Y032922D01*
X022001Y032828D01*
X021956Y032720D01*
X021941Y032604D01*
X021956Y032488D01*
X022001Y032379D01*
X022072Y032286D01*
X022165Y032215D01*
X022274Y032170D01*
X022390Y032155D01*
X022506Y032170D01*
X022614Y032215D01*
X022707Y032286D01*
X022779Y032379D01*
X022824Y032488D01*
X022839Y032604D01*
X022824Y032720D01*
X022779Y032828D01*
X022707Y032922D01*
X022614Y032993D01*
X022506Y033038D01*
X022390Y033053D01*
D02*
G37*
G36*
X030173Y032090D02*
X030101Y032080D01*
X030097Y032079D01*
X030096Y032079D01*
X030071Y032082D01*
X030047Y032087D01*
X030042Y032086D01*
X030037Y032087D01*
X030013Y032080D01*
X029988Y032076D01*
X029984Y032073D01*
X029979Y032071D01*
X029863Y032014D01*
X027973D01*
X027895Y031999D01*
X027829Y031954D01*
X026840Y030965D01*
X026796Y030899D01*
X026780Y030821D01*
Y030704D01*
X026453Y030234D01*
X026366Y030128D01*
X026297Y029999D01*
X026254Y029859D01*
X026240Y029714D01*
X026254Y029569D01*
X026297Y029429D01*
X026366Y029301D01*
X026458Y029188D01*
X026571Y029095D01*
X026699Y029027D01*
X026839Y028984D01*
X026984Y028970D01*
X027129Y028984D01*
X027269Y029027D01*
X027398Y029095D01*
X027510Y029188D01*
X027603Y029301D01*
X027672Y029429D01*
X027714Y029569D01*
X027813D01*
X027856Y029429D01*
X027925Y029301D01*
X028017Y029188D01*
X028130Y029095D01*
X028259Y029027D01*
X028398Y028984D01*
X028543Y028970D01*
X028688Y028984D01*
X028828Y029027D01*
X028957Y029095D01*
X029069Y029188D01*
X029162Y029301D01*
X029231Y029429D01*
X029273Y029569D01*
X029287Y029714D01*
X029273Y029859D01*
X029231Y029999D01*
X029162Y030128D01*
X029075Y030234D01*
X028750Y030699D01*
X029158Y031106D01*
X029863D01*
X029979Y031049D01*
X029984Y031048D01*
X029988Y031045D01*
X030013Y031040D01*
X030037Y031034D01*
X030042Y031034D01*
X030047Y031033D01*
X030071Y031038D01*
X030096Y031041D01*
X030097Y031042D01*
X030101Y031040D01*
X030173Y031031D01*
X030246Y031040D01*
X030313Y031068D01*
X030371Y031113D01*
X030415Y031170D01*
X030443Y031238D01*
X030453Y031310D01*
X030443Y031383D01*
X030415Y031450D01*
X030371Y031508D01*
Y031613D01*
X030415Y031670D01*
X030443Y031738D01*
X030453Y031810D01*
X030443Y031883D01*
X030415Y031950D01*
X030371Y032008D01*
X030313Y032052D01*
X030246Y032080D01*
X030173Y032090D01*
D02*
G37*
G36*
X023390Y032053D02*
X023274Y032038D01*
X023165Y031993D01*
X023072Y031922D01*
X023001Y031828D01*
X022956Y031720D01*
X022941Y031604D01*
X022956Y031488D01*
X023001Y031379D01*
X023072Y031286D01*
X023165Y031215D01*
X023274Y031170D01*
X023390Y031155D01*
X023506Y031170D01*
X023614Y031215D01*
X023707Y031286D01*
X023779Y031379D01*
X023824Y031488D01*
X023839Y031604D01*
X023824Y031720D01*
X023779Y031828D01*
X023707Y031922D01*
X023614Y031993D01*
X023506Y032038D01*
X023390Y032053D01*
D02*
G37*
G36*
X022390D02*
X022274Y032038D01*
X022165Y031993D01*
X022072Y031922D01*
X022001Y031828D01*
X021956Y031720D01*
X021941Y031604D01*
X021956Y031488D01*
X022001Y031379D01*
X022072Y031286D01*
X022165Y031215D01*
X022274Y031170D01*
X022390Y031155D01*
X022506Y031170D01*
X022614Y031215D01*
X022707Y031286D01*
X022779Y031379D01*
X022824Y031488D01*
X022839Y031604D01*
X022824Y031720D01*
X022779Y031828D01*
X022707Y031922D01*
X022614Y031993D01*
X022506Y032038D01*
X022390Y032053D01*
D02*
G37*
G36*
X023390Y031053D02*
X023274Y031038D01*
X023165Y030993D01*
X023072Y030922D01*
X023001Y030828D01*
X022956Y030720D01*
X022941Y030604D01*
X022956Y030488D01*
X023001Y030379D01*
X023072Y030286D01*
X023165Y030215D01*
X023274Y030170D01*
X023390Y030155D01*
X023506Y030170D01*
X023614Y030215D01*
X023707Y030286D01*
X023779Y030379D01*
X023824Y030488D01*
X023839Y030604D01*
X023824Y030720D01*
X023779Y030828D01*
X023707Y030922D01*
X023614Y030993D01*
X023506Y031038D01*
X023390Y031053D01*
D02*
G37*
G36*
X022390D02*
X022274Y031038D01*
X022165Y030993D01*
X022072Y030922D01*
X022001Y030828D01*
X021956Y030720D01*
X021941Y030604D01*
X021956Y030488D01*
X022001Y030379D01*
X022072Y030286D01*
X022165Y030215D01*
X022274Y030170D01*
X022390Y030155D01*
X022506Y030170D01*
X022614Y030215D01*
X022707Y030286D01*
X022779Y030379D01*
X022824Y030488D01*
X022839Y030604D01*
X022824Y030720D01*
X022779Y030828D01*
X022707Y030922D01*
X022614Y030993D01*
X022506Y031038D01*
X022390Y031053D01*
D02*
G37*
G36*
X033241Y030403D02*
X033156Y030395D01*
X033026Y030355D01*
X032906Y030291D01*
X032801Y030205D01*
X032714Y030100D01*
X032650Y029980D01*
X032611Y029850D01*
X032602Y029764D01*
X033241D01*
Y030403D01*
D02*
G37*
G36*
X026116Y030405D02*
X025475D01*
Y029764D01*
X026116D01*
Y030405D01*
D02*
G37*
G36*
X025375D02*
X024735D01*
Y029764D01*
X025375D01*
Y030405D01*
D02*
G37*
G36*
X023390Y030053D02*
X023274Y030038D01*
X023165Y029993D01*
X023072Y029922D01*
X023001Y029828D01*
X022956Y029720D01*
X022941Y029604D01*
X022956Y029488D01*
X023001Y029379D01*
X023072Y029286D01*
X023165Y029215D01*
X023274Y029170D01*
X023390Y029155D01*
X023506Y029170D01*
X023614Y029215D01*
X023707Y029286D01*
X023779Y029379D01*
X023824Y029488D01*
X023839Y029604D01*
X023824Y029720D01*
X023779Y029828D01*
X023707Y029922D01*
X023614Y029993D01*
X023506Y030038D01*
X023390Y030053D01*
D02*
G37*
G36*
X022390D02*
X022274Y030038D01*
X022165Y029993D01*
X022072Y029922D01*
X022001Y029828D01*
X021956Y029720D01*
X021941Y029604D01*
X021956Y029488D01*
X022001Y029379D01*
X022072Y029286D01*
X022165Y029215D01*
X022274Y029170D01*
X022390Y029155D01*
X022506Y029170D01*
X022614Y029215D01*
X022707Y029286D01*
X022779Y029379D01*
X022824Y029488D01*
X022839Y029604D01*
X022824Y029720D01*
X022779Y029828D01*
X022707Y029922D01*
X022614Y029993D01*
X022506Y030038D01*
X022390Y030053D01*
D02*
G37*
G36*
X026116Y029664D02*
X025475D01*
Y029024D01*
X026116D01*
Y029664D01*
D02*
G37*
G36*
X025375D02*
X024735D01*
Y029024D01*
X025375D01*
Y029664D01*
D02*
G37*
G36*
X023390Y029053D02*
X023274Y029038D01*
X023165Y028993D01*
X023072Y028922D01*
X023001Y028828D01*
X022956Y028720D01*
X022941Y028604D01*
X022956Y028488D01*
X023001Y028379D01*
X023072Y028286D01*
X023165Y028215D01*
X023274Y028170D01*
X023390Y028155D01*
X023506Y028170D01*
X023614Y028215D01*
X023707Y028286D01*
X023779Y028379D01*
X023824Y028488D01*
X023839Y028604D01*
X023824Y028720D01*
X023779Y028828D01*
X023707Y028922D01*
X023614Y028993D01*
X023506Y029038D01*
X023390Y029053D01*
D02*
G37*
G36*
X022390D02*
X022274Y029038D01*
X022165Y028993D01*
X022072Y028922D01*
X022001Y028828D01*
X021956Y028720D01*
X021941Y028604D01*
X021956Y028488D01*
X022001Y028379D01*
X022072Y028286D01*
X022165Y028215D01*
X022274Y028170D01*
X022390Y028155D01*
X022506Y028170D01*
X022614Y028215D01*
X022707Y028286D01*
X022779Y028379D01*
X022824Y028488D01*
X022839Y028604D01*
X022824Y028720D01*
X022779Y028828D01*
X022707Y028922D01*
X022614Y028993D01*
X022506Y029038D01*
X022390Y029053D01*
D02*
G37*
G36*
X023390Y028053D02*
X023274Y028038D01*
X023165Y027993D01*
X023072Y027922D01*
X023001Y027828D01*
X022956Y027720D01*
X022941Y027604D01*
X022956Y027488D01*
X023001Y027379D01*
X023072Y027286D01*
X023165Y027215D01*
X023274Y027170D01*
X023390Y027155D01*
X023506Y027170D01*
X023614Y027215D01*
X023707Y027286D01*
X023779Y027379D01*
X023824Y027488D01*
X023839Y027604D01*
X023824Y027720D01*
X023779Y027828D01*
X023707Y027922D01*
X023614Y027993D01*
X023506Y028038D01*
X023390Y028053D01*
D02*
G37*
G36*
X022390D02*
X022274Y028038D01*
X022165Y027993D01*
X022072Y027922D01*
X022001Y027828D01*
X021956Y027720D01*
X021941Y027604D01*
X021956Y027488D01*
X022001Y027379D01*
X022072Y027286D01*
X022165Y027215D01*
X022274Y027170D01*
X022390Y027155D01*
X022506Y027170D01*
X022614Y027215D01*
X022707Y027286D01*
X022779Y027379D01*
X022824Y027488D01*
X022839Y027604D01*
X022824Y027720D01*
X022779Y027828D01*
X022707Y027922D01*
X022614Y027993D01*
X022506Y028038D01*
X022390Y028053D01*
D02*
G37*
G36*
X023390Y027053D02*
X023274Y027038D01*
X023165Y026993D01*
X023072Y026922D01*
X023001Y026828D01*
X022956Y026720D01*
X022941Y026604D01*
X022956Y026488D01*
X023001Y026379D01*
X023072Y026286D01*
X023165Y026215D01*
X023274Y026170D01*
X023390Y026155D01*
X023506Y026170D01*
X023614Y026215D01*
X023707Y026286D01*
X023779Y026379D01*
X023824Y026488D01*
X023839Y026604D01*
X023824Y026720D01*
X023779Y026828D01*
X023707Y026922D01*
X023614Y026993D01*
X023506Y027038D01*
X023390Y027053D01*
D02*
G37*
G36*
X022390D02*
X022274Y027038D01*
X022165Y026993D01*
X022072Y026922D01*
X022001Y026828D01*
X021956Y026720D01*
X021941Y026604D01*
X021956Y026488D01*
X022001Y026379D01*
X022072Y026286D01*
X022165Y026215D01*
X022274Y026170D01*
X022390Y026155D01*
X022506Y026170D01*
X022614Y026215D01*
X022707Y026286D01*
X022779Y026379D01*
X022824Y026488D01*
X022839Y026604D01*
X022824Y026720D01*
X022779Y026828D01*
X022707Y026922D01*
X022614Y026993D01*
X022506Y027038D01*
X022390Y027053D01*
D02*
G37*
G36*
X023390Y026053D02*
X023274Y026038D01*
X023165Y025993D01*
X023072Y025922D01*
X023001Y025828D01*
X022956Y025720D01*
X022941Y025604D01*
X022956Y025488D01*
X023001Y025379D01*
X023072Y025286D01*
X023165Y025215D01*
X023274Y025170D01*
X023390Y025155D01*
X023506Y025170D01*
X023614Y025215D01*
X023707Y025286D01*
X023779Y025379D01*
X023824Y025488D01*
X023839Y025604D01*
X023824Y025720D01*
X023779Y025828D01*
X023707Y025922D01*
X023614Y025993D01*
X023506Y026038D01*
X023390Y026053D01*
D02*
G37*
G36*
X022390D02*
X022274Y026038D01*
X022165Y025993D01*
X022072Y025922D01*
X022001Y025828D01*
X021956Y025720D01*
X021941Y025604D01*
X021956Y025488D01*
X022001Y025379D01*
X022072Y025286D01*
X022165Y025215D01*
X022274Y025170D01*
X022390Y025155D01*
X022506Y025170D01*
X022614Y025215D01*
X022707Y025286D01*
X022779Y025379D01*
X022824Y025488D01*
X022839Y025604D01*
X022824Y025720D01*
X022779Y025828D01*
X022707Y025922D01*
X022614Y025993D01*
X022506Y026038D01*
X022390Y026053D01*
D02*
G37*
G36*
X032973Y027490D02*
X032901Y027480D01*
X032833Y027452D01*
X032776Y027408D01*
X032731Y027350D01*
X032703Y027283D01*
X032694Y027210D01*
X032703Y027138D01*
X032705Y027134D01*
X032704Y027133D01*
X032701Y027108D01*
X032696Y027084D01*
X032697Y027079D01*
X032697Y027074D01*
X032703Y027050D01*
X032708Y027025D01*
X032711Y027021D01*
X032713Y027001D01*
X032653Y026921D01*
X032548D01*
Y026188D01*
Y025499D01*
X032872D01*
X032918Y025411D01*
X032712Y025116D01*
X032625Y025009D01*
X032557Y024881D01*
X032514Y024741D01*
X032415D01*
X032373Y024881D01*
X032304Y025009D01*
X032217Y025116D01*
X031978Y025458D01*
X031999Y025499D01*
X031999D01*
Y026188D01*
Y026921D01*
X031894D01*
X031833Y027001D01*
X031836Y027021D01*
X031839Y027025D01*
X031843Y027050D01*
X031850Y027074D01*
X031849Y027079D01*
X031850Y027084D01*
X031845Y027108D01*
X031842Y027133D01*
X031842Y027134D01*
X031843Y027138D01*
X031853Y027210D01*
X031843Y027283D01*
X031815Y027350D01*
X031771Y027408D01*
X031713Y027452D01*
X031646Y027480D01*
X031573Y027490D01*
X031501Y027480D01*
X031433Y027452D01*
X031376Y027408D01*
X031331Y027350D01*
X031303Y027283D01*
X031294Y027210D01*
X031303Y027138D01*
X031305Y027134D01*
X031304Y027133D01*
X031301Y027108D01*
X031296Y027084D01*
X031297Y027079D01*
X031297Y027074D01*
X031303Y027050D01*
X031308Y027025D01*
X031311Y027021D01*
X031313Y027001D01*
X031253Y026921D01*
X031148D01*
Y026188D01*
Y025499D01*
X031313D01*
X031359Y025411D01*
X031153Y025116D01*
X031066Y025009D01*
X030998Y024881D01*
X030955Y024741D01*
X030856D01*
X030813Y024881D01*
X030745Y025009D01*
X030658Y025116D01*
X030452Y025411D01*
X030498Y025499D01*
X030599D01*
Y026188D01*
Y026921D01*
X030494D01*
X030433Y027001D01*
X030436Y027021D01*
X030439Y027025D01*
X030443Y027050D01*
X030450Y027074D01*
X030449Y027079D01*
X030450Y027084D01*
X030445Y027108D01*
X030442Y027133D01*
X030442Y027134D01*
X030443Y027138D01*
X030453Y027210D01*
X030443Y027283D01*
X030415Y027350D01*
X030371Y027408D01*
X030313Y027452D01*
X030246Y027480D01*
X030173Y027490D01*
X030101Y027480D01*
X030033Y027452D01*
X029976Y027408D01*
X029931Y027350D01*
X029903Y027283D01*
X029894Y027210D01*
X029903Y027138D01*
X029905Y027134D01*
X029904Y027133D01*
X029901Y027108D01*
X029896Y027084D01*
X029897Y027079D01*
X029897Y027074D01*
X029903Y027050D01*
X029908Y027025D01*
X029911Y027021D01*
X029913Y027001D01*
X029853Y026921D01*
X029748D01*
Y026188D01*
Y025499D01*
X029754D01*
X029800Y025411D01*
X029594Y025116D01*
X029507Y025009D01*
X029438Y024881D01*
X029396Y024741D01*
X029297D01*
X029254Y024881D01*
X029186Y025009D01*
X029099Y025116D01*
X028893Y025411D01*
X028939Y025499D01*
X029199D01*
Y026188D01*
Y026921D01*
X029094D01*
X029033Y027001D01*
X029036Y027021D01*
X029039Y027025D01*
X029043Y027050D01*
X029050Y027074D01*
X029049Y027079D01*
X029050Y027084D01*
X029045Y027108D01*
X029042Y027133D01*
X029042Y027134D01*
X029043Y027138D01*
X029053Y027210D01*
X029043Y027283D01*
X029015Y027350D01*
X028971Y027408D01*
X028913Y027452D01*
X028846Y027480D01*
X028773Y027490D01*
X028701Y027480D01*
X028633Y027452D01*
X028576Y027408D01*
X028531Y027350D01*
X028503Y027283D01*
X028494Y027210D01*
X028503Y027138D01*
X028505Y027134D01*
X028504Y027133D01*
X028501Y027108D01*
X028496Y027084D01*
X028497Y027079D01*
X028497Y027074D01*
X028503Y027050D01*
X028508Y027025D01*
X028511Y027021D01*
X028513Y027001D01*
X028453Y026921D01*
X028348D01*
Y026188D01*
Y025563D01*
X028035Y025116D01*
X027948Y025009D01*
X027879Y024881D01*
X027837Y024741D01*
X027823Y024596D01*
X027837Y024451D01*
X027879Y024311D01*
X027948Y024183D01*
X028041Y024070D01*
X028154Y023977D01*
X028282Y023909D01*
X028422Y023866D01*
X028567Y023852D01*
X028712Y023866D01*
X028852Y023909D01*
X028980Y023977D01*
X029093Y024070D01*
X029186Y024183D01*
X029254Y024311D01*
X029297Y024451D01*
X029396D01*
X029438Y024311D01*
X029507Y024183D01*
X029600Y024070D01*
X029713Y023977D01*
X029841Y023909D01*
X029981Y023866D01*
X030126Y023852D01*
X030271Y023866D01*
X030411Y023909D01*
X030539Y023977D01*
X030652Y024070D01*
X030745Y024183D01*
X030813Y024311D01*
X030856Y024451D01*
X030955D01*
X030998Y024311D01*
X031066Y024183D01*
X031159Y024070D01*
X031272Y023977D01*
X031400Y023909D01*
X031540Y023866D01*
X031685Y023852D01*
X031830Y023866D01*
X031970Y023909D01*
X032098Y023977D01*
X032211Y024070D01*
X032304Y024183D01*
X032373Y024311D01*
X032415Y024451D01*
X032514D01*
X032557Y024311D01*
X032625Y024183D01*
X032718Y024070D01*
X032831Y023977D01*
X032959Y023909D01*
X033099Y023866D01*
X033244Y023852D01*
X033389Y023866D01*
X033529Y023909D01*
X033658Y023977D01*
X033770Y024070D01*
X033863Y024183D01*
X033932Y024311D01*
X033974Y024451D01*
X033988Y024596D01*
X033974Y024741D01*
X033932Y024881D01*
X033863Y025009D01*
X033776Y025116D01*
X033579Y025398D01*
X033448Y025585D01*
Y025595D01*
X033432Y025673D01*
X033399Y025723D01*
Y026188D01*
Y026921D01*
X033294D01*
X033233Y027001D01*
X033236Y027021D01*
X033239Y027025D01*
X033243Y027050D01*
X033250Y027074D01*
X033249Y027079D01*
X033250Y027084D01*
X033245Y027108D01*
X033242Y027133D01*
X033242Y027134D01*
X033243Y027138D01*
X033253Y027210D01*
X033243Y027283D01*
X033215Y027350D01*
X033171Y027408D01*
X033113Y027452D01*
X033046Y027480D01*
X032973Y027490D01*
D02*
G37*
G36*
X043440Y025001D02*
Y024654D01*
X043787D01*
X043779Y024708D01*
X043739Y024806D01*
X043675Y024889D01*
X043591Y024953D01*
X043494Y024994D01*
X043440Y025001D01*
D02*
G37*
G36*
X043340D02*
X043285Y024994D01*
X043188Y024953D01*
X043104Y024889D01*
X043040Y024806D01*
X043000Y024708D01*
X042993Y024654D01*
X043340D01*
Y025001D01*
D02*
G37*
G36*
X042440D02*
Y024654D01*
X042787D01*
X042779Y024708D01*
X042739Y024806D01*
X042675Y024889D01*
X042591Y024953D01*
X042494Y024994D01*
X042440Y025001D01*
D02*
G37*
G36*
X042340D02*
X042285Y024994D01*
X042188Y024953D01*
X042104Y024889D01*
X042040Y024806D01*
X042000Y024708D01*
X041993Y024654D01*
X042340D01*
Y025001D01*
D02*
G37*
G36*
X023440Y024996D02*
Y024654D01*
X023782D01*
X023775Y024707D01*
X023735Y024803D01*
X023672Y024886D01*
X023589Y024949D01*
X023493Y024989D01*
X023440Y024996D01*
D02*
G37*
G36*
X022440D02*
Y024654D01*
X022782D01*
X022775Y024707D01*
X022735Y024803D01*
X022672Y024886D01*
X022589Y024949D01*
X022493Y024989D01*
X022440Y024996D01*
D02*
G37*
G36*
X023340D02*
X023287Y024989D01*
X023190Y024949D01*
X023108Y024886D01*
X023044Y024803D01*
X023005Y024707D01*
X022998Y024654D01*
X023340D01*
Y024996D01*
D02*
G37*
G36*
X022340D02*
X022287Y024989D01*
X022190Y024949D01*
X022108Y024886D01*
X022044Y024803D01*
X022005Y024707D01*
X021998Y024654D01*
X022340D01*
Y024996D01*
D02*
G37*
G36*
X027058Y025285D02*
Y024646D01*
X027697D01*
X027688Y024731D01*
X027649Y024862D01*
X027585Y024982D01*
X027499Y025087D01*
X027393Y025173D01*
X027273Y025237D01*
X027143Y025277D01*
X027058Y025285D01*
D02*
G37*
G36*
X026958D02*
X026872Y025277D01*
X026742Y025237D01*
X026622Y025173D01*
X026517Y025087D01*
X026431Y024982D01*
X026367Y024862D01*
X026327Y024731D01*
X026319Y024646D01*
X026958D01*
Y025285D01*
D02*
G37*
G36*
X026139Y025287D02*
X025499D01*
Y024646D01*
X026139D01*
Y025287D01*
D02*
G37*
G36*
X025399D02*
X024758D01*
Y024646D01*
X025399D01*
Y025287D01*
D02*
G37*
G36*
X023782Y024554D02*
X023440D01*
Y024212D01*
X023493Y024219D01*
X023589Y024259D01*
X023672Y024322D01*
X023735Y024405D01*
X023775Y024501D01*
X023782Y024554D01*
D02*
G37*
G36*
X022782D02*
X022440D01*
Y024212D01*
X022493Y024219D01*
X022589Y024259D01*
X022672Y024322D01*
X022735Y024405D01*
X022775Y024501D01*
X022782Y024554D01*
D02*
G37*
G36*
X023340D02*
X022998D01*
X023005Y024501D01*
X023044Y024405D01*
X023108Y024322D01*
X023190Y024259D01*
X023287Y024219D01*
X023340Y024212D01*
Y024554D01*
D02*
G37*
G36*
X022340D02*
X021998D01*
X022005Y024501D01*
X022044Y024405D01*
X022108Y024322D01*
X022190Y024259D01*
X022287Y024219D01*
X022340Y024212D01*
Y024554D01*
D02*
G37*
G36*
X043787Y024554D02*
X043440D01*
Y024207D01*
X043494Y024214D01*
X043591Y024255D01*
X043675Y024319D01*
X043739Y024402D01*
X043779Y024500D01*
X043787Y024554D01*
D02*
G37*
G36*
X043340D02*
X042993D01*
X043000Y024500D01*
X043040Y024402D01*
X043104Y024319D01*
X043188Y024255D01*
X043285Y024214D01*
X043340Y024207D01*
Y024554D01*
D02*
G37*
G36*
X042787D02*
X042440D01*
Y024207D01*
X042494Y024214D01*
X042591Y024255D01*
X042675Y024319D01*
X042739Y024402D01*
X042779Y024500D01*
X042787Y024554D01*
D02*
G37*
G36*
X042340D02*
X041993D01*
X042000Y024500D01*
X042040Y024402D01*
X042104Y024319D01*
X042188Y024255D01*
X042285Y024214D01*
X042340Y024207D01*
Y024554D01*
D02*
G37*
G36*
X027697Y024546D02*
X027058D01*
Y023907D01*
X027143Y023916D01*
X027273Y023955D01*
X027393Y024019D01*
X027499Y024105D01*
X027585Y024211D01*
X027649Y024331D01*
X027688Y024461D01*
X027697Y024546D01*
D02*
G37*
G36*
X026958D02*
X026319D01*
X026327Y024461D01*
X026367Y024331D01*
X026431Y024211D01*
X026517Y024105D01*
X026622Y024019D01*
X026742Y023955D01*
X026872Y023916D01*
X026958Y023907D01*
Y024546D01*
D02*
G37*
G36*
X026139D02*
X025499D01*
Y023906D01*
X026139D01*
Y024546D01*
D02*
G37*
G36*
X025399D02*
X024758D01*
Y023906D01*
X025399D01*
Y024546D01*
D02*
G37*
G36*
X048638Y023570D02*
X048454Y023551D01*
X048277Y023498D01*
X048114Y023411D01*
X047972Y023294D01*
X047855Y023151D01*
X047768Y022988D01*
X047714Y022811D01*
X047696Y022628D01*
X047714Y022444D01*
X047768Y022267D01*
X047855Y022104D01*
X047972Y021962D01*
X048114Y021844D01*
X048277Y021757D01*
X048454Y021704D01*
X048638Y021686D01*
X048822Y021704D01*
X048998Y021757D01*
X049161Y021844D01*
X049304Y021962D01*
X049421Y022104D01*
X049508Y022267D01*
X049562Y022444D01*
X049580Y022628D01*
X049562Y022811D01*
X049508Y022988D01*
X049421Y023151D01*
X049304Y023294D01*
X049161Y023411D01*
X048998Y023498D01*
X048822Y023551D01*
X048638Y023570D01*
D02*
G37*
G36*
X038873Y025663D02*
X037873D01*
X037815Y025652D01*
X037765Y025618D01*
X037732Y025569D01*
X037720Y025510D01*
Y021710D01*
X037732Y021652D01*
X037765Y021602D01*
X037815Y021569D01*
X037873Y021557D01*
X039673D01*
X039732Y021569D01*
X039781Y021602D01*
X039815Y021652D01*
X039826Y021710D01*
Y022510D01*
X039815Y022569D01*
X039781Y022618D01*
X039732Y022652D01*
X039673Y022663D01*
X039026D01*
Y025510D01*
X039015Y025569D01*
X038981Y025618D01*
X038932Y025652D01*
X038873Y025663D01*
D02*
G37*
%LPD*%
G36*
X029398Y059877D02*
X029223Y059702D01*
X029169Y059860D01*
X029240Y059931D01*
X029398Y059877D01*
D02*
G37*
G36*
X028747Y059586D02*
X028597Y059660D01*
Y059760D01*
X028747Y059834D01*
Y059586D01*
D02*
G37*
G36*
X030150Y059044D02*
X030050Y059028D01*
X029970Y059166D01*
X030215Y059204D01*
X030150Y059044D01*
D02*
G37*
G36*
X026548Y059159D02*
X026476Y058867D01*
X026184Y059159D01*
X026477Y059230D01*
X026548Y059159D01*
D02*
G37*
G36*
X025646D02*
X025575Y058867D01*
X025283Y059159D01*
X025575Y059230D01*
X025646Y059159D01*
D02*
G37*
G36*
X027449Y058568D02*
X027378Y058497D01*
X027086Y058569D01*
X027378Y058861D01*
X027449Y058568D01*
D02*
G37*
G36*
X027531Y058159D02*
X027238Y057867D01*
X027167Y058159D01*
X027238Y058230D01*
X027531Y058159D01*
D02*
G37*
G36*
X025529Y057647D02*
X025308Y057700D01*
X025291Y058000D01*
X025510Y058060D01*
X025529Y057647D01*
D02*
G37*
G36*
X026782Y057432D02*
X026482D01*
X026425Y057653D01*
X026839D01*
X026782Y057432D01*
D02*
G37*
G36*
X028485Y057396D02*
X028385D01*
X028228Y057653D01*
X028642D01*
X028485Y057396D01*
D02*
G37*
G36*
X026592Y057063D02*
X026476Y056867D01*
X026184Y057159D01*
X026380Y057275D01*
X026592Y057063D01*
D02*
G37*
G36*
X026331Y056432D02*
X026031D01*
X025974Y056653D01*
X026388D01*
X026331Y056432D01*
D02*
G37*
G36*
X025429D02*
X025129D01*
X025073Y056653D01*
X025486D01*
X025429Y056432D01*
D02*
G37*
G36*
X027283Y056646D02*
X027123Y056394D01*
X027023Y056397D01*
X026869Y056660D01*
X027283Y056646D01*
D02*
G37*
G36*
X030939Y055379D02*
X030608D01*
X030623Y055534D01*
X030923D01*
X030939Y055379D01*
D02*
G37*
G36*
X027197Y055337D02*
X026949D01*
X027023Y055486D01*
X027123D01*
X027197Y055337D01*
D02*
G37*
G36*
X024797D02*
X024549D01*
X024623Y055486D01*
X024723D01*
X024797Y055337D01*
D02*
G37*
G36*
X028485Y055454D02*
X028534Y055286D01*
X028301Y055372D01*
X028385Y055493D01*
X028485Y055454D01*
D02*
G37*
G36*
X035304Y032550D02*
X035233Y032480D01*
X035075Y032533D01*
X035250Y032708D01*
X035304Y032550D01*
D02*
G37*
G36*
X034581Y032540D02*
X034510Y032469D01*
X034352Y032523D01*
X034527Y032698D01*
X034581Y032540D01*
D02*
G37*
G36*
X036823Y030136D02*
X035996D01*
X036359Y030657D01*
X036459D01*
X036823Y030136D01*
D02*
G37*
G36*
X035264D02*
X034437D01*
X034800Y030657D01*
X034900D01*
X035264Y030136D01*
D02*
G37*
G36*
X034052Y029166D02*
X033840Y028954D01*
X033297Y029124D01*
X033882Y029708D01*
X034052Y029166D01*
D02*
G37*
G36*
X032534Y029125D02*
X032322Y028913D01*
X031897Y029125D01*
X032322Y029549D01*
X032534Y029125D01*
D02*
G37*
G36*
X042573Y015776D02*
X042447Y015800D01*
Y016000D01*
X042573Y016024D01*
Y015776D01*
D02*
G37*
G36*
X041706Y012506D02*
X041494D01*
X041500Y012812D01*
X041700D01*
X041706Y012506D01*
D02*
G37*
G36*
X037373Y020900D02*
X040917D01*
Y016100D01*
X040200D01*
Y011900D01*
X032400D01*
X032400Y018100D01*
X028000Y018100D01*
X023600D01*
Y013100D01*
X016600Y013100D01*
Y020100D01*
X025600D01*
Y020900D01*
X036573D01*
X036573Y022510D01*
X037373D01*
Y020900D01*
D02*
G37*
G36*
X042997Y050277D02*
X042823Y050103D01*
X042769Y050260D01*
X042840Y050331D01*
X042997Y050277D01*
D02*
G37*
G36*
X038981Y049690D02*
X038910Y049619D01*
X038752Y049673D01*
X038927Y049848D01*
X038981Y049690D01*
D02*
G37*
G36*
X038231D02*
X038160Y049619D01*
X038002Y049673D01*
X038177Y049848D01*
X038231Y049690D01*
D02*
G37*
G36*
X039703Y049652D02*
X039612Y049602D01*
X039455Y049679D01*
X039671Y049802D01*
X039703Y049652D01*
D02*
G37*
G36*
X043387Y032904D02*
X043090Y032607D01*
X043018Y032905D01*
X043089Y032976D01*
X043387Y032904D01*
D02*
G37*
G36*
X042387Y031904D02*
X042090Y031607D01*
X042018Y031905D01*
X042089Y031976D01*
X042387Y031904D01*
D02*
G37*
G36*
Y027904D02*
X042090Y027607D01*
X042018Y027905D01*
X042089Y027976D01*
X042387Y027904D01*
D02*
G37*
G36*
X042762Y026905D02*
X042690Y026607D01*
X042393Y026904D01*
X042691Y026976D01*
X042762Y026905D01*
D02*
G37*
G36*
X032907Y045100D02*
X032915Y045019D01*
X032585D01*
X032593Y045100D01*
X032585Y045181D01*
X032915D01*
X032907Y045100D01*
D02*
G37*
G36*
X032900Y044526D02*
X032600D01*
X032585Y044681D01*
X032915D01*
X032900Y044526D01*
D02*
G37*
G36*
X032915Y043019D02*
X032585D01*
X032600Y043174D01*
X032900D01*
X032915Y043019D01*
D02*
G37*
G36*
X032905Y042575D02*
X032915Y042469D01*
X032585D01*
X032595Y042575D01*
X032585Y042681D01*
X032915D01*
X032905Y042575D01*
D02*
G37*
G36*
X032023Y037934D02*
X031923D01*
X031849Y038084D01*
X032097D01*
X032023Y037934D01*
D02*
G37*
G36*
X031523D02*
X031423D01*
X031349Y038084D01*
X031597D01*
X031523Y037934D01*
D02*
G37*
G36*
X031023D02*
X030923D01*
X030849Y038084D01*
X031097D01*
X031023Y037934D01*
D02*
G37*
G36*
X032023Y035686D02*
X032263Y035037D01*
X031528Y035395D01*
X031923Y035737D01*
X032023Y035686D01*
D02*
G37*
G36*
X030852Y035464D02*
X030740Y034838D01*
X030156Y035423D01*
X030781Y035534D01*
X030852Y035464D01*
D02*
G37*
G36*
X029293D02*
X029181Y034838D01*
X028596Y035423D01*
X029222Y035534D01*
X029293Y035464D01*
D02*
G37*
G36*
X024884Y034510D02*
X024583Y034660D01*
Y034960D01*
X024884Y035110D01*
Y034510D01*
D02*
G37*
G36*
X039998Y033739D02*
X039846Y033645D01*
X039670Y033821D01*
X039764Y033973D01*
X039998Y033739D01*
D02*
G37*
G36*
X040165Y030719D02*
X039835D01*
X039850Y030874D01*
X040150D01*
X040165Y030719D01*
D02*
G37*
G36*
X040335Y030427D02*
X040123Y030215D01*
X040002Y030314D01*
X040236Y030548D01*
X040335Y030427D01*
D02*
G37*
G36*
X040598Y030186D02*
X040364Y029952D01*
X040265Y030073D01*
X040477Y030285D01*
X040598Y030186D01*
D02*
G37*
G36*
X025473Y015776D02*
X025347Y015800D01*
Y016000D01*
X025473Y016024D01*
Y015776D01*
D02*
G37*
G36*
X024306Y012606D02*
X024094D01*
X024100Y012912D01*
X024300D01*
X024306Y012606D01*
D02*
G37*
G36*
X030047Y031686D02*
X029897Y031760D01*
Y031860D01*
X030047Y031934D01*
Y031686D01*
D02*
G37*
G36*
Y031186D02*
X029897Y031260D01*
Y031360D01*
X030047Y031434D01*
Y031186D01*
D02*
G37*
G36*
X028957Y030136D02*
X028130D01*
X028493Y030657D01*
X028593D01*
X028957Y030136D01*
D02*
G37*
G36*
X027398D02*
X026571D01*
X026934Y030657D01*
X027034D01*
X027398Y030136D01*
D02*
G37*
G36*
X033023Y026934D02*
X032923D01*
X032849Y027084D01*
X033097D01*
X033023Y026934D01*
D02*
G37*
G36*
X031623D02*
X031523D01*
X031449Y027084D01*
X031697D01*
X031623Y026934D01*
D02*
G37*
G36*
X030223D02*
X030123D01*
X030049Y027084D01*
X030297D01*
X030223Y026934D01*
D02*
G37*
G36*
X028823D02*
X028723D01*
X028649Y027084D01*
X028897D01*
X028823Y026934D01*
D02*
G37*
G36*
X033657Y025018D02*
X032831D01*
X033194Y025539D01*
X033294D01*
X033657Y025018D01*
D02*
G37*
G36*
X032098D02*
X031272D01*
X031635Y025539D01*
X031735D01*
X032098Y025018D01*
D02*
G37*
G36*
X030539D02*
X029713D01*
X030076Y025539D01*
X030176D01*
X030539Y025018D01*
D02*
G37*
G36*
X028980D02*
X028154D01*
X028517Y025539D01*
X028617D01*
X028980Y025018D01*
D02*
G37*
G36*
X038873Y022510D02*
X039673D01*
Y021710D01*
X037873D01*
Y025510D01*
X038873D01*
Y022510D01*
D02*
G37*
D10*
X032973Y026555D02*
D03*
Y025866D02*
D03*
X031573Y026555D02*
D03*
Y025866D02*
D03*
X030173Y026555D02*
D03*
Y025866D02*
D03*
X028773Y026555D02*
D03*
Y025866D02*
D03*
D11*
X035923Y024610D02*
D03*
X038423D02*
D03*
D12*
X041800Y028194D02*
Y029000D01*
X041600Y029200D02*
X041800Y029000D01*
X041600Y029200D02*
Y031828D01*
X040850Y032578D02*
X041600Y031828D01*
X041800Y028194D02*
X042390Y027604D01*
X037500Y049600D02*
X040850Y046250D01*
Y032578D02*
Y046250D01*
X038000Y049850D02*
X041050Y046800D01*
Y032661D02*
Y046800D01*
Y032661D02*
X041800Y031911D01*
Y029350D02*
Y031911D01*
Y029350D02*
X042050Y029100D01*
X042550D01*
X042900Y028750D01*
Y027114D02*
Y028750D01*
X042390Y026604D02*
X042900Y027114D01*
X042335Y031549D02*
Y031659D01*
X041250Y032744D02*
X042335Y031659D01*
X041250Y032744D02*
Y047350D01*
X042894Y033100D02*
X043390Y032604D01*
X042100Y033100D02*
X042894D01*
X041500Y033700D02*
X042100Y033100D01*
X041500Y033700D02*
Y047784D01*
X039500Y049784D02*
Y049850D01*
Y049784D02*
X041500Y047784D01*
X042800Y050300D02*
X043000Y050100D01*
X038750Y049850D02*
X041250Y047350D01*
X037700Y050300D02*
X042800D01*
X037500Y049600D02*
Y050100D01*
X037700Y050300D01*
X027083Y056864D02*
X027173Y056773D01*
X027073Y056673D02*
X027173Y056773D01*
X027073Y055210D02*
Y056673D01*
X024673Y055210D02*
Y057210D01*
X028886Y058864D02*
X028939Y058810D01*
X024673Y057210D02*
X024873Y057410D01*
X029337Y057864D02*
X029390Y057810D01*
X030100Y058637D02*
Y059250D01*
X029960Y059310D02*
X030073D01*
X030040D02*
X030100Y059250D01*
X031709Y034832D02*
X031973Y035097D01*
Y038210D01*
X031473Y036156D02*
Y038210D01*
X030150Y034832D02*
X031473Y036156D01*
X030973Y037215D02*
Y038210D01*
X028591Y034832D02*
X030973Y037215D01*
X028567Y024596D02*
Y025659D01*
X028773Y025866D01*
X030126Y024596D02*
Y025819D01*
X030173Y025866D01*
X031685Y024596D02*
Y025754D01*
X031573Y025866D02*
X031685Y025754D01*
X033244Y024596D02*
Y025595D01*
X032973Y025866D02*
X033244Y025595D01*
X028773Y026555D02*
Y027210D01*
X030173Y026555D02*
Y027210D01*
X031573Y026555D02*
Y027210D01*
X027973Y031810D02*
X030173D01*
X026984Y029714D02*
Y030821D01*
X027973Y031810D01*
X028543Y029714D02*
Y030780D01*
X029073Y031310D01*
X030173D01*
X035073Y032710D02*
X036409Y031374D01*
Y029714D02*
Y031374D01*
X032973Y026555D02*
Y027210D01*
X029000Y060100D02*
X029400Y059700D01*
X025280Y058864D02*
X026516Y060100D01*
X029000D01*
X026181Y058864D02*
X027009Y059691D01*
X027000Y059700D02*
X027009Y059691D01*
X027000Y059700D02*
X027010Y059710D01*
X028873D01*
X028373Y055210D02*
X028435Y055272D01*
Y057864D01*
X029813Y058350D02*
X030100Y058637D01*
X029122Y058350D02*
X029132Y058359D01*
X029542D01*
X029551Y058350D01*
X029813D01*
X027083Y058864D02*
X027587Y058359D01*
X027739D01*
X027748Y058350D01*
X028221D01*
X028230Y058359D01*
X028640D01*
X028649Y058350D01*
X029122D01*
X026187Y058187D02*
X026350Y058350D01*
X027047D01*
X027533Y057864D01*
X025907Y057410D02*
X026187Y057690D01*
X024873Y057410D02*
X025907D01*
X026187Y057690D02*
Y058187D01*
X034350Y032700D02*
X034850Y032200D01*
Y029714D02*
Y032200D01*
D13*
X039625Y033600D02*
X040000Y033975D01*
Y030550D02*
X040099Y030542D01*
X024273Y033600D02*
X039625D01*
X024273D02*
Y033810D01*
D14*
X032750Y042850D02*
Y044850D01*
X016000Y020500D02*
X016800Y021300D01*
X016000Y012900D02*
Y020500D01*
Y012900D02*
X016400Y012500D01*
X025000D01*
X041600Y012400D02*
X042200D01*
X041000Y012700D02*
X041300Y012400D01*
X041600D01*
X032750Y044850D02*
Y045350D01*
X042000Y020637D02*
X045573Y024210D01*
Y052810D01*
X026173Y053710D02*
X044673D01*
X045573Y052810D01*
X025279Y054604D02*
Y056864D01*
Y054604D02*
X026173Y053710D01*
X030773Y055210D02*
Y059577D01*
X024273Y034810D02*
X025450D01*
X025472Y034832D01*
X024250Y033787D02*
X024273Y033810D01*
Y034310D01*
Y034810D01*
X024000Y058483D02*
Y059600D01*
Y058483D02*
X024633Y057850D01*
X025750D01*
X032750Y042300D02*
Y042850D01*
X029850Y060500D02*
X030773Y059577D01*
X024000Y059600D02*
X024900Y060500D01*
X029850D01*
X041000Y012700D02*
Y015300D01*
X042000Y016300D01*
Y020637D01*
X031732Y029714D02*
X035923Y025523D01*
Y024610D02*
Y025523D01*
X033291Y029714D02*
X037173Y025832D01*
Y022410D02*
Y025832D01*
X016800Y021300D02*
X022350D01*
X024250Y023200D01*
Y033787D01*
X026632Y057315D02*
Y057864D01*
X026181Y056864D02*
X026632Y057315D01*
X026181Y055069D02*
Y056864D01*
Y055069D02*
X027000Y054250D01*
X045000D01*
X046250Y053000D01*
Y013750D02*
Y053000D01*
X039700Y012400D02*
X040250Y011850D01*
X044350D01*
X046250Y013750D01*
X040000Y030550D02*
X040600Y029950D01*
X040000Y030550D02*
Y033225D01*
X039625Y033600D02*
X040000Y033225D01*
D15*
X025000Y015900D02*
X025600D01*
X024200Y012500D02*
Y015100D01*
X025000Y015900D01*
X041600Y012400D02*
Y015300D01*
X042200Y015900D01*
X042700D01*
D16*
X048638Y052549D02*
D03*
X017142D02*
D03*
X048638Y022628D02*
D03*
X017142D02*
D03*
D17*
X026984Y029714D02*
D03*
X028543D02*
D03*
X030150Y034832D02*
D03*
X028591D02*
D03*
X027031D02*
D03*
X031709D02*
D03*
X033244Y024596D02*
D03*
X030126D02*
D03*
X028567D02*
D03*
X027008D02*
D03*
X031685D02*
D03*
X036409Y029714D02*
D03*
X034850D02*
D03*
X033291D02*
D03*
D18*
X025425D02*
D03*
X025472Y034832D02*
D03*
X025449Y024596D02*
D03*
X031732Y029714D02*
D03*
D19*
X045134Y060470D02*
D03*
X035606D02*
D03*
X028886Y058864D02*
D03*
X027984D02*
D03*
X027083D02*
D03*
X026181D02*
D03*
X025280D02*
D03*
X028435Y057864D02*
D03*
X027533D02*
D03*
X026632D02*
D03*
X025730D02*
D03*
X029337D02*
D03*
X025279Y056864D02*
D03*
X027984D02*
D03*
X027083D02*
D03*
X026181D02*
D03*
X023390Y048604D02*
D03*
X022390Y047604D02*
D03*
X023390D02*
D03*
X022390Y046604D02*
D03*
X023390D02*
D03*
X022390Y045604D02*
D03*
X023390D02*
D03*
X022390Y044604D02*
D03*
X023390D02*
D03*
X022390Y043604D02*
D03*
X023390D02*
D03*
X022390Y042604D02*
D03*
X023390D02*
D03*
X022390Y041604D02*
D03*
X023390D02*
D03*
X022390Y040604D02*
D03*
X023390D02*
D03*
X022390Y039604D02*
D03*
X023390D02*
D03*
X022390Y038604D02*
D03*
X023390D02*
D03*
X022390Y037604D02*
D03*
X023390D02*
D03*
X022390Y036604D02*
D03*
X023390D02*
D03*
X022390Y035604D02*
D03*
X023390D02*
D03*
X022390Y034604D02*
D03*
X023390D02*
D03*
X022390Y033604D02*
D03*
X023390D02*
D03*
X022390Y032604D02*
D03*
X023390D02*
D03*
X022390Y031604D02*
D03*
X023390D02*
D03*
X022390Y030604D02*
D03*
X023390D02*
D03*
X022390Y029604D02*
D03*
X023390D02*
D03*
X022390Y028604D02*
D03*
X023390D02*
D03*
X022390Y027604D02*
D03*
X023390D02*
D03*
X022390Y026604D02*
D03*
X023390D02*
D03*
X022390Y025604D02*
D03*
X023390D02*
D03*
X022390Y024604D02*
D03*
X023390D02*
D03*
X043390Y048604D02*
D03*
D20*
X032102Y057864D02*
D03*
X022260D02*
D03*
D21*
X028886Y056864D02*
D03*
D22*
X043390Y024604D02*
D03*
X042390D02*
D03*
X043390Y025604D02*
D03*
X042390D02*
D03*
X043390Y026604D02*
D03*
X042390D02*
D03*
X043390Y027604D02*
D03*
X042390D02*
D03*
X043390Y028604D02*
D03*
X042390D02*
D03*
X043390Y029604D02*
D03*
X042390D02*
D03*
X043390Y030604D02*
D03*
X042390D02*
D03*
X043390Y031604D02*
D03*
X042390D02*
D03*
X043390Y032604D02*
D03*
X042390D02*
D03*
X043390Y033604D02*
D03*
X042390D02*
D03*
X043390Y034604D02*
D03*
X042390D02*
D03*
X043390Y035604D02*
D03*
X042390D02*
D03*
X043390Y036604D02*
D03*
X042390D02*
D03*
X043390Y037604D02*
D03*
X042390D02*
D03*
X043390Y038604D02*
D03*
X042390D02*
D03*
X043390Y039604D02*
D03*
X042390D02*
D03*
X043390Y040604D02*
D03*
X042390D02*
D03*
X043390Y041604D02*
D03*
X042390D02*
D03*
X043390Y042604D02*
D03*
X042390D02*
D03*
X043390Y043604D02*
D03*
X042390D02*
D03*
X043390Y044604D02*
D03*
X042390D02*
D03*
X043390Y045604D02*
D03*
X042390D02*
D03*
X043390Y046604D02*
D03*
X042390D02*
D03*
X043390Y047604D02*
D03*
X042390D02*
D03*
D23*
X022390Y048604D02*
D03*
X042390D02*
D03*
D24*
X039117Y014396D02*
D03*
Y013396D02*
D03*
Y013896D02*
D03*
X037917Y015996D02*
D03*
X037317D02*
D03*
X036717D02*
D03*
X036117D02*
D03*
Y015396D02*
D03*
Y014796D02*
D03*
X035517D02*
D03*
X034917D02*
D03*
X042700Y015900D02*
D03*
X042200Y012400D02*
D03*
X022008Y013400D02*
D03*
Y014400D02*
D03*
X017808Y014800D02*
D03*
X019008D02*
D03*
Y016000D02*
D03*
X020808D02*
D03*
X039500Y049850D02*
D03*
X038750D02*
D03*
X038000D02*
D03*
X043000Y050100D02*
D03*
X029400Y059700D02*
D03*
X025000Y012500D02*
D03*
X025600Y015900D02*
D03*
X034000Y012500D02*
D03*
Y013100D02*
D03*
Y013700D02*
D03*
Y014300D02*
D03*
Y014900D02*
D03*
Y015500D02*
D03*
Y016100D02*
D03*
X022008Y013900D02*
D03*
X019008Y015400D02*
D03*
X020208Y016000D02*
D03*
X019608D02*
D03*
X018408Y014800D02*
D03*
X017000Y013500D02*
D03*
Y014100D02*
D03*
Y014700D02*
D03*
Y015300D02*
D03*
Y015900D02*
D03*
Y016500D02*
D03*
X022741Y016918D02*
D03*
Y016485D02*
D03*
X023174D02*
D03*
Y016918D02*
D03*
Y017351D02*
D03*
X022741D02*
D03*
X027073Y055210D02*
D03*
X024673D02*
D03*
X028373D02*
D03*
X028873Y059710D02*
D03*
X030073Y059310D02*
D03*
X030173Y031310D02*
D03*
Y031810D02*
D03*
X024273Y034810D02*
D03*
Y034310D02*
D03*
Y033810D02*
D03*
X031973Y038210D02*
D03*
X031473D02*
D03*
X030973D02*
D03*
X035073Y032710D02*
D03*
X031573Y027210D02*
D03*
X030173D02*
D03*
X028773D02*
D03*
X039833Y016900D02*
D03*
Y016467D02*
D03*
X040267D02*
D03*
Y016900D02*
D03*
Y017333D02*
D03*
X039833D02*
D03*
X032973Y027210D02*
D03*
X034350Y032700D02*
D03*
D25*
X040500Y049350D02*
D03*
X040000Y033975D02*
D03*
X032750Y042850D02*
D03*
X044504Y040147D02*
D03*
X040000Y030550D02*
D03*
X040600Y029950D02*
D03*
X032750Y042300D02*
D03*
Y044850D02*
D03*
Y045350D02*
D03*
X038273Y022110D02*
D03*
X030773Y055210D02*
D03*
X038773Y022110D02*
D03*
X039273D02*
D03*
X037500Y037850D02*
D03*
M02*
