G04 Layer_Color=32896*
%FSAX24Y24*%
%MOIN*%
G70*
G01*
G75*
%ADD12C,0.0100*%
%ADD39C,0.0098*%
%ADD40C,0.0079*%
%ADD41C,0.0080*%
%ADD65C,0.0236*%
%ADD66C,0.0050*%
D12*
X030120Y043980D02*
Y043563D01*
X030037Y043480D01*
X029870D01*
X029787Y043563D01*
Y043980D01*
X029287Y043480D02*
X029620D01*
X029287Y043813D01*
Y043897D01*
X029370Y043980D01*
X029537D01*
X029620Y043897D01*
X029440Y032220D02*
Y032720D01*
X029190D01*
X029107Y032637D01*
Y032470D01*
X029190Y032387D01*
X029440D01*
X028607Y032220D02*
X028940D01*
X028607Y032553D01*
Y032637D01*
X028690Y032720D01*
X028857D01*
X028940Y032637D01*
X032600Y037400D02*
Y037900D01*
X032350D01*
X032267Y037817D01*
Y037650D01*
X032350Y037567D01*
X032600D01*
X031850Y037400D02*
Y037900D01*
X032100Y037650D01*
X031767D01*
X034100Y027100D02*
Y027600D01*
X033850D01*
X033767Y027517D01*
Y027350D01*
X033850Y027267D01*
X034100D01*
X033267Y027600D02*
X033434Y027517D01*
X033600Y027350D01*
Y027183D01*
X033517Y027100D01*
X033350D01*
X033267Y027183D01*
Y027267D01*
X033350Y027350D01*
X033600D01*
X037300Y032300D02*
Y032800D01*
X037050D01*
X036967Y032717D01*
Y032550D01*
X037050Y032467D01*
X037300D01*
X036800Y032717D02*
X036717Y032800D01*
X036550D01*
X036467Y032717D01*
Y032633D01*
X036550Y032550D01*
X036634D01*
X036550D01*
X036467Y032467D01*
Y032383D01*
X036550Y032300D01*
X036717D01*
X036800Y032383D01*
X038189Y044004D02*
Y043587D01*
X038106Y043504D01*
X037939D01*
X037856Y043587D01*
Y044004D01*
X037439Y043504D02*
Y044004D01*
X037689Y043754D01*
X037356D01*
X038250Y036100D02*
Y035683D01*
X038167Y035600D01*
X038000D01*
X037917Y035683D01*
Y036100D01*
X037750Y035600D02*
X037584D01*
X037667D01*
Y036100D01*
X037750Y036017D01*
X039764Y047146D02*
X039264D01*
Y046896D01*
X039347Y046812D01*
X039514D01*
X039597Y046896D01*
Y047146D01*
Y046979D02*
X039764Y046812D01*
Y046646D02*
Y046479D01*
Y046563D01*
X039264D01*
X039347Y046646D01*
Y046229D02*
X039264Y046146D01*
Y045979D01*
X039347Y045896D01*
X039431D01*
X039514Y045979D01*
Y046063D01*
Y045979D01*
X039597Y045896D01*
X039680D01*
X039764Y045979D01*
Y046146D01*
X039680Y046229D01*
X038976Y047146D02*
X038477D01*
Y046896D01*
X038560Y046812D01*
X038726D01*
X038810Y046896D01*
Y047146D01*
Y046979D02*
X038976Y046812D01*
Y046646D02*
Y046479D01*
Y046563D01*
X038477D01*
X038560Y046646D01*
X038976Y045896D02*
Y046229D01*
X038643Y045896D01*
X038560D01*
X038477Y045979D01*
Y046146D01*
X038560Y046229D01*
X038287Y047146D02*
X037788D01*
Y046896D01*
X037871Y046812D01*
X038037D01*
X038121Y046896D01*
Y047146D01*
Y046979D02*
X038287Y046812D01*
Y046646D02*
Y046479D01*
Y046563D01*
X037788D01*
X037871Y046646D01*
X038287Y046229D02*
Y046063D01*
Y046146D01*
X037788D01*
X037871Y046229D01*
X037500Y047146D02*
X037000D01*
Y046896D01*
X037083Y046812D01*
X037250D01*
X037333Y046896D01*
Y047146D01*
Y046979D02*
X037500Y046812D01*
Y046646D02*
Y046479D01*
Y046563D01*
X037000D01*
X037083Y046646D01*
Y046229D02*
X037000Y046146D01*
Y045979D01*
X037083Y045896D01*
X037417D01*
X037500Y045979D01*
Y046146D01*
X037417Y046229D01*
X037083D01*
X036811Y047146D02*
X036311D01*
Y046896D01*
X036394Y046812D01*
X036561D01*
X036644Y046896D01*
Y047146D01*
Y046979D02*
X036811Y046812D01*
X036728Y046646D02*
X036811Y046563D01*
Y046396D01*
X036728Y046313D01*
X036394D01*
X036311Y046396D01*
Y046563D01*
X036394Y046646D01*
X036478D01*
X036561Y046563D01*
Y046313D01*
X040000Y031350D02*
Y031850D01*
X039750D01*
X039667Y031767D01*
Y031600D01*
X039750Y031517D01*
X040000D01*
X039833D02*
X039667Y031350D01*
X039167D02*
X039500D01*
X039167Y031683D01*
Y031767D01*
X039250Y031850D01*
X039417D01*
X039500Y031767D01*
X035250Y035100D02*
Y035600D01*
X035000D01*
X034917Y035517D01*
Y035350D01*
X035000Y035267D01*
X035250D01*
X035083D02*
X034917Y035100D01*
X034750D02*
X034584D01*
X034667D01*
Y035600D01*
X034750Y035517D01*
X046000Y049850D02*
Y050350D01*
X045750D01*
X045667Y050267D01*
Y050100D01*
X045750Y050017D01*
X046000D01*
X045500Y050350D02*
X045167D01*
Y050267D01*
X045500Y049933D01*
Y049850D01*
X041417Y038517D02*
X041500Y038600D01*
X041667D01*
X041750Y038517D01*
Y038183D01*
X041667Y038100D01*
X041500D01*
X041417Y038183D01*
X041250Y038100D02*
X041084D01*
X041167D01*
Y038600D01*
X041250Y038517D01*
X040834Y038600D02*
X040500D01*
Y038517D01*
X040834Y038183D01*
Y038100D01*
X039667Y038517D02*
X039750Y038600D01*
X039917D01*
X040000Y038517D01*
Y038183D01*
X039917Y038100D01*
X039750D01*
X039667Y038183D01*
X039500Y038100D02*
X039334D01*
X039417D01*
Y038600D01*
X039500Y038517D01*
X038750Y038600D02*
X038917Y038517D01*
X039084Y038350D01*
Y038183D01*
X039000Y038100D01*
X038834D01*
X038750Y038183D01*
Y038267D01*
X038834Y038350D01*
X039084D01*
X036417Y037767D02*
X036500Y037850D01*
X036667D01*
X036750Y037767D01*
Y037433D01*
X036667Y037350D01*
X036500D01*
X036417Y037433D01*
X036250Y037350D02*
X036084D01*
X036167D01*
Y037850D01*
X036250Y037767D01*
X035500Y037850D02*
X035834D01*
Y037600D01*
X035667Y037683D01*
X035584D01*
X035500Y037600D01*
Y037433D01*
X035584Y037350D01*
X035750D01*
X035834Y037433D01*
X034214Y043920D02*
X034297Y044004D01*
X034464D01*
X034547Y043920D01*
Y043587D01*
X034464Y043504D01*
X034297D01*
X034214Y043587D01*
X034047Y043504D02*
X033881D01*
X033964D01*
Y044004D01*
X034047Y043920D01*
X033381Y043504D02*
Y044004D01*
X033631Y043754D01*
X033298D01*
X033417Y041017D02*
X033500Y041100D01*
X033667D01*
X033750Y041017D01*
Y040683D01*
X033667Y040600D01*
X033500D01*
X033417Y040683D01*
X033250Y040600D02*
X033084D01*
X033167D01*
Y041100D01*
X033250Y041017D01*
X032834D02*
X032750Y041100D01*
X032584D01*
X032500Y041017D01*
Y040933D01*
X032584Y040850D01*
X032667D01*
X032584D01*
X032500Y040767D01*
Y040683D01*
X032584Y040600D01*
X032750D01*
X032834Y040683D01*
X033417Y039558D02*
X033500Y039641D01*
X033667D01*
X033750Y039558D01*
Y039225D01*
X033667Y039142D01*
X033500D01*
X033417Y039225D01*
X033250Y039142D02*
X033084D01*
X033167D01*
Y039641D01*
X033250Y039558D01*
X032500Y039142D02*
X032834D01*
X032500Y039475D01*
Y039558D01*
X032584Y039641D01*
X032750D01*
X032834Y039558D01*
X040824Y046812D02*
X040740Y046896D01*
Y047062D01*
X040824Y047146D01*
X041157D01*
X041240Y047062D01*
Y046896D01*
X041157Y046812D01*
X041240Y046646D02*
Y046479D01*
Y046563D01*
X040740D01*
X040824Y046646D01*
X041240Y046229D02*
Y046063D01*
Y046146D01*
X040740D01*
X040824Y046229D01*
X040135Y046812D02*
X040051Y046896D01*
Y047062D01*
X040135Y047146D01*
X040468D01*
X040551Y047062D01*
Y046896D01*
X040468Y046812D01*
X040551Y046646D02*
Y046479D01*
Y046563D01*
X040051D01*
X040135Y046646D01*
Y046229D02*
X040051Y046146D01*
Y045979D01*
X040135Y045896D01*
X040468D01*
X040551Y045979D01*
Y046146D01*
X040468Y046229D01*
X040135D01*
X045740Y039877D02*
X045823Y039960D01*
X045990D01*
X046073Y039877D01*
Y039544D01*
X045990Y039460D01*
X045823D01*
X045740Y039544D01*
X045323Y039460D02*
Y039960D01*
X045573Y039710D01*
X045240D01*
X024667Y047017D02*
X024750Y047100D01*
X024917D01*
X025000Y047017D01*
Y046683D01*
X024917Y046600D01*
X024750D01*
X024667Y046683D01*
X024500Y047017D02*
X024417Y047100D01*
X024250D01*
X024167Y047017D01*
Y046933D01*
X024250Y046850D01*
X024334D01*
X024250D01*
X024167Y046767D01*
Y046683D01*
X024250Y046600D01*
X024417D01*
X024500Y046683D01*
X030080Y038507D02*
X030163Y038590D01*
X030330D01*
X030413Y038507D01*
Y038174D01*
X030330Y038091D01*
X030163D01*
X030080Y038174D01*
X029580Y038091D02*
X029914D01*
X029580Y038424D01*
Y038507D01*
X029664Y038590D01*
X029830D01*
X029914Y038507D01*
X039417Y035767D02*
X039500Y035850D01*
X039667D01*
X039750Y035767D01*
Y035433D01*
X039667Y035350D01*
X039500D01*
X039417Y035433D01*
X039250Y035350D02*
X039084D01*
X039167D01*
Y035850D01*
X039250Y035767D01*
X032667Y055600D02*
X032833D01*
X032750D01*
Y055183D01*
X032833Y055100D01*
X032917D01*
X033000Y055183D01*
X032500Y055100D02*
X032334D01*
X032417D01*
Y055600D01*
X032500Y055517D01*
X025917Y047017D02*
X026000Y047100D01*
X026167D01*
X026250Y047017D01*
Y046683D01*
X026167Y046600D01*
X026000D01*
X025917Y046683D01*
X025417Y047100D02*
X025750D01*
Y046850D01*
X025584Y046933D01*
X025500D01*
X025417Y046850D01*
Y046683D01*
X025500Y046600D01*
X025667D01*
X025750Y046683D01*
X024685Y058614D02*
X024518D01*
X024602D01*
Y059114D01*
X024685Y059030D01*
X023935Y059114D02*
X024269D01*
Y058864D01*
X024102Y058947D01*
X024019D01*
X023935Y058864D01*
Y058697D01*
X024019Y058614D01*
X024185D01*
X024269Y058697D01*
X029685Y056614D02*
X029518D01*
X029602D01*
Y057114D01*
X029685Y057030D01*
D39*
X027726Y039015D02*
G03*
X027726Y039015I-000049J000000D01*
G01*
X025950Y014574D02*
G03*
X025950Y014574I-000049J000000D01*
G01*
X020264Y020308D02*
G03*
X020264Y020308I-000049J000000D01*
G01*
X035976Y039015D02*
G03*
X035976Y039015I-000049J000000D01*
G01*
X038122Y035185D02*
G03*
X038122Y035185I-000049J000000D01*
G01*
X037356Y020308D02*
G03*
X037356Y020308I-000049J000000D01*
G01*
X043042Y014574D02*
G03*
X043042Y014574I-000049J000000D01*
G01*
X024080Y018003D02*
G03*
X024080Y018003I-000049J000000D01*
G01*
X041172Y017985D02*
G03*
X041172Y017985I-000049J000000D01*
G01*
D40*
X028120Y039132D02*
X029380D01*
Y043068D01*
X028120Y039132D02*
Y043068D01*
X029380D01*
X036705Y015557D02*
Y017743D01*
X035839Y015557D02*
X036705D01*
X034028D02*
X034894D01*
X034028D02*
Y017743D01*
X035839Y018235D02*
X036213D01*
X036705Y017743D01*
X034028D02*
X034520Y018235D01*
X034894D01*
X019613Y015561D02*
Y017746D01*
X018747Y015561D02*
X019613D01*
X016936D02*
X017802D01*
X016936D02*
Y017746D01*
X018747Y018239D02*
X019121D01*
X019613Y017746D01*
X016936D02*
X017428Y018239D01*
X017802D01*
X024525Y027814D02*
X029443D01*
X024525D02*
Y032014D01*
X029443D01*
Y027814D02*
Y032014D01*
X032609Y032932D02*
Y037132D01*
X024572D02*
X032609D01*
X024572Y032932D02*
Y037132D01*
Y032932D02*
X032609D01*
X034144Y022696D02*
Y026896D01*
X024549D02*
X034144D01*
X024549Y022696D02*
Y026896D01*
Y022696D02*
X034144D01*
X037309Y027814D02*
Y032014D01*
X030832D02*
X037309D01*
X030832Y027814D02*
Y032014D01*
Y027814D02*
X037309D01*
X025644Y014515D02*
Y014751D01*
Y012979D02*
Y013216D01*
X022692Y014751D02*
X025644D01*
X022692Y014515D02*
Y014751D01*
Y012979D02*
X025644D01*
X022692D02*
Y013216D01*
X023345Y020249D02*
Y020672D01*
Y018310D02*
Y018733D01*
X020471Y020672D02*
X023345D01*
X020471Y020249D02*
Y020672D01*
Y018310D02*
X023345D01*
X020471D02*
Y018733D01*
X029898Y020561D02*
X032211D01*
Y013239D02*
Y020561D01*
X029898Y013239D02*
X032211D01*
X026227Y020561D02*
X028540D01*
X026227Y013239D02*
X028540D01*
X026227D02*
Y020561D01*
X036370Y043068D02*
X037630D01*
X036370Y039132D02*
X037630D01*
Y043068D01*
X036370Y039132D02*
Y043068D01*
X036370Y035084D02*
X037630D01*
Y033116D02*
Y035084D01*
X036370Y033116D02*
X037630D01*
X036370D02*
Y035084D01*
X046990Y020561D02*
X049303D01*
Y013239D02*
Y020561D01*
X046990Y013239D02*
X049303D01*
X043319Y020561D02*
X045632D01*
X043319Y013239D02*
X045632D01*
X043319D02*
Y020561D01*
X040437Y020249D02*
Y020672D01*
Y018310D02*
Y018733D01*
X037563Y020672D02*
X040437D01*
X037563Y020249D02*
Y020672D01*
Y018310D02*
X040437D01*
X037563D02*
Y018733D01*
X042737Y014515D02*
Y014751D01*
Y012979D02*
Y013216D01*
X039784Y014751D02*
X042737D01*
X039784Y014515D02*
Y014751D01*
Y012979D02*
X042737D01*
X039784D02*
Y013216D01*
X021259Y063494D02*
Y063578D01*
X021259Y063998D02*
X021509Y064248D01*
X023009D01*
X023259Y063998D01*
Y062637D02*
Y063998D01*
X021259Y062637D02*
Y063992D01*
X021259Y062637D02*
X021523Y062373D01*
X022259Y062637D02*
Y063992D01*
X022994Y062372D02*
X023259Y062637D01*
X031101Y063494D02*
Y063578D01*
X031101Y063998D02*
X031351Y064248D01*
X032851D01*
X033101Y063998D01*
Y062637D02*
Y063998D01*
X031101Y062637D02*
Y063992D01*
X031101Y062637D02*
X031366Y062373D01*
X032101Y062637D02*
Y063992D01*
X032836Y062372D02*
X033101Y062637D01*
X022328Y015934D02*
X023587D01*
X022328Y017902D02*
X023587D01*
X039420Y015916D02*
X040680D01*
X039420Y017884D02*
X040680D01*
X034695Y033943D02*
Y034257D01*
X035305Y033943D02*
Y034257D01*
D41*
X022261Y063992D02*
G03*
X021259Y063992I-000501J-000501D01*
G01*
X023259D02*
G03*
X022257Y063992I-000501J-000501D01*
G01*
X021258Y062636D02*
G03*
X022260Y062636I000501J000501D01*
G01*
X022258D02*
G03*
X023260Y062636I000501J000501D01*
G01*
X032103Y063992D02*
G03*
X031101Y063992I-000501J-000501D01*
G01*
X033101D02*
G03*
X032100Y063992I-000501J-000501D01*
G01*
X031101Y062636D02*
G03*
X032102Y062636I000501J000501D01*
G01*
X032101D02*
G03*
X033102Y062636I000501J000501D01*
G01*
D65*
X028632Y039525D02*
G03*
X028632Y039525I-000118J000000D01*
G01*
X036882D02*
G03*
X036882Y039525I-000118J000000D01*
G01*
X037354Y034691D02*
G03*
X037354Y034691I-000118J000000D01*
G01*
D66*
X036512Y062438D02*
G03*
X044701Y062438I004094J001087D01*
G01*
X023967Y064726D02*
G03*
X023693Y064452I000000J-000274D01*
G01*
X023417Y062366D02*
G03*
X023691Y062639I000000J000274D01*
G01*
X030669Y064452D02*
G03*
X030396Y064726I-000274J000000D01*
G01*
X030671Y062639D02*
G03*
X030945Y062366I000274J000000D01*
G01*
X046287Y050745D02*
Y062438D01*
X045154D02*
Y064149D01*
X035606D02*
X045154D01*
X034949Y062438D02*
X046287D01*
X035606D02*
Y064149D01*
X034949Y050745D02*
X046287D01*
X034949D02*
Y062438D01*
X023691Y062639D02*
Y064450D01*
X030671Y062639D02*
Y064450D01*
X023967Y064726D02*
X030396Y064726D01*
X021118Y062364D02*
X033244D01*
X021118Y055946D02*
Y062364D01*
X033244Y055946D02*
Y062364D01*
X021118Y055946D02*
X033244D01*
M02*
