G04 Layer_Color=16711935*
%FSAX24Y24*%
%MOIN*%
G70*
G01*
G75*
%ADD42R,0.0631X0.0513*%
%ADD43R,0.0848X0.1281*%
%ADD44C,0.1655*%
%ADD45C,0.1261*%
%ADD46R,0.1261X0.1261*%
%ADD47C,0.0671*%
%ADD48C,0.1537*%
%ADD49R,0.0671X0.0671*%
%ADD50C,0.0680*%
%ADD51R,0.0671X0.0671*%
%ADD52C,0.0552*%
%ADD53R,0.0651X0.0316*%
%ADD54R,0.0789X0.1438*%
%ADD55R,0.1045X0.1064*%
%ADD56R,0.0631X0.0552*%
%ADD57R,0.0552X0.0631*%
%ADD58R,0.1123X0.1537*%
%ADD59R,0.0513X0.0631*%
%ADD60R,0.0552X0.0867*%
%ADD61R,0.0474X0.0867*%
%ADD62R,0.1104X0.1300*%
%ADD63R,0.0769X0.0572*%
%ADD64C,0.0434*%
D42*
X039500Y048694D02*
D03*
Y048006D02*
D03*
X038750Y048694D02*
D03*
Y048006D02*
D03*
X038000Y048694D02*
D03*
Y048006D02*
D03*
X037250Y048694D02*
D03*
Y048006D02*
D03*
X036500Y048694D02*
D03*
Y048006D02*
D03*
X039250Y033194D02*
D03*
Y032506D02*
D03*
D43*
X023158Y019491D02*
D03*
X020658D02*
D03*
X040250Y019491D02*
D03*
X037750D02*
D03*
D44*
X048638Y052549D02*
D03*
X017142D02*
D03*
X048638Y022628D02*
D03*
X017142D02*
D03*
D45*
X026984Y029714D02*
D03*
X028543D02*
D03*
X030150Y034832D02*
D03*
X028591D02*
D03*
X027031D02*
D03*
X031709D02*
D03*
X033244Y024596D02*
D03*
X030126D02*
D03*
X028567D02*
D03*
X027008D02*
D03*
X031685D02*
D03*
X036409Y029714D02*
D03*
X034850D02*
D03*
X033291D02*
D03*
D46*
X025425D02*
D03*
X025472Y034832D02*
D03*
X025449Y024596D02*
D03*
X031732Y029714D02*
D03*
D47*
X045134Y060470D02*
D03*
X035606D02*
D03*
X028886Y058864D02*
D03*
X027984D02*
D03*
X027083D02*
D03*
X026181D02*
D03*
X025280D02*
D03*
X028435Y057864D02*
D03*
X027533D02*
D03*
X026632D02*
D03*
X025730D02*
D03*
X029337D02*
D03*
X025279Y056864D02*
D03*
X027984D02*
D03*
X027083D02*
D03*
X026181D02*
D03*
X023390Y048604D02*
D03*
X022390Y047604D02*
D03*
X023390D02*
D03*
X022390Y046604D02*
D03*
X023390D02*
D03*
X022390Y045604D02*
D03*
X023390D02*
D03*
X022390Y044604D02*
D03*
X023390D02*
D03*
X022390Y043604D02*
D03*
X023390D02*
D03*
X022390Y042604D02*
D03*
X023390D02*
D03*
X022390Y041604D02*
D03*
X023390D02*
D03*
X022390Y040604D02*
D03*
X023390D02*
D03*
X022390Y039604D02*
D03*
X023390D02*
D03*
X022390Y038604D02*
D03*
X023390D02*
D03*
X022390Y037604D02*
D03*
X023390D02*
D03*
X022390Y036604D02*
D03*
X023390D02*
D03*
X022390Y035604D02*
D03*
X023390D02*
D03*
X022390Y034604D02*
D03*
X023390D02*
D03*
X022390Y033604D02*
D03*
X023390D02*
D03*
X022390Y032604D02*
D03*
X023390D02*
D03*
X022390Y031604D02*
D03*
X023390D02*
D03*
X022390Y030604D02*
D03*
X023390D02*
D03*
X022390Y029604D02*
D03*
X023390D02*
D03*
X022390Y028604D02*
D03*
X023390D02*
D03*
X022390Y027604D02*
D03*
X023390D02*
D03*
X022390Y026604D02*
D03*
X023390D02*
D03*
X022390Y025604D02*
D03*
X023390D02*
D03*
X022390Y024604D02*
D03*
X023390D02*
D03*
X043390Y048604D02*
D03*
D48*
X032102Y057864D02*
D03*
X022260D02*
D03*
D49*
X028886Y056864D02*
D03*
D50*
X043390Y024604D02*
D03*
X042390D02*
D03*
X043390Y025604D02*
D03*
X042390D02*
D03*
X043390Y026604D02*
D03*
X042390D02*
D03*
X043390Y027604D02*
D03*
X042390D02*
D03*
X043390Y028604D02*
D03*
X042390D02*
D03*
X043390Y029604D02*
D03*
X042390D02*
D03*
X043390Y030604D02*
D03*
X042390D02*
D03*
X043390Y031604D02*
D03*
X042390D02*
D03*
X043390Y032604D02*
D03*
X042390D02*
D03*
X043390Y033604D02*
D03*
X042390D02*
D03*
X043390Y034604D02*
D03*
X042390D02*
D03*
X043390Y035604D02*
D03*
X042390D02*
D03*
X043390Y036604D02*
D03*
X042390D02*
D03*
X043390Y037604D02*
D03*
X042390D02*
D03*
X043390Y038604D02*
D03*
X042390D02*
D03*
X043390Y039604D02*
D03*
X042390D02*
D03*
X043390Y040604D02*
D03*
X042390D02*
D03*
X043390Y041604D02*
D03*
X042390D02*
D03*
X043390Y042604D02*
D03*
X042390D02*
D03*
X043390Y043604D02*
D03*
X042390D02*
D03*
X043390Y044604D02*
D03*
X042390D02*
D03*
X043390Y045604D02*
D03*
X042390D02*
D03*
X043390Y046604D02*
D03*
X042390D02*
D03*
X043390Y047604D02*
D03*
X042390D02*
D03*
D51*
X022390Y048604D02*
D03*
X042390D02*
D03*
D52*
X040000Y030550D02*
D03*
X040600Y029950D02*
D03*
X032750Y042300D02*
D03*
D53*
X029823Y042350D02*
D03*
Y041850D02*
D03*
Y042850D02*
D03*
Y039850D02*
D03*
Y041350D02*
D03*
Y040350D02*
D03*
Y040850D02*
D03*
Y039350D02*
D03*
X027677Y042350D02*
D03*
Y042850D02*
D03*
Y041350D02*
D03*
Y041850D02*
D03*
Y040350D02*
D03*
Y040850D02*
D03*
Y039850D02*
D03*
Y039350D02*
D03*
X038073Y042850D02*
D03*
Y042350D02*
D03*
Y041850D02*
D03*
Y041350D02*
D03*
Y040850D02*
D03*
Y040350D02*
D03*
Y039850D02*
D03*
Y039350D02*
D03*
X035927Y042850D02*
D03*
Y042350D02*
D03*
Y041850D02*
D03*
Y041350D02*
D03*
Y040850D02*
D03*
Y040350D02*
D03*
Y039850D02*
D03*
Y039350D02*
D03*
X038073Y034350D02*
D03*
Y034850D02*
D03*
Y033850D02*
D03*
Y033350D02*
D03*
X035927Y034850D02*
D03*
Y033850D02*
D03*
Y034350D02*
D03*
Y033350D02*
D03*
X021885Y016168D02*
D03*
Y016668D02*
D03*
Y017168D02*
D03*
Y017668D02*
D03*
X024030Y016168D02*
D03*
Y016668D02*
D03*
Y017168D02*
D03*
Y017668D02*
D03*
X038977Y016150D02*
D03*
Y016650D02*
D03*
Y017150D02*
D03*
Y017650D02*
D03*
X041123Y016150D02*
D03*
Y016650D02*
D03*
Y017150D02*
D03*
Y017650D02*
D03*
D54*
X035366Y015735D02*
D03*
Y018057D02*
D03*
X018274Y015739D02*
D03*
Y018061D02*
D03*
D55*
X025359Y013865D02*
D03*
X022977D02*
D03*
X042451Y013865D02*
D03*
X040069D02*
D03*
D56*
X020808Y017235D02*
D03*
Y016565D02*
D03*
X024908Y018435D02*
D03*
Y017765D02*
D03*
X040500Y039935D02*
D03*
Y039265D02*
D03*
X039750Y039935D02*
D03*
Y039265D02*
D03*
X034500Y042935D02*
D03*
Y042265D02*
D03*
Y041435D02*
D03*
Y040765D02*
D03*
Y039976D02*
D03*
Y039307D02*
D03*
X041000Y048685D02*
D03*
Y048015D02*
D03*
X040250Y048685D02*
D03*
Y048015D02*
D03*
X042000Y018435D02*
D03*
Y017765D02*
D03*
X037900Y017235D02*
D03*
Y016565D02*
D03*
X044573Y039545D02*
D03*
Y038876D02*
D03*
X024500Y048435D02*
D03*
Y047765D02*
D03*
X039250Y034685D02*
D03*
Y034015D02*
D03*
X025500Y048435D02*
D03*
Y047765D02*
D03*
D57*
X023773Y012387D02*
D03*
X024443D02*
D03*
X037555Y038584D02*
D03*
X036886D02*
D03*
X040865Y012387D02*
D03*
X041535D02*
D03*
X029085Y038350D02*
D03*
X028415D02*
D03*
D58*
X029219Y020050D02*
D03*
Y013750D02*
D03*
X046311Y020050D02*
D03*
Y013750D02*
D03*
D59*
X025664Y015343D02*
D03*
X024975D02*
D03*
X024089D02*
D03*
X023400D02*
D03*
X041182Y015343D02*
D03*
X040493D02*
D03*
X042756D02*
D03*
X042067D02*
D03*
D60*
X045724Y059170D02*
D03*
X035016Y059643D02*
D03*
D61*
X044071Y050899D02*
D03*
X043087D02*
D03*
X041433D02*
D03*
X040783D02*
D03*
X042102D02*
D03*
X039150D02*
D03*
X038165D02*
D03*
X040134D02*
D03*
X037213D02*
D03*
X035224D02*
D03*
X036543D02*
D03*
D62*
X022957Y016918D02*
D03*
X040050Y016900D02*
D03*
D63*
X035000Y034651D02*
D03*
Y033549D02*
D03*
D64*
X022741Y016918D02*
D03*
Y016485D02*
D03*
X023174D02*
D03*
Y016918D02*
D03*
Y017351D02*
D03*
X022741D02*
D03*
X039833Y016900D02*
D03*
Y016467D02*
D03*
X040267D02*
D03*
Y016900D02*
D03*
Y017333D02*
D03*
X039833D02*
D03*
M02*
