G04 Layer_Color=65535*
%FSAX24Y24*%
%MOIN*%
G70*
G01*
G75*
%ADD12C,0.0100*%
%ADD26C,0.0098*%
%ADD27C,0.0236*%
%ADD28C,0.0050*%
%ADD29C,0.0080*%
%ADD30C,0.0197*%
%ADD31C,0.0394*%
%ADD32C,0.0079*%
%ADD33C,0.0300*%
D12*
X033185Y041279D02*
X033085Y041379D01*
X032885D01*
X032785Y041279D01*
Y040880D01*
X032885Y040780D01*
X033085D01*
X033185Y040880D01*
X033785Y041379D02*
X033385D01*
Y041079D01*
X033585Y041179D01*
X033685D01*
X033785Y041079D01*
Y040880D01*
X033685Y040780D01*
X033485D01*
X033385Y040880D01*
X033185Y042079D02*
X033085Y042179D01*
X032885D01*
X032785Y042079D01*
Y041680D01*
X032885Y041580D01*
X033085D01*
X033185Y041680D01*
X033785Y042179D02*
X033585Y042079D01*
X033385Y041879D01*
Y041680D01*
X033485Y041580D01*
X033685D01*
X033785Y041680D01*
Y041779D01*
X033685Y041879D01*
X033385D01*
X033185Y042879D02*
X033085Y042979D01*
X032885D01*
X032785Y042879D01*
Y042480D01*
X032885Y042380D01*
X033085D01*
X033185Y042480D01*
X033385Y042979D02*
X033785D01*
Y042879D01*
X033385Y042480D01*
Y042380D01*
X031585Y044879D02*
Y044280D01*
X031885D01*
X031985Y044380D01*
Y044779D01*
X031885Y044879D01*
X031585D01*
X032185Y044280D02*
X032385D01*
X032285D01*
Y044879D01*
X032185Y044779D01*
X031485Y048179D02*
Y047580D01*
X031785D01*
X031885Y047680D01*
Y048079D01*
X031785Y048179D01*
X031485D01*
X032485Y047580D02*
X032085D01*
X032485Y047979D01*
Y048079D01*
X032385Y048179D01*
X032185D01*
X032085Y048079D01*
X031485Y051379D02*
Y050780D01*
X031785D01*
X031885Y050880D01*
Y051279D01*
X031785Y051379D01*
X031485D01*
X032085Y051279D02*
X032185Y051379D01*
X032385D01*
X032485Y051279D01*
Y051179D01*
X032385Y051079D01*
X032285D01*
X032385D01*
X032485Y050979D01*
Y050880D01*
X032385Y050780D01*
X032185D01*
X032085Y050880D01*
X023235Y027175D02*
X023035D01*
X023135D01*
Y026675D01*
X023035Y026575D01*
X022935D01*
X022835Y026675D01*
X023434Y026575D02*
X023634D01*
X023534D01*
Y027175D01*
X023434Y027075D01*
X029528Y025787D02*
Y026387D01*
X029827D01*
X029927Y026287D01*
Y026087D01*
X029827Y025987D01*
X029528D01*
X030127Y025787D02*
X030327D01*
X030227D01*
Y026387D01*
X030127Y026287D01*
X024285Y054479D02*
Y053880D01*
X024585D01*
X024685Y053980D01*
Y054379D01*
X024585Y054479D01*
X024285D01*
X024885D02*
X025085D01*
X024985D01*
Y053880D01*
X024885D01*
X025085D01*
X025785Y054379D02*
X025685Y054479D01*
X025485D01*
X025385Y054379D01*
Y054279D01*
X025485Y054179D01*
X025685D01*
X025785Y054079D01*
Y053980D01*
X025685Y053880D01*
X025485D01*
X025385Y053980D01*
X025984Y053880D02*
Y054479D01*
X026284D01*
X026384Y054379D01*
Y054179D01*
X026284Y054079D01*
X025984D01*
X026584Y053880D02*
X026784D01*
X026684D01*
Y054479D01*
X026584Y054379D01*
X023819Y041938D02*
Y041339D01*
X024119D01*
X024219Y041439D01*
Y041838D01*
X024119Y041938D01*
X023819D01*
X024419D02*
X024619D01*
X024519D01*
Y041339D01*
X024419D01*
X024619D01*
X025318Y041838D02*
X025218Y041938D01*
X025019D01*
X024919Y041838D01*
Y041738D01*
X025019Y041638D01*
X025218D01*
X025318Y041539D01*
Y041439D01*
X025218Y041339D01*
X025019D01*
X024919Y041439D01*
X025518Y041339D02*
Y041938D01*
X025818D01*
X025918Y041838D01*
Y041638D01*
X025818Y041539D01*
X025518D01*
X026518Y041339D02*
X026118D01*
X026518Y041738D01*
Y041838D01*
X026418Y041938D01*
X026218D01*
X026118Y041838D01*
X021100Y022772D02*
Y022938D01*
Y022855D01*
X020601D01*
X020684Y022772D01*
X020601Y023521D02*
Y023188D01*
X020850D01*
X020767Y023355D01*
Y023438D01*
X020850Y023521D01*
X021017D01*
X021100Y023438D01*
Y023271D01*
X021017Y023188D01*
X023100Y017772D02*
Y017938D01*
Y017855D01*
X022601D01*
X022684Y017772D01*
D26*
X034455Y045554D02*
G03*
X034455Y045554I-000049J000000D01*
G01*
Y048804D02*
G03*
X034455Y048804I-000049J000000D01*
G01*
Y052054D02*
G03*
X034455Y052054I-000049J000000D01*
G01*
D27*
X033637Y044781D02*
G03*
X033637Y044781I-000118J000000D01*
G01*
Y048031D02*
G03*
X033637Y048031I-000118J000000D01*
G01*
Y051281D02*
G03*
X033637Y051281I-000118J000000D01*
G01*
D28*
X015262Y023764D02*
G03*
X014988Y023490I000000J-000274D01*
G01*
X017075Y023766D02*
G03*
X017348Y024039I000000J000274D01*
G01*
X014988Y017061D02*
G03*
X015262Y016787I000274J000000D01*
G01*
X017348Y016512D02*
G03*
X017075Y016785I-000274J000000D01*
G01*
X015264Y023766D02*
X017075D01*
X015264Y016785D02*
X017075D01*
X014988Y023490D02*
X014988Y017061D01*
X017350Y014213D02*
Y026339D01*
X023768D01*
X017350Y014213D02*
X023768D01*
Y026339D01*
D29*
X015722Y026198D02*
G03*
X015722Y025196I000501J-000501D01*
G01*
Y025199D02*
G03*
X015722Y024198I000501J-000501D01*
G01*
X017078Y025197D02*
G03*
X017078Y026199I-000501J000501D01*
G01*
Y024197D02*
G03*
X017078Y025199I-000501J000501D01*
G01*
X015722Y016355D02*
G03*
X015722Y015353I000501J-000501D01*
G01*
Y015357D02*
G03*
X015722Y014355I000501J-000501D01*
G01*
X017078Y015354D02*
G03*
X017078Y016356I-000501J000501D01*
G01*
Y014354D02*
G03*
X017078Y015356I-000501J000501D01*
G01*
D30*
X024854Y044122D02*
G03*
X024854Y044122I-000098J000000D01*
G01*
D31*
X029335Y045862D02*
G03*
X029335Y045862I-000197J000000D01*
G01*
D32*
X032719Y044081D02*
Y045111D01*
X033918Y044081D02*
Y045111D01*
X032719Y044081D02*
X033918D01*
X032719Y045111D02*
X033918D01*
X032719Y047331D02*
Y048361D01*
X033918Y047331D02*
Y048361D01*
X032719Y047331D02*
X033918D01*
X032719Y048361D02*
X033918D01*
X032719Y050581D02*
Y051611D01*
X033918Y050581D02*
Y051611D01*
X032719Y050581D02*
X033918D01*
X032719Y051611D02*
X033918D01*
X016137Y026198D02*
X016220D01*
X015466Y025948D02*
X015716Y026198D01*
X015466Y024448D02*
Y025948D01*
Y024448D02*
X015716Y024198D01*
X017077D01*
X015722Y026198D02*
X017077D01*
Y026198D02*
X017341Y025934D01*
X015722Y025198D02*
X017077D01*
Y024198D02*
X017342Y024463D01*
X016137Y016355D02*
X016220D01*
X015466Y016105D02*
X015716Y016355D01*
X015466Y014605D02*
Y016105D01*
Y014605D02*
X015716Y014355D01*
X017077D01*
X015722Y016355D02*
X017077D01*
Y016355D02*
X017341Y016091D01*
X015722Y015355D02*
X017077D01*
Y014355D02*
X017342Y014620D01*
X029512Y025063D02*
X029912D01*
X029512Y020763D02*
Y025063D01*
X032312D02*
X032612D01*
Y020763D02*
Y025063D01*
X029512Y020763D02*
X032612D01*
X024256Y053622D02*
X031256D01*
Y043622D02*
Y053622D01*
X024256Y043622D02*
X031256D01*
X024256D02*
Y053622D01*
D33*
X027133Y051422D02*
X029133D01*
X026405Y048922D02*
X026790Y051119D01*
X028933Y048853D02*
X029319Y051050D01*
X026633Y048622D02*
X028633D01*
X025921Y046155D02*
X026307Y048352D01*
X026133Y045822D02*
X028133D01*
X028449Y046086D02*
X028835Y048283D01*
M02*
