G04 Layer_Color=32896*
%FSAX24Y24*%
%MOIN*%
G70*
G01*
G75*
%ADD12C,0.0100*%
%ADD26C,0.0098*%
%ADD27C,0.0236*%
%ADD32C,0.0079*%
D12*
X023735Y048319D02*
X023635Y048219D01*
X023435D01*
X023335Y048319D01*
Y048719D01*
X023435Y048819D01*
X023635D01*
X023735Y048719D01*
X023934Y048819D02*
X024134D01*
X024034D01*
Y048219D01*
X023934Y048319D01*
X023735Y047532D02*
X023635Y047432D01*
X023435D01*
X023335Y047532D01*
Y047932D01*
X023435Y048032D01*
X023635D01*
X023735Y047932D01*
X024334Y048032D02*
X023934D01*
X024334Y047632D01*
Y047532D01*
X024234Y047432D01*
X024034D01*
X023934Y047532D01*
X029313Y038673D02*
X029213Y038573D01*
X029013D01*
X028913Y038673D01*
Y039073D01*
X029013Y039173D01*
X029213D01*
X029313Y039073D01*
X029513Y038673D02*
X029613Y038573D01*
X029813D01*
X029913Y038673D01*
Y038773D01*
X029813Y038873D01*
X029713D01*
X029813D01*
X029913Y038973D01*
Y039073D01*
X029813Y039173D01*
X029613D01*
X029513Y039073D01*
X029313Y039473D02*
X029213Y039373D01*
X029013D01*
X028913Y039473D01*
Y039873D01*
X029013Y039973D01*
X029213D01*
X029313Y039873D01*
X029813Y039973D02*
Y039373D01*
X029513Y039673D01*
X029913D01*
X023335Y049606D02*
Y049006D01*
X023635D01*
X023735Y049106D01*
Y049306D01*
X023635Y049406D01*
X023335D01*
X023535D02*
X023735Y049606D01*
X023934D02*
X024134D01*
X024034D01*
Y049006D01*
X023934Y049106D01*
X023335Y050394D02*
Y049794D01*
X023635D01*
X023735Y049894D01*
Y050094D01*
X023635Y050194D01*
X023335D01*
X023535D02*
X023735Y050394D01*
X024334D02*
X023934D01*
X024334Y049994D01*
Y049894D01*
X024234Y049794D01*
X024034D01*
X023934Y049894D01*
X020579Y047235D02*
Y047735D01*
X020679Y047835D01*
X020879D01*
X020979Y047735D01*
Y047235D01*
X021179Y047835D02*
X021378D01*
X021279D01*
Y047235D01*
X021179Y047335D01*
D26*
X021327Y044876D02*
G03*
X021327Y044876I-000049J000000D01*
G01*
D27*
X022232Y045472D02*
G03*
X022232Y045472I-000118J000000D01*
G01*
D32*
X021720Y047047D02*
X022980D01*
X021720Y045079D02*
X022980D01*
Y047047D01*
X021720Y045079D02*
Y047047D01*
M02*
