G04 Layer_Color=8388736*
%FSAX24Y24*%
%MOIN*%
G70*
G01*
G75*
%ADD34R,0.0631X0.0552*%
%ADD35R,0.0474X0.0671*%
%ADD36C,0.1537*%
%ADD37C,0.0671*%
%ADD38R,0.0671X0.0671*%
%ADD39C,0.0789*%
%ADD40C,0.0080*%
%ADD41C,0.0680*%
%ADD42C,0.0867*%
D34*
X035039Y044823D02*
D03*
Y044154D02*
D03*
Y048169D02*
D03*
Y047500D02*
D03*
Y051516D02*
D03*
Y050846D02*
D03*
D35*
X032689Y045546D02*
D03*
X032689Y043617D02*
D03*
X033948D02*
D03*
Y045546D02*
D03*
X032689Y048796D02*
D03*
X032689Y046867D02*
D03*
X033948D02*
D03*
Y048796D02*
D03*
X032689Y052046D02*
D03*
X032689Y050117D02*
D03*
X033948D02*
D03*
Y052046D02*
D03*
D36*
X021850Y015354D02*
D03*
Y025197D02*
D03*
D37*
X020850Y018571D02*
D03*
Y019472D02*
D03*
Y020374D02*
D03*
Y021276D02*
D03*
Y022177D02*
D03*
X021850Y019022D02*
D03*
Y019923D02*
D03*
Y020825D02*
D03*
Y021726D02*
D03*
Y018120D02*
D03*
X022850Y022177D02*
D03*
Y019472D02*
D03*
Y020374D02*
D03*
Y021276D02*
D03*
X025756Y052874D02*
D03*
X026756D02*
D03*
X027756D02*
D03*
X028756D02*
D03*
X029756D02*
D03*
Y044370D02*
D03*
X028756D02*
D03*
X027756D02*
D03*
X026756D02*
D03*
X025756D02*
D03*
D38*
X022850Y018571D02*
D03*
D39*
X030531Y025063D02*
D03*
X031683D02*
D03*
X031673Y023882D02*
D03*
X030522D02*
D03*
D40*
X031112Y022181D02*
D03*
X020768Y040551D02*
D03*
Y027756D02*
D03*
X034744Y040551D02*
D03*
Y027756D02*
D03*
D41*
X024256Y040551D02*
D03*
X025256D02*
D03*
X026256D02*
D03*
X027256D02*
D03*
X028256D02*
D03*
X029256D02*
D03*
X030256D02*
D03*
X031256D02*
D03*
D42*
X034449Y015157D02*
D03*
X034449Y053346D02*
D03*
X021063D02*
D03*
X025591Y015157D02*
D03*
M02*
