M48
;Layer_Color=9474304
;FILE_FORMAT=2:4
INCH
;TYPE=PLATED
T1F00S00C0.0118
T2F00S00C0.0276
T3F00S00C0.0394
T4F00S00C0.0433
T5F00S00C0.0441
T6F00S00C0.1181
T7F00S00C0.1260
;TYPE=NON_PLATED
T8F00S00C0.0787
%
T01
X025185Y023280
X025685
X026185
X028185Y022680
Y021980
X033185Y039780
X034443Y042994
Y043394
Y045994
Y046394
X035043
Y045994
Y049194
Y049594
X034443
Y049194
X035043Y052194
Y052594
X022585Y050780
X021285Y048380
T02
X025756Y044370
X026756
X027756
X028756
X029756
Y052874
X028756
X027756
X026756
X025756
T03
X024256Y040551
X025256
X026256
X027256
X028256
X029256
X030256
X031256
T04
X020850Y018571
Y019472
Y020374
Y021276
Y022177
X021850Y021726
Y020825
Y019923
Y019022
Y018120
X022850Y018571
Y019472
Y020374
Y021276
Y022177
T05
X031673Y023882
X031683Y025063
X030531
X030522Y023882
T06
X034744Y027756
X031112Y022181
X020768Y027756
Y040551
X034744Y040551
T07
X021850Y015354
Y025197
T08
X025591Y015157
X034449Y015157
X034449Y053346
X021063
M30
